<?xml version="1.0" encoding="UTF-8" standalone="no"?>
<!-- Created with Inkscape (http://www.inkscape.org/) -->

<svg
   xmlns:dc="http://purl.org/dc/elements/1.1/"
   xmlns:cc="http://creativecommons.org/ns#"
   xmlns:rdf="http://www.w3.org/1999/02/22-rdf-syntax-ns#"
   xmlns:svg="http://www.w3.org/2000/svg"
   xmlns="http://www.w3.org/2000/svg"
   xmlns:sodipodi="http://sodipodi.sourceforge.net/DTD/sodipodi-0.dtd"
   xmlns:inkscape="http://www.inkscape.org/namespaces/inkscape"
   id="svg4136"
   version="1.1"
   inkscape:version="0.91 r13725"
   width="2812.5"
   height="1350"
   viewBox="0 0 2812.5 1350"
   sodipodi:docname="03_big_coridoor.svg">
  <metadata
     id="metadata4142">
    <rdf:RDF>
      <cc:Work
         rdf:about="">
        <dc:format>image/svg+xml</dc:format>
        <dc:type
           rdf:resource="http://purl.org/dc/dcmitype/StillImage" />
        <dc:title />
      </cc:Work>
    </rdf:RDF>
  </metadata>
  <defs
     id="defs4140">
    <pattern
       y="0"
       x="0"
       height="6"
       width="6"
       patternUnits="userSpaceOnUse"
       id="EMFhbasepattern" />
  </defs>
  <sodipodi:namedview
     pagecolor="#ffffff"
     bordercolor="#666666"
     borderopacity="1"
     objecttolerance="10"
     gridtolerance="10"
     guidetolerance="10"
     inkscape:pageopacity="0"
     inkscape:pageshadow="2"
     inkscape:window-width="1536"
     inkscape:window-height="801"
     id="namedview4138"
     showgrid="false"
     inkscape:zoom="0.7047111"
     inkscape:cx="946.75857"
     inkscape:cy="899.64957"
     inkscape:window-x="-8"
     inkscape:window-y="-8"
     inkscape:window-maximized="1"
     inkscape:current-layer="svg4136" />
  <path
     style="fill:#000000;fill-opacity:1;fill-rule:evenodd;stroke:none;stroke-width:1px;stroke-linecap:butt;stroke-linejoin:miter;stroke-opacity:1"
     d="m 291.36213,747.08231 438.10932,0.87798 -1.0034,375.27141 391.59195,-0.1774 -0.3548,229.2238 -28.7717,0 -0.019,-200.4495 -390.79279,0.1254 -0.12543,-375.39683 -408.75987,0 z"
     id="Wall_04"
     inkscape:connector-curvature="0"
     sodipodi:nodetypes="ccccccccccc" />
  <path
     style="fill:#000000;fill-opacity:1;fill-rule:evenodd;stroke:none;stroke-width:1px;stroke-linecap:butt;stroke-linejoin:miter;stroke-opacity:1"
     d="m 289.98246,594.44016 0.2052,28.94904 439.40921,0.0241 0.37628,-377.40365 391.82755,0.25085 0.1774,-244.7407949 -29.0378,-0.088689 0.013,215.9817437 -392.07844,-0.5017 0,377.77992 z"
     id="Wall_01"
     inkscape:connector-curvature="0"
     sodipodi:nodetypes="ccccccccccc" />
  <path
     style="fill:#000000;fill-opacity:1;fill-rule:evenodd;stroke:none;stroke-width:1px;stroke-linecap:butt;stroke-linejoin:miter;stroke-opacity:1"
     d="m 1245.8119,0.86558639 0,245.13591361 391.2039,0 -0.2204,376.41689 422.2905,0.15586 -0.089,-28.82386 -393.0689,-0.30019 0.2508,-376.96594 -391.1482,0.21949 0.046,-215.74947478 z"
     id="Wall_02"
     inkscape:connector-curvature="0"
     sodipodi:nodetypes="ccccccccccc" />
  <path
     style="opacity:1;fill:#000000;fill-opacity:1;fill-rule:evenodd;stroke:none;stroke-width:1px;stroke-linecap:butt;stroke-linejoin:miter;stroke-opacity:1"
     d="m 1272.7939,1351.6537 -28.7557,0.1201 0.1093,-227.7843 395.9069,0.3104 -1.153,-377.85871 421.486,0.004 -0.037,29.17416 -391.3837,0.0887 -0.2218,377.371 -395.5965,0 z"
     id="Wall_03"
     inkscape:connector-curvature="0"
     sodipodi:nodetypes="ccccccccccc" />
  <path
     style="fill:#00d400;fill-opacity:1;fill-rule:evenodd;stroke:none;stroke-width:1px;stroke-linecap:butt;stroke-linejoin:miter;stroke-opacity:1"
     d="m 1137.3693,284.47888 85.3433,0.17674 -0.1179,75.90329 -85.3116,-0.0844 z"
     id="chair_02"
     inkscape:connector-curvature="0"
     sodipodi:nodetypes="ccccc" />
  <path
     style="fill:#00d400;fill-opacity:1;fill-rule:evenodd;stroke:none;stroke-width:1px;stroke-linecap:butt;stroke-linejoin:miter;stroke-opacity:1"
     d="m 1478.5622,645.02001 85.3433,0.17674 -0.1179,75.90329 -85.3116,-0.0844 z"
     id="chair_03"
     inkscape:connector-curvature="0"
     sodipodi:nodetypes="ccccc" />
  <path
     style="fill:#00d400;fill-opacity:1;fill-rule:evenodd;stroke:none;stroke-width:1px;stroke-linecap:butt;stroke-linejoin:miter;stroke-opacity:1"
     d="m 777.56574,647.85806 85.3433,0.17674 -0.1179,75.90329 -85.3116,-0.0844 z"
     id="chair_01"
     inkscape:connector-curvature="0"
     sodipodi:nodetypes="ccccc"
     inkscape:label="#chair_01" />
  <path
     style="fill:#00d400;fill-opacity:1;fill-rule:evenodd;stroke:none;stroke-width:1px;stroke-linecap:butt;stroke-linejoin:miter;stroke-opacity:1"
     d="m 780.40375,798.27431 85.3433,0.17674 -0.1179,75.90329 -85.3116,-0.0844 z"
     id="chair_04"
     inkscape:connector-curvature="0"
     sodipodi:nodetypes="ccccc" />
  <path
     inkscape:connector-curvature="0"
     id="path4145"
     d="m 424.33485,706.08813 49.5707,0 0,-47.47521 -49.5707,0 z"
     style="fill:#ffa600;fill-opacity:1;fill-rule:nonzero;stroke:none" />
</svg>
