<?xml version="1.0" encoding="UTF-8" standalone="no"?>
<svg
   xmlns:dc="http://purl.org/dc/elements/1.1/"
   xmlns:cc="http://creativecommons.org/ns#"
   xmlns:rdf="http://www.w3.org/1999/02/22-rdf-syntax-ns#"
   xmlns:svg="http://www.w3.org/2000/svg"
   xmlns="http://www.w3.org/2000/svg"
   xmlns:sodipodi="http://sodipodi.sourceforge.net/DTD/sodipodi-0.dtd"
   xmlns:inkscape="http://www.inkscape.org/namespaces/inkscape"
   version="1.1"
   viewBox="0 0 949.99997 943.70929"
   stroke-miterlimit="10"
   id="svg2"
   inkscape:version="0.92.5 (0.92.5+68)"
   sodipodi:docname="after_the_feast_base.svg"
   width="950cm"
   height="943.70929cm"
   style="fill:none;stroke:none;stroke-linecap:square;stroke-miterlimit:10"
   inkscape:export-filename="/home/xia0ben/INRIA/Code/s-namo-sim/data/worlds/s-namo_cases/04_after_the_feast/04_after_the_feast.svg.png"
   inkscape:export-xdpi="600"
   inkscape:export-ydpi="600">
  <metadata
     id="metadata99">
    <rdf:RDF>
      <cc:Work
         rdf:about="">
        <dc:format>image/svg+xml</dc:format>
        <dc:type
           rdf:resource="http://purl.org/dc/dcmitype/StillImage" />
        <dc:title></dc:title>
      </cc:Work>
    </rdf:RDF>
  </metadata>
  <defs
     id="defs97" />
  <sodipodi:namedview
     pagecolor="#ffffff"
     bordercolor="#666666"
     borderopacity="1"
     objecttolerance="10"
     gridtolerance="10"
     guidetolerance="10"
     inkscape:pageopacity="0"
     inkscape:pageshadow="2"
     inkscape:window-width="640"
     inkscape:window-height="480"
     id="namedview95"
     showgrid="false"
     inkscape:zoom="0.01"
     inkscape:cx="7667.2161"
     inkscape:cy="9729.4261"
     inkscape:current-layer="svg2"
     fit-margin-top="0"
     fit-margin-left="0"
     fit-margin-right="0"
     fit-margin-bottom="0"
     inkscape:document-units="cm"
     units="cm" />
  <path
     d="m 188.59684,197.5624 c 0,0 0,0 0,0 0,0 12.50618,-12.50617 12.50618,-12.50617 0,0 50.02321,0 50.02321,0 0,0 0,0 0,0 0,0 12.50611,12.50617 12.50611,12.50617 0,0 0,50.02316 0,50.02316 0,0 -12.50611,12.50617 -12.50611,12.50617 0,0 -50.02321,0 -50.02321,0 0,0 -12.50618,-12.50617 -12.50618,-12.50617 0,0 0,-50.02316 0,-50.02316"
     id="table_01"
     style="fill:#000000;fill-rule:evenodd;stroke-width:2.82332373"
     inkscape:connector-curvature="0" />
  <path
     d="m 354.49554,197.5624 c 0,0 0,0 0,0 0,0 12.50614,-12.50617 12.50614,-12.50617 0,0 50.02315,0 50.02315,0 0,0 0,0 0,0 0,0 12.50619,12.50617 12.50619,12.50617 0,0 0,50.02316 0,50.02316 0,0 -12.50619,12.50617 -12.50619,12.50617 0,0 -50.02315,0 -50.02315,0 0,0 -12.50614,-12.50617 -12.50614,-12.50617 0,0 0,-50.02316 0,-50.02316"
     id="table_02"
     style="fill:#000000;fill-rule:evenodd;stroke-width:2.82332373"
     inkscape:connector-curvature="0" />
  <path
     d="m 520.39419,197.5624 c 0,0 0,0 0,0 0,0 12.50611,-12.50617 12.50611,-12.50617 0,0 50.02326,0 50.02326,0 0,0 0,0 0,0 0,0 12.50605,12.50617 12.50605,12.50617 0,0 0,50.02316 0,50.02316 0,0 -12.50605,12.50617 -12.50605,12.50617 0,0 -50.02326,0 -50.02326,0 0,0 -12.50611,-12.50617 -12.50611,-12.50617 0,0 0,-50.02316 0,-50.02316"
     id="table_03"
     style="fill:#000000;fill-rule:evenodd;stroke-width:2.82332373"
     inkscape:connector-curvature="0" />
  <path
     d="m 686.29287,197.5624 c 0,0 0,0 0,0 0,0 12.50619,-12.50617 12.50619,-12.50617 0,0 50.02309,0 50.02309,0 0,0 0,0 0,0 0,0 12.50616,12.50617 12.50616,12.50617 0,0 0,50.02316 0,50.02316 0,0 -12.50616,12.50617 -12.50616,12.50617 0,0 -50.02309,0 -50.02309,0 0,0 -12.50619,-12.50617 -12.50619,-12.50617 0,0 0,-50.02316 0,-50.02316"
     id="table_04"
     style="fill:#000000;fill-rule:evenodd;stroke-width:2.82332373"
     inkscape:connector-curvature="0" />
  <path
     d="m 251.15396,350.95459 c 0,0 0,0 0,0 0,0 12.50619,12.50614 12.50619,12.50614 0,0 0,50.02315 0,50.02315 0,0 0,0 0,0 0,0 -12.50619,12.50616 -12.50619,12.50616 0,0 -50.02313,0 -50.02313,0 0,0 -12.50618,-12.50616 -12.50618,-12.50616 0,0 0,-50.02315 0,-50.02315 0,0 12.50618,-12.50614 12.50618,-12.50614 0,0 50.02313,0 50.02313,0"
     id="table_05"
     style="fill:#000000;fill-rule:evenodd;stroke-width:2.82332373"
     inkscape:connector-curvature="0" />
  <path
     d="m 417.05264,350.95459 c 0,0 0,0 0,0 0,0 12.50616,12.50614 12.50616,12.50614 0,0 0,50.02315 0,50.02315 0,0 0,0 0,0 0,0 -12.50616,12.50616 -12.50616,12.50616 0,0 -50.02317,0 -50.02317,0 0,0 -12.50614,-12.50616 -12.50614,-12.50616 0,0 0,-50.02315 0,-50.02315 0,0 12.50614,-12.50614 12.50614,-12.50614 0,0 50.02317,0 50.02317,0"
     id="table_06"
     style="fill:#000000;fill-rule:evenodd;stroke-width:2.82332373"
     inkscape:connector-curvature="0" />
  <path
     d="m 582.95131,350.95459 c 0,0 0,0 0,0 0,0 12.50616,12.50614 12.50616,12.50614 0,0 0,50.02315 0,50.02315 0,0 0,0 0,0 0,0 -12.50616,12.50616 -12.50616,12.50616 0,0 -50.0232,0 -50.0232,0 0,0 -12.50611,-12.50616 -12.50611,-12.50616 0,0 0,-50.02315 0,-50.02315 0,0 12.50611,-12.50614 12.50611,-12.50614 0,0 50.0232,0 50.0232,0"
     id="table_07"
     style="fill:#000000;fill-rule:evenodd;stroke-width:2.82332373"
     inkscape:connector-curvature="0" />
  <path
     d="m 748.84998,350.95459 c 0,0 0,0 0,0 0,0 12.5062,12.50614 12.5062,12.50614 0,0 0,50.02315 0,50.02315 0,0 0,0 0,0 0,0 -12.5062,12.50616 -12.5062,12.50616 0,0 -50.02317,0 -50.02317,0 0,0 -12.50619,-12.50616 -12.50619,-12.50616 0,0 0,-50.02315 0,-50.02315 0,0 12.50619,-12.50614 12.50619,-12.50614 0,0 50.02317,0 50.02317,0"
     id="table_08"
     style="fill:#000000;fill-rule:evenodd;stroke-width:2.82332373"
     inkscape:connector-curvature="0" />
  <path
     d="m 251.15396,516.85289 c 0,0 0,0 0,0 0,0 12.50619,12.50617 12.50619,12.50617 0,0 0,50.02315 0,50.02315 0,0 0,0 0,0 0,0 -12.50619,12.50617 -12.50619,12.50617 0,0 -50.02313,0 -50.02313,0 0,0 -12.50618,-12.50617 -12.50618,-12.50617 0,0 0,-50.02315 0,-50.02315 0,0 12.50618,-12.50617 12.50618,-12.50617 0,0 50.02313,0 50.02313,0"
     id="table_09"
     style="fill:#000000;fill-rule:evenodd;stroke-width:2.82332373"
     inkscape:connector-curvature="0" />
  <path
     d="m 417.05264,516.85289 c 0,0 0,0 0,0 0,0 12.50616,12.50617 12.50616,12.50617 0,0 0,50.02315 0,50.02315 0,0 0,0 0,0 0,0 -12.50616,12.50617 -12.50616,12.50617 0,0 -50.02317,0 -50.02317,0 0,0 -12.50614,-12.50617 -12.50614,-12.50617 0,0 0,-50.02315 0,-50.02315 0,0 12.50614,-12.50617 12.50614,-12.50617 0,0 50.02317,0 50.02317,0"
     id="table_10"
     style="fill:#000000;fill-rule:evenodd;stroke-width:2.82332373"
     inkscape:connector-curvature="0" />
  <path
     d="m 582.95131,516.85289 c 0,0 0,0 0,0 0,0 12.50616,12.50617 12.50616,12.50617 0,0 0,50.02315 0,50.02315 0,0 0,0 0,0 0,0 -12.50616,12.50617 -12.50616,12.50617 0,0 -50.0232,0 -50.0232,0 0,0 -12.50611,-12.50617 -12.50611,-12.50617 0,0 0,-50.02315 0,-50.02315 0,0 12.50611,-12.50617 12.50611,-12.50617 0,0 50.0232,0 50.0232,0"
     id="table_11"
     style="fill:#000000;fill-rule:evenodd;stroke-width:2.82332373"
     inkscape:connector-curvature="0" />
  <path
     d="m 748.84998,516.85289 c 0,0 0,0 0,0 0,0 12.5062,12.50617 12.5062,12.50617 0,0 0,50.02315 0,50.02315 0,0 0,0 0,0 0,0 -12.5062,12.50617 -12.5062,12.50617 0,0 -50.02317,0 -50.02317,0 0,0 -12.50619,-12.50617 -12.50619,-12.50617 0,0 0,-50.02315 0,-50.02315 0,0 12.50619,-12.50617 12.50619,-12.50617 0,0 50.02317,0 50.02317,0"
     id="table_12"
     style="fill:#000000;fill-rule:evenodd;stroke-width:2.82332373"
     inkscape:connector-curvature="0" />
  <path
     d="m 251.15396,682.75124 c 0,0 0,0 0,0 0,0 12.50619,12.50616 12.50619,12.50616 0,0 0,50.02317 0,50.02317 0,0 0,0 0,0 0,0 -12.50619,12.50614 -12.50619,12.50614 0,0 -50.02313,0 -50.02313,0 0,0 -12.50618,-12.50614 -12.50618,-12.50614 0,0 0,-50.02317 0,-50.02317 0,0 12.50618,-12.50616 12.50618,-12.50616 0,0 50.02313,0 50.02313,0"
     id="table_13"
     style="fill:#000000;fill-rule:evenodd;stroke-width:2.82332373"
     inkscape:connector-curvature="0" />
  <path
     d="m 417.05264,682.75124 c 0,0 0,0 0,0 0,0 12.50616,12.50616 12.50616,12.50616 0,0 0,50.02317 0,50.02317 0,0 0,0 0,0 0,0 -12.50616,12.50614 -12.50616,12.50614 0,0 -50.02317,0 -50.02317,0 0,0 -12.50614,-12.50614 -12.50614,-12.50614 0,0 0,-50.02317 0,-50.02317 0,0 12.50614,-12.50616 12.50614,-12.50616 0,0 50.02317,0 50.02317,0"
     id="table_14"
     style="fill:#000000;fill-rule:evenodd;stroke-width:2.82332373"
     inkscape:connector-curvature="0" />
  <path
     d="m 582.95131,682.75124 c 0,0 0,0 0,0 0,0 12.50616,12.50616 12.50616,12.50616 0,0 0,50.02317 0,50.02317 0,0 0,0 0,0 0,0 -12.50616,12.50614 -12.50616,12.50614 0,0 -50.0232,0 -50.0232,0 0,0 -12.50611,-12.50614 -12.50611,-12.50614 0,0 0,-50.02317 0,-50.02317 0,0 12.50611,-12.50616 12.50611,-12.50616 0,0 50.0232,0 50.0232,0"
     id="table_15"
     style="fill:#000000;fill-rule:evenodd;stroke-width:2.82332373"
     inkscape:connector-curvature="0" />
  <path
     d="m 748.84998,682.75124 c 0,0 0,0 0,0 0,0 12.5062,12.50616 12.5062,12.50616 0,0 0,50.02317 0,50.02317 0,0 0,0 0,0 0,0 -12.5062,12.50614 -12.5062,12.50614 0,0 -50.02317,0 -50.02317,0 0,0 -12.50619,-12.50614 -12.50619,-12.50614 0,0 0,-50.02317 0,-50.02317 0,0 12.50619,-12.50616 12.50619,-12.50616 0,0 50.02317,0 50.02317,0"
     id="table_16"
     style="fill:#000000;fill-rule:evenodd;stroke-width:2.82332373"
     inkscape:connector-curvature="0" />
  <path
     d="m 58.759923,65.95705 c 0,0 57.524827,0 57.524827,0 0,0 0,57.466 0,57.466 0,0 -57.524827,0 -57.524827,0 0,0 0,-57.466 0,-57.466"
     id="stool_01"
     style="fill:#f1c232;fill-rule:evenodd;stroke-width:2.82332373"
     inkscape:connector-curvature="0" />
  <path
     d="m 197.35141,102.83746 c 0,0 57.52491,0 57.52491,0 0,0 0,57.46596 0,57.46596 0,0 -57.52491,0 -57.52491,0 0,0 0,-57.46596 0,-57.46596"
     id="stool_02"
     style="fill:#f1c232;fill-rule:evenodd;stroke-width:2.82332373"
     inkscape:connector-curvature="0" />
  <path
     d="m 446.22839,112.69232 c 0,0 57.52488,0 57.52488,0 0,0 0,57.46597 0,57.46597 0,0 -57.52488,0 -57.52488,0 0,0 0,-57.46597 0,-57.46597"
     id="stool_03"
     style="fill:#f1c232;fill-rule:evenodd;stroke-width:2.82332373"
     inkscape:connector-curvature="0" />
  <path
     d="m 765.49519,67.15917 c 0,0 57.52492,0 57.52492,0 0,0 0,57.46596 0,57.46596 0,0 -57.52492,0 -57.52492,0 0,0 0,-57.46596 0,-57.46596"
     id="stool_04"
     style="fill:#f1c232;fill-rule:evenodd;stroke-width:2.82332373"
     inkscape:connector-curvature="0" />
  <path
     d="m 612.10537,193.83753 c 0,0 57.52489,0 57.52489,0 0,0 0,57.46593 0,57.46593 0,0 -57.52489,0 -57.52489,0 0,0 0,-57.46593 0,-57.46593"
     id="stool_05"
     style="fill:#f1c232;fill-rule:evenodd;stroke-width:2.82332373"
     inkscape:connector-curvature="0" />
  <path
     d="m 363.25748,276.78667 c 0,0 57.52488,0 57.52488,0 0,0 0,57.46596 0,57.46596 0,0 -57.52488,0 -57.52488,0 0,0 0,-57.46596 0,-57.46596"
     id="stool_06"
     style="fill:#f1c232;fill-rule:evenodd;stroke-width:2.82332373"
     inkscape:connector-curvature="0" />
  <path
     d="m 280.3317,359.73914 c 0,0 57.52493,0 57.52493,0 0,0 0,57.46598 0,57.46598 0,0 -57.52493,0 -57.52493,0 0,0 0,-57.46598 0,-57.46598"
     id="stool_07"
     style="fill:#f1c232;fill-rule:evenodd;stroke-width:2.82332373"
     inkscape:connector-curvature="0" />
  <path
     d="m 445.38048,764.24885 c 0,0 57.52492,0 57.52492,0 0,0 0,57.46593 0,57.46593 0,0 -57.52492,0 -57.52492,0 0,0 0,-57.46593 0,-57.46593"
     id="stool_08"
     style="fill:#f1c232;fill-rule:evenodd;stroke:none;stroke-width:2.82332373;stroke-linecap:square;stroke-miterlimit:10"
     inkscape:connector-curvature="0" />
  <path
     d="m 120.88223,442.68994 c 0,0 57.52485,0 57.52485,0 0,0 0,57.46597 0,57.46597 0,0 -57.52485,0 -57.52485,0 0,0 0,-57.46597 0,-57.46597"
     id="stool_09"
     style="fill:#f1c232;fill-rule:evenodd;stroke-width:2.82332373"
     inkscape:connector-curvature="0" />
  <path
     d="m 614.07552,525.68005 c 0,0 57.52491,0 57.52491,0 0,0 0,57.46593 0,57.46593 0,0 -57.52491,0 -57.52491,0 0,0 0,-57.46593 0,-57.46593"
     id="stool_10"
     style="fill:#f1c232;fill-rule:evenodd;stroke:none;stroke-width:2.82332373;stroke-linecap:square;stroke-miterlimit:10"
     inkscape:connector-curvature="0" />
  <path
     d="m 446.96758,442.06966 c 0,0 57.52492,0 57.52492,0 0,0 0,57.46593 0,57.46593 0,0 -57.52492,0 -57.52492,0 0,0 0,-57.46593 0,-57.46593"
     id="stool_11"
     style="fill:#f1c232;fill-rule:evenodd;stroke:none;stroke-width:2.82332373;stroke-linecap:square;stroke-miterlimit:10"
     inkscape:connector-curvature="0" />
  <path
     d="m 279.82664,608.58337 c 0,0 57.52489,0 57.52489,0 0,0 0,57.46593 0,57.46593 0,0 -57.52489,0 -57.52489,0 0,0 0,-57.46593 0,-57.46593"
     id="stool_12"
     style="fill:#f1c232;fill-rule:evenodd;stroke-width:2.82332373"
     inkscape:connector-curvature="0" />
  <path
     d="m 691.93479,607.5321 c 0,0 57.52492,0 57.52492,0 0,0 0,57.46593 0,57.46593 0,0 -57.52492,0 -57.52492,0 0,0 0,-57.46593 0,-57.46593"
     id="stool_13"
     style="fill:#f1c232;fill-rule:evenodd;stroke:none;stroke-width:2.82332373;stroke-linecap:square;stroke-miterlimit:10"
     inkscape:connector-curvature="0" />
  <path
     d="m 848.05361,666.05263 c 0,0 57.52481,0 57.52481,0 0,0 0,57.46596 0,57.46596 0,0 -57.52481,0 -57.52481,0 0,0 0,-57.46596 0,-57.46596"
     id="stool_14"
     style="fill:#f1c232;fill-rule:evenodd;stroke-width:2.82332373"
     inkscape:connector-curvature="0" />
  <path
     d="m 139.82661,807.0043 c 0,0 57.52483,0 57.52483,0 0,0 0,57.46599 0,57.46599 0,0 -57.52483,0 -57.52483,0 0,0 0,-57.46599 0,-57.46599"
     id="stool_15"
     style="fill:#f1c232;fill-rule:evenodd;stroke-width:2.82332373"
     inkscape:connector-curvature="0" />
  <path
     d="m 612.13206,739.93029 c 0,0 57.52479,0 57.52479,0 0,0 0,57.46596 0,57.46596 0,0 -57.52479,0 -57.52479,0 0,0 0,-57.46596 0,-57.46596"
     id="stool_16"
     style="fill:#f1c232;fill-rule:evenodd;stroke:none;stroke-width:2.82332373;stroke-linecap:square;stroke-miterlimit:10"
     inkscape:connector-curvature="0" />
  <path
     d="m 857.32919,856.15221 c 0,0 57.52492,0 57.52492,0 0,0 0,57.46599 0,57.46599 0,0 -57.52492,0 -57.52492,0 0,0 0,-57.46599 0,-57.46599"
     id="stool_17"
     style="fill:#f1c232;fill-rule:evenodd;stroke-width:2.82332373"
     inkscape:connector-curvature="0" />
  <path
     d="m 530.25561,276.90521 c 0,0 57.52491,0 57.52491,0 0,0 0,57.46597 0,57.46597 0,0 -57.52491,0 -57.52491,0 0,0 0,-57.46597 0,-57.46597"
     id="stool_18"
     style="fill:#f1c232;fill-rule:evenodd;stroke:none;stroke-width:2.82332373;stroke-linecap:square;stroke-miterlimit:10"
     inkscape:connector-curvature="0" />
  <path
     d="m 775.88477,440.658 c 0,0 57.52492,0 57.52492,0 0,0 0,57.46593 0,57.46593 0,0 -57.52492,0 -57.52492,0 0,0 0,-57.46593 0,-57.46593"
     id="stool_19"
     style="fill:#f1c232;fill-rule:evenodd;stroke:none;stroke-width:2.82332373;stroke-linecap:square;stroke-miterlimit:10"
     inkscape:connector-curvature="0" />
  <path
     d="m 433.30513,15.84464 c 0,0 83.37283,0 83.37283,0 0,0 0,83.37278 0,83.37278 0,0 -83.37283,0 -83.37283,0 0,0 0,-83.37278 0,-83.37278"
     id="pillar_top"
     style="fill:#000000;fill-rule:evenodd;stroke-width:2.82332373"
     inkscape:connector-curvature="0" />
  <path
     d="m 850.5247,429.73021 c 0,0 83.37281,0 83.37281,0 0,0 0,83.37281 0,83.37281 0,0 -83.37281,0 -83.37281,0 0,0 0,-83.37281 0,-83.37281"
     id="pillar_right"
     style="fill:#000000;fill-rule:evenodd;stroke-width:2.82332373"
     inkscape:connector-curvature="0" />
  <path
     d="m 433.2855,844.47944 c 0,0 83.37284,0 83.37284,0 0,0 0,83.37272 0,83.37272 0,0 -83.37284,0 -83.37284,0 0,0 0,-83.37272 0,-83.37272"
     id="pillar_bottom"
     style="fill:#000000;fill-rule:evenodd;stroke-width:2.82332373"
     inkscape:connector-curvature="0" />
  <path
     d="m 16.443439,429.73513 c 0,0 83.372779,0 83.372779,0 0,0 0,83.3728 0,83.3728 0,0 -83.372779,0 -83.372779,0 0,0 0,-83.3728 0,-83.3728"
     id="pillar_left"
     style="fill:#000000;fill-rule:evenodd;stroke-width:2.82332373"
     inkscape:connector-curvature="0" />
  <path
     style="fill:#000000;fill-opacity:1;stroke:none;stroke-width:2.82332373;stroke-linecap:butt;stroke-linejoin:miter;stroke-opacity:1"
     d="m 15.791661,15.78428 c 0,0 0,-15.77521 0,-15.77521 0,0 918.410829,0 918.410829,0 0,0 0,15.77521 0,15.77521 0,0 -918.410829,0 -918.410829,0"
     id="wall_ext_top"
     inkscape:connector-curvature="0" />
  <path
     style="fill:#000000;fill-opacity:1;stroke:none;stroke-width:2.82332373;stroke-linecap:butt;stroke-linejoin:miter;stroke-miterlimit:10;stroke-opacity:1"
     d="m 15.791661,943.67607 c 0,0 0,-15.77521 0,-15.77521 0,0 918.410829,0 918.410829,0 0,0 0,15.77521 0,15.77521 0,0 -918.410829,0 -918.410829,0"
     id="wall_ext_bottom"
     inkscape:connector-curvature="0" />
  <path
     style="fill:#000000;fill-opacity:1;stroke:none;stroke-width:2.82332373;stroke-linecap:butt;stroke-linejoin:miter;stroke-opacity:1"
     d="m 0,943.68544 c 0,0 15.772013,0 15.772013,0 0,0 0,-943.68544 0,-943.68544 C 15.772013,0 0,0 0,0 0,0 0,943.68544 0,943.68544"
     id="wall_ext_left"
     inkscape:connector-curvature="0" />
  <path
     style="fill:#000000;fill-opacity:1;stroke:none;stroke-width:2.82332373;stroke-linecap:butt;stroke-linejoin:miter;stroke-miterlimit:10;stroke-opacity:1"
     d="m 934.22798,943.7093 c 0,0 15.77202,0 15.77202,0 0,0 0,-943.68544 0,-943.68544 0,0 -15.77202,0 -15.77202,0 0,0 0,943.68544 0,943.68544"
     id="wall_ext_right"
     inkscape:connector-curvature="0" />
</svg>
