<?xml version="1.0" encoding="UTF-8" standalone="no"?>
<svg
   xmlns:dc="http://purl.org/dc/elements/1.1/"
   xmlns:cc="http://creativecommons.org/ns#"
   xmlns:rdf="http://www.w3.org/1999/02/22-rdf-syntax-ns#"
   xmlns:svg="http://www.w3.org/2000/svg"
   xmlns="http://www.w3.org/2000/svg"
   xmlns:sodipodi="http://sodipodi.sourceforge.net/DTD/sodipodi-0.dtd"
   xmlns:inkscape="http://www.inkscape.org/namespaces/inkscape"
   version="1.2"
   width="800"
   height="796"
   viewBox="0 0 800 796"
   stroke-linecap="round"
   stroke-linejoin="round"
   id="svg2"
   inkscape:version="0.91 r13725"
   sodipodi:docname="05_citi_second_floor.svg">
  <metadata
     id="metadata15">
    <rdf:RDF>
      <cc:Work
         rdf:about="">
        <dc:format>image/svg+xml</dc:format>
        <dc:type
           rdf:resource="http://purl.org/dc/dcmitype/StillImage" />
      </cc:Work>
    </rdf:RDF>
  </metadata>
  <defs
     id="defs13" />
  <sodipodi:namedview
     pagecolor="#ffffff"
     bordercolor="#666666"
     borderopacity="1"
     objecttolerance="10"
     gridtolerance="10"
     guidetolerance="10"
     inkscape:pageopacity="0"
     inkscape:pageshadow="2"
     inkscape:window-width="640"
     inkscape:window-height="480"
     id="namedview11"
     showgrid="false"
     inkscape:zoom="4"
     inkscape:cx="412.62706"
     inkscape:cy="208.21792"
     inkscape:current-layer="svg2" />
  <path
     inkscape:connector-curvature="0"
     d="m 155.0966,246.8207 0,1.8344 -1.8345,0 -1.8345,0 0,1.8345 -1.8345,0 -3.669,0 0,25.6828 -1.8344,0 -3.669,0 0,33.0207 5.5034,0 0,1.8345 5.5035,0 0,9.1724 -1.8345,0 -1.8345,0 0,1.8344 -1.8345,0 -1.8344,0 0,1.8345 -1.8345,0 -1.8345,0 0,3.669 9.1724,0 0,1.8345 1.8345,0 0,31.1862 -1.8345,0 0,12.8414 1.8345,0 0,11.0069 -1.8345,0 0,3.6689 1.8345,0 0,11.0069 -1.8345,0 0,14.6759 -1.8345,0 -22.0138,0 0,40.3586 1.8345,0 0,3.669 1.8345,0 0,1.8345 12.8414,0 0,-1.8345 23.8482,0 0,1.8345 1.8345,0 0,1.8344 5.5035,0 0,-1.8344 14.6758,0 0,1.8344 1.8345,0 0,1.8345 3.669,0 0,1.8345 7.3379,0 0,-1.8345 12.8414,0 0,1.8345 5.5034,0 0,-1.8345 11.0069,0 0,1.8345 3.669,0 0,1.8345 5.5035,0 0,-1.8345 1.8344,0 0,-3.669 1.8345,0 0,-1.8344 3.669,0 1.8345,0 0,-1.8345 179.7793,0 1.8345,0 0,-1.8345 91.7241,0 0,1.8345 1.8345,0 0,1.8345 3.669,0 0,1.8344 1.8344,0 0,1.8345 3.669,0 0,1.8345 1.8345,0 0,1.8345 3.6689,0 0,-1.8345 1.8345,0 0,-1.8345 12.8414,0 0,1.8345 1.8345,0 0,-1.8345 1.8345,0 0,-1.8345 11.0069,0 0,1.8345 5.5034,0 0,-1.8345 1.8345,0 0,-1.8344 9.1724,0 1.8345,0 0,-1.8345 1.8345,0 0,-1.8345 34.8552,0 0,1.8345 33.0206,0 0,-1.8345 1.8345,0 0,-1.8345 1.8345,0 0,-77.0483 -1.8345,0 0,-78.8827 1.8345,0 0,-12.8414 1.8345,0 0,-18.3448 -1.8345,0 0,-14.6759 -1.8345,0 0,-1.8345 -1.8345,0 0,-1.8345 -66.0413,0 0,1.8345 -431.1035,0 0,-1.8345 -1.8345,0 0,-1.8344 -1.8344,0 z"
     id="middle_obstacle" />
  <path
     inkscape:connector-curvature="0"
     d="m 1,1 0,275.1724 9.1724,0 0,-27.5173 9.1724,0 1.8345,0 0,-18.3448 1.8345,0 0,-9.1724 1.8345,0 0,-3.669 25.6827,0 1.8345,0 0,-1.8345 20.1793,0 1.8345,0 0,-5.5034 1.8345,0 0,-7.3379 1.8345,0 0,-14.6759 -1.8345,0 0,-5.5034 -3.669,0 0,-1.8345 -3.6689,0 0,-1.8345 -3.669,0 0,-1.8345 -3.669,0 0,-1.8345 -38.5241,0 0,-3.6689 -1.8345,0 0,3.6689 -1.8345,0 0,5.5035 -9.1724,0 0,-86.2207 1.8345,0 1.8345,0 0,-1.8345 1.8345,0 0,-12.8414 -3.669,0 0,-1.8345 -1.8345,0 0,-11.0069 5.5035,0 1.8344,0 0,-1.8344 5.5035,0 1.8345,0 0,-11.0069 1.8345,0 0,-7.338 1.8344,0 1.8345,0 0,-1.8344 12.8414,0 0,1.8344 1.8345,0 0,20.1793 1.8345,0 0,1.8345 1.8345,0 0,40.3586 1.8344,0 0,1.8345 1.8345,0 0,1.8345 1.8345,0 0,1.8345 1.8345,0 0,1.8345 16.5103,0 0,1.8345 1.8345,0 0,1.8344 1.8345,0 0,1.8345 1.8345,0 0,1.8345 3.6689,0 0,1.8345 1.8345,0 0,-1.8345 14.6759,0 1.8345,0 0,-1.8345 7.3379,0 1.8345,0 0,-1.8345 1.8345,0 0,-1.8344 1.8344,0 0,-12.8414 -1.8344,0 0,-36.6897 1.8344,0 0,-1.8345 1.8345,0 0,-1.8344 1.8345,0 0,-1.8345 -1.8345,0 0,-18.3448 1.8345,0 1.8345,0 0,-1.8345 1.8345,0 0,-16.5104 -3.669,0 0,-16.5103 20.1793,0 0,25.6827 -1.8345,0 0,1.8345 -1.8344,0 0,3.669 -1.8345,0 0,3.669 -1.8345,0 0,11.0068 1.8345,0 0,1.8345 1.8345,0 0,3.669 1.8344,0 0,3.669 1.8345,0 0,60.5379 -1.8345,0 0,11.0069 -1.8344,0 -11.0069,0 0,1.8345 -1.8345,0 -1.8345,0 0,1.8345 -1.8345,0 0,18.3448 -1.8345,0 -3.6689,0 0,1.8345 -1.8345,0 0,31.1862 1.8345,0 0,5.5034 1.8344,0 0,3.669 53.2,0 0,-3.669 1.8345,0 0,-5.5034 1.8345,0 0,-9.1724 1.8345,0 0,-22.0138 -1.8345,0 0,-7.338 -1.8345,0 0,-7.3379 -1.8345,0 0,-14.6759 1.8345,0 1.8345,0 0,-16.5103 1.8345,0 0,-3.669 -9.1724,0 0,-3.6689 -1.8345,0 0,-5.5035 -1.8345,0 0,-3.6689 -7.3379,0 0,-1.8345 -7.3379,0 0,-9.1724 3.6689,0 1.8345,0 0,-1.8345 1.8345,0 1.8345,0 0,-1.8345 1.8345,0 0,-3.669 1.8344,0 0,-3.6689 1.8345,0 0,-1.8345 -1.8345,0 0,-22.0138 -1.8344,0 0,-20.1793 9.1724,0 0,3.6689 1.8344,0 0,1.8345 1.8345,0 0,1.8345 1.8345,0 0,23.8483 5.5035,0 0,1.8345 7.3379,0 0,1.8344 1.8345,0 0,5.5035 1.8345,0 0,-7.3379 20.1793,0 0,1.8344 14.6758,0 0,-1.8344 12.8414,0 1.8345,0 0,-1.8345 3.669,0 1.8344,0 0,-3.669 1.8345,0 0,-3.669 9.1724,0 1.8345,0 0,-1.8344 1.8345,0 0,-1.8345 1.8345,0 0,-7.3379 9.1724,0 0,27.5172 -1.8345,0 0,5.5034 -1.8345,0 -7.3379,0 0,1.8345 -1.8345,0 0,1.8345 -1.8345,0 0,3.669 -1.8344,0 0,1.8345 -1.8345,0 0,1.8344 -1.8345,0 0,12.8414 1.8345,0 0,1.8345 3.6689,0 0,1.8345 1.8345,0 0,18.3448 -1.8345,0 0,1.8345 -22.0138,0 0,-11.0069 -1.8344,0 0,-1.8345 -1.8345,0 0,-1.8345 -1.8345,0 0,-1.8345 -1.8345,0 0,-1.8344 -1.8345,0 0,-11.0069 -3.6689,0 0,-1.8345 -3.669,0 0,-1.8345 -3.669,0 0,1.8345 -1.8344,0 0,1.8345 -1.8345,0 -14.6759,0 0,1.8345 -1.8345,0 0,9.1724 1.8345,0 0,12.8413 -1.8345,0 0,3.669 -1.8345,0 0,7.3379 1.8345,0 0,1.8345 1.8345,0 0,3.669 1.8345,0 0,1.8345 1.8345,0 0,1.8345 1.8345,0 0,1.8344 1.8344,0 0,1.8345 1.8345,0 0,1.8345 1.8345,0 0,1.8345 7.3379,0 0,1.8345 1.8345,0 0,-1.8345 3.669,0 1.8345,0 0,-1.8345 1.8344,0 1.8345,0 0,-1.8345 9.1724,0 0,5.5035 1.8345,0 0,1.8345 1.8345,0 0,25.6827 -1.8345,0 0,5.5035 -1.8345,0 -1.8344,0 0,1.8344 -1.8345,0 -1.8345,0 0,1.8345 -1.8345,0 -1.8345,0 0,7.338 -1.8345,0 -16.5103,0 0,1.8344 -1.8345,0 0,1.8345 -1.8345,0 0,1.8345 3.669,0 0,1.8345 49.531,0 0,-1.8345 49.5311,0 0,1.8345 1.8345,0 0,3.669 3.6689,0 0,1.8344 11.0069,0 0,-1.8344 1.8345,0 0,-1.8345 1.8345,0 0,-1.8345 1.8345,0 0,-1.8345 12.8413,0 1.8345,0 0,-5.5034 1.8345,0 0,-9.1725 -5.5034,0 0,-1.8344 -5.5035,0 0,-3.669 -1.8345,0 0,-3.669 -42.1931,0 0,-3.6689 -1.8345,0 0,-1.8345 -1.8344,0 0,-1.8345 -1.8345,0 0,-3.669 -1.8345,0 0,-1.8345 -1.8345,0 0,-95.3931 3.669,0 1.8345,0 0,-1.8344 1.8344,0 1.8345,0 0,-38.5242 11.0069,0 0,5.5035 1.8345,0 0,1.8345 1.8345,0 0,9.1724 -1.8345,0 0,1.8345 -1.8345,0 0,5.5034 1.8345,0 0,1.8345 1.8345,0 0,1.8345 1.8345,0 0,1.8344 1.8345,0 0,1.8345 3.6689,0 0,42.1931 1.8345,0 0,5.5035 56.869,0 0,-1.8345 1.8345,0 0,-3.669 1.8344,0 0,-5.5034 -1.8344,0 0,-23.8483 1.8344,0 0,-1.8345 1.8345,0 1.8345,0 0,-1.8345 1.8345,0 1.8345,0 0,-1.8344 1.8344,0 0,-12.8414 -1.8344,0 0,-1.8345 -1.8345,0 0,-1.8345 -1.8345,0 0,-9.1724 1.8345,0 1.8345,0 0,-1.8345 1.8344,0 0,-5.5034 1.8345,0 0,-3.669 16.5104,0 0,71.5448 -1.8345,0 0,12.8414 -1.8345,0 0,1.8345 -1.8345,0 -14.6758,0 0,1.8345 -1.8345,0 0,1.8345 -1.8345,0 0,1.8344 -1.8345,0 0,11.0069 -1.8345,0 -1.8344,0 0,1.8345 -1.8345,0 -1.8345,0 0,1.8345 1.8345,0 0,1.8345 1.8345,0 0,1.8345 1.8344,0 0,1.8345 3.669,0 0,1.8344 5.5034,0 0,14.6759 -1.8344,0 0,3.669 -1.8345,0 -1.8345,0 0,14.6758 -1.8345,0 0,18.3449 1.8345,0 0,3.6689 1.8345,0 0,1.8345 53.2,0 0,-7.3379 1.8345,0 0,-9.1724 1.8344,0 0,-9.1725 1.8345,0 0,-9.1724 1.8345,0 0,-1.8345 -1.8345,0 0,-3.6689 -11.0069,0 0,-14.6759 1.8345,0 0,-14.6758 -1.8345,0 0,-1.8345 -1.8344,0 0,-1.8345 -5.5035,0 0,7.3379 -1.8345,0 0,7.338 -9.1724,0 0,-44.0276 1.8345,0 0,-29.3518 5.5034,0 1.8345,0 0,-1.8344 1.8345,0 0,-1.8345 11.0069,0 0,5.5034 1.8345,0 0,1.8345 3.6689,0 0,1.8345 3.669,0 0,12.8414 1.8345,0 0,5.5034 3.669,0 0,1.8345 5.5034,0 0,3.669 1.8345,0 0,3.6689 18.3448,0 0,-1.8344 1.8345,0 0,-3.669 1.8345,0 0,-9.1724 1.8345,0 0,-3.669 16.5103,0 1.8345,0 0,-1.8345 12.8414,0 1.8345,0 0,-1.8345 -3.669,0 0,-22.0138 1.8345,0 0,-11.0068 5.5034,0 1.8345,0 0,-1.8345 1.8345,0 0,-1.8345 1.8345,0 0,-3.669 1.8345,0 0,-1.8345 9.1724,0 0,56.869 -1.8345,0 -1.8345,0 0,1.8345 -1.8345,0 -3.6689,0 0,5.5034 1.8344,0 0,1.8345 1.8345,0 0,1.8345 3.669,0 0,3.669 1.8345,0 0,56.8689 -1.8345,0 -12.8414,0 0,-14.6758 -1.8345,0 0,-16.5104 -20.1793,0 0,-1.8345 -18.3448,0 0,1.8345 -1.8345,0 -1.8345,0 0,60.538 -1.8345,0 -1.8344,0 0,1.8344 -1.8345,0 -3.669,0 0,1.8345 7.3379,0 0,1.8345 132.0828,0 0,-1.8345 1.8345,0 0,-5.5034 -5.5035,0 0,-29.3518 1.8345,0 0,-11.0068 -12.8414,0 0,-1.8345 -9.1724,0 0,1.8345 -1.8345,0 0,1.8344 -1.8344,0 -14.6759,0 0,3.669 -1.8345,0 0,1.8345 -18.3448,0 0,-20.1793 7.3379,0 1.8345,0 0,-7.338 1.8345,0 0,-7.3379 1.8345,0 0,-1.8345 1.8344,0 1.8345,0 0,-1.8345 1.8345,0 0,-55.0344 22.0138,0 0,1.8344 14.6759,0 0,12.8414 1.8344,0 0,1.8345 1.8345,0 0,7.3379 3.669,0 0,1.8345 5.5034,0 0,1.8345 1.8345,0 0,-1.8345 3.669,0 1.8345,0 0,-1.8345 1.8345,0 0,-1.8344 1.8344,0 0,-3.669 1.8345,0 0,-1.8345 1.8345,0 0,-14.6759 11.0069,0 1.8345,0 0,-7.3379 1.8345,0 0,-7.3379 1.8345,0 1.8344,0 0,-1.8345 3.669,0 1.8345,0 0,-1.8345 9.1724,0 0,9.1724 1.8345,0 0,3.669 1.8345,0 0,1.8345 1.8344,0 0,56.8689 -1.8344,0 -5.5035,0 0,1.8345 -1.8345,0 0,3.669 -1.8345,0 0,1.8345 -1.8344,0 0,5.5034 1.8344,0 0,1.8345 1.8345,0 0,9.1724 -1.8345,0 -5.5034,0 0,5.5035 -1.8345,0 0,5.5034 -1.8345,0 0,1.8345 -1.8344,0 -3.669,0 0,38.5241 1.8345,0 0,3.669 5.5034,0 0,-1.8345 25.6828,0 1.8345,0 0,-5.5034 1.8344,0 0,-11.0069 1.8345,0 0,-12.8414 1.8345,0 0,-9.1724 -7.3379,0 0,-51.3655 1.8345,0 0,-40.3587 9.1724,0 0,1.8345 1.8345,0 0,1.8345 3.6689,0 0,1.8345 7.338,0 0,-1.8345 3.6689,0 1.8345,0 0,-1.8345 11.0069,0 0,51.3655 1.8345,0 0,1.8345 9.1724,0 0,-1.8345 16.5103,0 1.8345,0 0,-1.8344 5.5035,0 1.8345,0 0,-1.8345 1.8344,0 0,-1.8345 1.8345,0 0,-1.8345 1.8345,0 0,-1.8345 3.669,0 1.8344,0 0,-1.8345 9.1725,0 1.8344,0 0,-1.8344 1.8345,0 1.8345,0 0,-42.1931 3.669,0 1.8345,0 0,-1.8345 1.8344,0 0,-1.8345 1.8345,0 0,-3.669 -1.8345,0 0,-9.1724 -7.3379,0 0,-18.3448 1.8345,0 1.8345,0 0,-1.8345 5.5034,0 1.8345,0 0,-1.8345 11.0069,0 0,36.6897 1.8345,0 0,1.8345 1.8345,0 0,89.8896 -1.8345,0 0,9.1724 -1.8345,0 -16.5103,0 0,5.5035 -22.0138,0 0,-3.669 -1.8345,0 0,-1.8345 -5.5035,0 0,1.8345 -1.8344,0 0,3.669 -1.8345,0 0,1.8345 -16.5104,0 0,-1.8345 -1.8345,0 0,-1.8345 -1.8344,0 0,-1.8345 -7.338,0 0,1.8345 -1.8345,0 -1.8344,0 0,3.669 3.6689,0 0,1.8344 1.8345,0 0,1.8345 1.8345,0 0,1.8345 3.669,0 0,14.6759 -1.8345,0 -20.1793,0 0,1.8345 1.8344,0 0,5.5034 11.0069,0 0,7.3379 1.8345,0 0,77.0483 1.8345,0 0,144.9241 1.8345,0 0,18.3449 1.8345,0 0,23.8483 -1.8345,0 0,1.8344 -1.8345,0 0,3.669 1.8345,0 0,1.8345 5.5034,0 0,1.8345 1.8345,0 0,20.1793 -1.8345,0 0,1.8345 -1.8344,0 0,7.3379 1.8344,0 0,12.8414 1.8345,0 0,7.3379 1.8345,0 0,62.3724 -1.8345,0 -16.5103,0 0,1.8345 -27.5173,0 0,-5.5035 -1.8344,0 0,-7.3379 -12.8414,0 0,-1.8345 -1.8345,0 0,-3.6689 -14.6759,0 0,-14.6759 -3.6689,0 0,-1.8345 -42.1931,0 0,16.5104 -1.8345,0 0,3.6689 -34.8552,0 0,-1.8344 -3.669,0 0,-12.8414 -1.8344,0 0,-20.1793 1.8344,0 0,-1.8345 1.8345,0 0,-7.338 1.8345,0 1.8345,0 0,-1.8344 1.8345,0 1.8345,0 0,-1.8345 1.8344,0 0,-12.8414 1.8345,0 0,-5.5034 -3.6689,0 0,-1.8345 -1.8345,0 0,-1.8345 -3.669,0 0,-1.8345 -34.8552,0 0,3.669 -1.8344,0 0,5.5034 -1.8345,0 0,16.5104 -1.8345,0 0,14.6758 1.8345,0 0,1.8345 1.8345,0 0,1.8345 1.8344,0 0,1.8345 3.669,0 0,12.8414 -1.8345,0 0,1.8344 -1.8345,0 0,1.8345 -1.8344,0 0,7.338 1.8344,0 0,1.8344 3.669,0 0,1.8345 1.8345,0 0,11.0069 -1.8345,0 0,1.8345 -1.8345,0 0,33.0207 1.8345,0 0,1.8345 1.8345,0 0,1.8345 1.8345,0 0,1.8344 1.8344,0 0,1.8345 5.5035,0 0,1.8345 3.669,0 0,-1.8345 1.8344,0 0,-1.8345 1.8345,0 0,-1.8344 14.6759,0 0,1.8344 3.669,0 0,-1.8344 1.8344,0 1.8345,0 0,-1.8345 1.8345,0 0,-22.0138 -1.8345,0 0,-5.5035 -1.8345,0 0,-1.8345 -1.8344,0 0,-3.6689 -1.8345,0 0,-1.8345 -1.8345,0 0,-9.1724 38.5241,0 0,9.1724 -1.8345,0 0,1.8345 -1.8344,0 -1.8345,0 0,1.8345 -1.8345,0 -1.8345,0 0,12.8413 1.8345,0 0,1.8345 3.669,0 0,1.8345 1.8344,0 0,1.8345 1.8345,0 0,5.5034 5.5035,0 0,20.1793 1.8345,0 0,1.8345 29.3517,0 0,-1.8345 1.8345,0 0,-18.3448 11.0069,0 1.8344,0 0,-1.8345 9.1725,0 0,12.8414 1.8344,0 0,119.2414 -1.8344,0 0,23.8483 -1.8345,0 0,3.6689 -11.0069,0 0,-11.0069 1.8345,0 0,-1.8344 1.8344,0 0,-1.8345 -1.8344,0 0,-11.0069 -5.5035,0 0,-1.8345 -3.669,0 0,-1.8345 -5.5034,0 0,-18.3448 -1.8345,0 0,-31.1862 1.8345,0 0,-7.338 -1.8345,0 0,-1.8344 -1.8345,0 0,-20.1793 -1.8344,0 0,-9.1725 -33.0207,0 0,1.8345 -1.8345,0 -22.0138,0 0,1.8345 -1.8345,0 -3.669,0 0,29.3517 -1.8344,0 -3.669,0 0,11.0069 1.8345,0 0,1.8345 3.6689,0 0,1.8345 1.8345,0 0,1.8345 1.8345,0 0,29.3517 -1.8345,0 -5.5034,0 0,1.8345 -1.8345,0 0,1.8345 -1.8345,0 0,12.8413 1.8345,0 0,12.8414 -1.8345,0 -3.669,0 0,11.0069 -1.8344,0 0,3.669 -11.0069,0 0,-20.1793 -5.5035,0 0,-1.8345 -7.3379,0 0,1.8345 -1.8345,0 0,5.5034 -1.8345,0 0,3.669 -1.8345,0 0,1.8345 -1.8344,0 0,1.8345 -1.8345,0 -1.8345,0 0,1.8344 -11.0069,0 0,-31.1862 5.5034,0 1.8345,0 0,-1.8345 11.0069,0 1.8345,0 0,-1.8344 3.669,0 1.8344,0 0,-47.6966 -1.8344,0 0,-12.8414 -58.7035,0 0,-29.3517 1.8345,0 0,-18.3448 12.8414,0 1.8345,0 0,-20.1793 1.8344,0 0,-3.669 1.8345,0 0,-3.669 1.8345,0 0,-5.5034 1.8345,0 0,-7.3379 -1.8345,0 0,-14.6759 -5.5034,0 0,-44.0276 1.8344,0 0,-25.6827 -1.8344,0 0,-5.5035 -130.2483,0 0,1.8345 -1.8345,0 -1.8345,0 0,7.3379 -1.8345,0 0,45.8621 1.8345,0 0,1.8345 7.338,0 0,-1.8345 1.8344,0 0,-5.5035 1.8345,0 0,-1.8344 27.5173,0 1.8344,0 0,-5.5035 1.8345,0 0,-3.669 12.8414,0 1.8345,0 0,-3.6689 1.8345,0 0,-1.8345 1.8345,0 0,-1.8345 1.8344,0 0,-1.8345 47.6966,0 0,22.0138 -1.8345,0 0,1.8345 -18.3448,0 0,-1.8345 -1.8345,0 0,-3.6689 -1.8345,0 0,-1.8345 -11.0069,0 0,1.8345 -1.8345,0 0,1.8344 -1.8345,0 0,1.8345 -1.8344,0 -16.5104,0 0,1.8345 -1.8345,0 0,1.8345 -1.8344,0 0,31.1862 -1.8345,0 -5.5035,0 0,11.0069 11.0069,0 0,53.2 1.8345,0 0,1.8345 3.669,0 0,12.8414 1.8345,0 0,1.8344 1.8344,0 0,1.8345 11.0069,0 0,-1.8345 7.338,0 1.8344,0 0,-9.1724 1.8345,0 0,-3.6689 1.8345,0 0,-18.3449 1.8345,0 1.8345,0 0,-1.8345 1.8345,0 1.8344,0 0,-1.8344 1.8345,0 0,-1.8345 1.8345,0 0,-3.669 1.8345,0 0,-12.8414 -1.8345,0 0,-3.6689 -9.1724,0 0,-7.338 -1.8345,0 0,-16.5103 22.0138,0 0,100.8965 -1.8345,0 -11.0069,0 0,1.8345 -1.8345,0 0,11.0069 5.5035,0 0,-1.8345 11.0069,0 0,42.1931 -1.8345,0 -12.8414,0 0,-1.8344 -9.1724,0 0,-11.0069 -1.8345,0 0,-9.1724 -29.3517,0 0,51.3655 -1.8345,0 -45.862,0 0,-34.8552 1.8344,0 1.8345,0 0,-1.8345 1.8345,0 0,-7.3379 1.8345,0 0,-5.5035 -3.669,0 0,-1.8344 -3.6689,0 0,-25.6828 1.8344,0 0,-1.8345 1.8345,0 1.8345,0 0,-1.8345 1.8345,0 0,-12.8413 -3.669,0 0,-1.8345 -3.6689,0 0,-23.8483 1.8344,0 0,-16.5104 -1.8344,0 0,-18.3448 -1.8345,0 0,-1.8345 -3.669,0 0,-1.8344 -3.669,0 0,-1.8345 -5.5034,0 0,-1.8345 -11.0069,0 0,3.669 -1.8345,0 0,1.8344 -1.8345,0 -31.1862,0 0,38.5242 -1.8345,0 0,9.1724 -1.8344,0 -3.669,0 0,16.5103 1.8345,0 0,1.8345 1.8345,0 0,1.8345 1.8344,0 0,45.8621 -1.8344,0 0,1.8345 -1.8345,0 0,3.6689 -1.8345,0 0,9.1724 1.8345,0 0,1.8345 1.8345,0 0,1.8345 1.8344,0 0,16.5103 1.8345,0 0,1.8345 1.8345,0 0,1.8345 1.8345,0 0,9.1724 -18.3448,0 0,-1.8345 -7.338,0 0,-1.8344 -7.3379,0 0,-168.7725 1.8345,0 0,-3.6689 3.6689,0 1.8345,0 0,-1.8345 1.8345,0 0,-11.0069 1.8345,0 1.8345,0 0,-1.8345 3.6689,0 1.8345,0 0,-11.0069 7.338,0 1.8344,0 0,-1.8345 3.669,0 1.8345,0 0,-20.1793 1.8345,0 0,-1.8345 1.8345,0 0,-12.8413 1.8344,0 0,-3.669 1.8345,0 1.8345,0 0,-1.8345 1.8345,0 0,-5.5034 1.8345,0 0,-18.3449 1.8344,0 1.8345,0 0,-1.8344 1.8345,0 0,-5.5035 -3.669,0 0,-1.8345 -97.2275,0 0,3.669 -1.8345,0 0,3.669 -1.8345,0 0,5.5034 -1.8345,0 0,3.669 -1.8345,0 0,5.5034 -1.8345,0 0,5.5035 -1.8344,0 0,7.3379 -1.8345,0 0,1.8345 -1.8345,0 -1.8345,0 0,3.6689 5.5035,0 0,-3.6689 1.8344,0 0,-1.8345 1.8345,0 0,-3.669 1.8345,0 0,-3.6689 1.8345,0 0,-1.8345 14.6759,0 0,1.8345 9.1724,0 0,1.8344 1.8345,0 0,5.5035 1.8344,0 0,5.5034 1.8345,0 0,18.3449 -1.8345,0 -12.8413,0 0,25.6827 -1.8345,0 0,1.8345 -1.8345,0 -1.8345,0 0,1.8345 -1.8345,0 -1.8345,0 0,1.8345 1.8345,0 0,5.5034 1.8345,0 0,7.338 1.8345,0 0,5.5034 1.8345,0 0,5.5035 1.8345,0 0,25.6827 -1.8345,0 -1.8345,0 0,16.5104 1.8345,0 0,1.8344 1.8345,0 0,22.0138 5.5034,0 0,1.8345 7.3379,0 0,11.0069 1.8345,0 0,1.8345 3.669,0 0,1.8345 3.669,0 0,1.8345 3.6689,0 0,1.8344 1.8345,0 0,3.669 1.8345,0 0,16.5104 1.8345,0 0,1.8344 1.8344,0 0,38.5242 -1.8344,0 0,7.3379 -1.8345,0 -3.669,0 0,1.8345 -1.8345,0 -3.6689,0 0,12.8414 -11.0069,0 0,-22.0138 -3.669,0 0,-11.0069 1.8345,0 0,-3.669 1.8345,0 0,-1.8345 -1.8345,0 0,-11.0069 -3.669,0 0,-1.8344 -1.8345,0 0,-1.8345 -3.6689,0 0,-1.8345 -1.8345,0 0,-3.669 -1.8345,0 0,-1.8345 -27.5172,0 0,1.8345 -1.8345,0 0,55.0345 -1.8345,0 -23.8483,0 0,-1.8345 -9.1724,0 0,1.8345 -1.8345,0 0,1.8345 -9.1724,0 0,-18.3448 -1.8345,0 0,-1.8345 -16.5103,0 0,-9.1724 -9.1724,0 0,-1.8345 -1.8345,0 0,-3.669 -1.8345,0 0,-3.669 -1.8345,0 0,-3.6689 -1.8345,0 0,-1.8345 -11.0069,0 0,1.8345 -1.8344,0 -3.669,0 0,12.8414 -45.8621,0 0,-5.5035 -1.8345,0 0,-7.3379 -14.6758,0 0,1.8345 -1.8345,0 -1.8345,0 0,12.8413 -14.6758,0 0,-36.6896 1.8344,0 0,-18.3448 20.1794,0 1.8344,0 0,-3.669 1.8345,0 0,-3.669 29.3517,0 0,1.8345 7.338,0 0,-1.8345 9.1724,0 0,1.8345 1.8345,0 0,3.669 1.8345,0 0,3.6689 14.6758,0 0,-1.8344 1.8345,0 0,-5.5035 1.8345,0 0,-1.8345 20.1793,0 1.8345,0 0,-7.3379 1.8345,0 0,-7.3379 9.1724,0 0,1.8345 1.8345,0 0,1.8344 1.8344,0 0,1.8345 12.8414,0 0,-1.8345 1.8345,0 0,-1.8344 1.8345,0 0,-9.1725 3.6689,0 1.8345,0 0,-1.8344 1.8345,0 1.8345,0 0,-7.338 1.8345,0 0,-11.0069 1.8345,0 0,-5.5034 1.8344,0 1.8345,0 0,-1.8345 1.8345,0 0,-14.6759 -5.5034,0 0,-34.8551 -5.5035,0 0,-14.6759 1.8345,0 0,-1.8345 1.8345,0 0,-1.8345 1.8345,0 0,-11.0069 -1.8345,0 0,-1.8344 -3.669,0 0,-27.5173 -23.8483,0 0,-16.5103 5.5035,0 1.8345,0 0,-1.8345 1.8344,0 0,-1.8345 9.1725,0 0,1.8345 1.8344,0 0,1.8345 7.338,0 0,-1.8345 1.8345,0 0,-1.8345 1.8344,0 0,-1.8345 1.8345,0 0,-1.8345 1.8345,0 0,-1.8344 1.8345,0 0,-5.5035 -20.1793,0 0,-3.669 -1.8345,0 0,-1.8344 -14.6759,0 0,3.6689 -1.8344,0 0,1.8345 -1.8345,0 -12.8414,0 0,3.669 -1.8345,0 0,5.5034 -1.8345,0 0,22.0138 -1.8345,0 0,25.6828 -1.8344,0 0,5.5034 -1.8345,0 -3.669,0 0,7.338 -1.8345,0 -9.1724,0 0,3.6689 1.8345,0 0,11.0069 3.669,0 0,1.8345 3.6689,0 0,1.8345 1.8345,0 0,3.6689 1.8345,0 0,1.8345 5.5034,0 0,11.0069 -1.8344,0 0,1.8345 -1.8345,0 0,12.8414 -1.8345,0 0,5.5034 3.669,0 0,-1.8344 14.6758,0 0,14.6758 -1.8345,0 0,3.669 1.8345,0 0,11.0069 -66.0414,0 0,-144.9242 22.0138,0 1.8345,0 0,-1.8344 1.8345,0 0,-11.0069 -1.8345,0 0,-7.338 -1.8345,0 0,-1.8345 -22.0138,0 0,-9.1724 1.8345,0 0,-1.8345 1.8345,0 0,-1.8344 1.8345,0 0,-12.8414 -1.8345,0 0,-1.8345 -3.669,0 0,-1.8345 -1.8344,0 0,-14.6758 -3.669,0 0,-1.8345 -1.8345,0 0,-1.8345 -3.669,0 0,-5.5035 -1.8344,0 0,-25.6827 -1.8345,0 0,-1.8345 -12.8414,0 0,1.8345 -1.8345,0 -16.5103,0 0,11.0069 -1.8345,0 0,12.8414 1.8345,0 0,31.1862 1.8345,0 0,3.6689 12.8413,0 0,1.8345 18.3449,0 0,1.8345 1.8344,0 0,3.669 1.8345,0 0,12.8413 -60.5379,0 0,-62.3724 -1.8345,0 0,-58.7034 -9.1724,0 0,423.7655 796.1655,0 1.8345,0 L 799,1 1,1 Z"
     id="ext_obstacle" />
  <path
     inkscape:connector-curvature="0"
     d="m 663.2483,505.4827 0,3.669 -1.8345,0 0,1.8345 -1.8345,0 0,1.8345 -1.8345,0 0,29.3517 1.8345,0 0,1.8345 1.8345,0 0,1.8344 1.8345,0 0,1.8345 3.6689,0 0,-1.8345 3.669,0 1.8345,0 0,-12.8413 1.8345,0 0,-20.1793 1.8345,0 0,-3.669 -1.8345,0 0,-1.8345 -1.8345,0 0,-1.8345 -9.1724,0 z"
     id="pillar" />
  <path
     style="fill:#f1c232;fill-rule:evenodd;stroke:none;stroke-linecap:square;stroke-miterlimit:10"
     inkscape:connector-curvature="0"
     id="movable_box"
     d="m 172.81256,232.508 20.37489,0 0,-20.354 -20.37489,0 z" />
  <path
     inkscape:label="#path19-3"
     id="goal_01"
     d="m 209.5483,166.331 0,0 c 0,4.6704 3.78611,8.4565 8.45651,8.4565 l 0,0 c 2.24282,0 4.39375,-0.89094 5.97966,-2.47684 1.58591,-1.58591 2.47686,-3.73686 2.47686,-5.97966 l 0,0 c 0,-4.6704 -3.78612,-8.4565 -8.45652,-8.4565 l 0,0 c -4.6704,0 -8.45651,3.7861 -8.45651,8.4565 z"
     style="fill:#ff0000;fill-rule:evenodd;stroke:none;stroke-linecap:square;stroke-miterlimit:10"
     inkscape:connector-curvature="0" />
  <path
     inkscape:label="#path4217"
     sodipodi:nodetypes="cc"
     inkscape:connector-curvature="0"
     id="goal_01_dir"
     d="m 218.6541,166.14978 9.7976,0"
     style="fill:none;stroke:#0000ff;stroke-width:1.09148252px;stroke-linecap:butt;stroke-linejoin:miter;stroke-miterlimit:10;stroke-opacity:1" />
  <path
     sodipodi:type="star"
     style="fill:#00ff00;fill-opacity:1;stroke:none;stroke-linecap:square;stroke-miterlimit:10;stroke-opacity:1"
     id="robot_01"
     sodipodi:sides="16"
     sodipodi:cx="56.9375"
     sodipodi:cy="321.4375"
     sodipodi:r1="8.6191101"
     sodipodi:r2="8.453496"
     sodipodi:arg1="-0.10272987"
     sodipodi:arg2="0.093619673"
     inkscape:flatsided="true"
     inkscape:rounded="0"
     inkscape:randomized="0"
     d="m 65.51117,320.55362 -0.314385,3.34828 -1.571785,2.9731 -2.589897,2.14529 -3.21372,0.99088 -3.348282,-0.31438 L 51.5,328.125 49.35471,325.5351 48.36383,322.32138 48.678215,318.9731 50.25,316 l 2.589897,-2.14529 3.21372,-0.99088 3.348282,0.31438 2.973101,1.57179 2.14529,2.5899 z"
     inkscape:label="#path4172" />
  <path
     inkscape:label="#path4217"
     sodipodi:nodetypes="cc"
     inkscape:connector-curvature="0"
     id="robot_01_dir"
     d="m 57.125,321.2113 0,-9.7976"
     style="fill:none;stroke:#0000ff;stroke-width:1.09148252px;stroke-linecap:butt;stroke-linejoin:miter;stroke-miterlimit:10;stroke-opacity:1" />
  <path
     style="fill:#f1c232;fill-rule:evenodd;stroke:none;stroke-linecap:square;stroke-miterlimit:10"
     inkscape:connector-curvature="0"
     id="movable_box_02"
     d="m 472.05938,492.22159 20.37489,0 0,-20.354 -20.37489,0 z"
     inkscape:label="#movable_box-3" />
  <path
     inkscape:label="#path19-3"
     id="goal_02"
     d="m 513.71987,659.19239 0,0 c 0,4.6704 3.78611,8.4565 8.45651,8.4565 l 0,0 c 2.24282,0 4.39375,-0.89094 5.97966,-2.47684 1.58591,-1.58591 2.47686,-3.73686 2.47686,-5.97966 l 0,0 c 0,-4.6704 -3.78612,-8.4565 -8.45652,-8.4565 l 0,0 c -4.6704,0 -8.45651,3.7861 -8.45651,8.4565 z"
     style="fill:#ff0000;fill-rule:evenodd;stroke:none;stroke-linecap:square;stroke-miterlimit:10"
     inkscape:connector-curvature="0" />
  <path
     inkscape:label="#path4217"
     sodipodi:nodetypes="cc"
     inkscape:connector-curvature="0"
     id="goal_02_dir"
     d="m 522.82567,659.01117 9.7976,0"
     style="fill:none;stroke:#0000ff;stroke-width:1.09148252px;stroke-linecap:butt;stroke-linejoin:miter;stroke-miterlimit:10;stroke-opacity:1" />
</svg>
