<?xml version="1.0" encoding="UTF-8" standalone="no"?>
<svg
   xmlns:dc="http://purl.org/dc/elements/1.1/"
   xmlns:cc="http://creativecommons.org/ns#"
   xmlns:rdf="http://www.w3.org/1999/02/22-rdf-syntax-ns#"
   xmlns:svg="http://www.w3.org/2000/svg"
   xmlns="http://www.w3.org/2000/svg"
   xmlns:sodipodi="http://sodipodi.sourceforge.net/DTD/sodipodi-0.dtd"
   xmlns:inkscape="http://www.inkscape.org/namespaces/inkscape"
   version="1.1"
   viewBox="0 0 336.48285 334.25473"
   stroke-miterlimit="10"
   id="svg2"
   inkscape:version="0.91 r13725"
   sodipodi:docname="04_after_the_feast.svg"
   width="336.48285"
   height="334.25473"
   style="fill:none;stroke:none;stroke-linecap:square;stroke-miterlimit:10">
  <metadata
     id="metadata99">
    <rdf:RDF>
      <cc:Work
         rdf:about="">
        <dc:format>image/svg+xml</dc:format>
        <dc:type
           rdf:resource="http://purl.org/dc/dcmitype/StillImage" />
        <dc:title />
      </cc:Work>
    </rdf:RDF>
  </metadata>
  <defs
     id="defs97" />
  <sodipodi:namedview
     pagecolor="#ffffff"
     bordercolor="#666666"
     borderopacity="1"
     objecttolerance="10"
     gridtolerance="10"
     guidetolerance="10"
     inkscape:pageopacity="0"
     inkscape:pageshadow="2"
     inkscape:window-width="640"
     inkscape:window-height="480"
     id="namedview95"
     showgrid="false"
     inkscape:zoom="22.627418"
     inkscape:cx="26.184257"
     inkscape:cy="225.05868"
     inkscape:current-layer="svg2"
     fit-margin-top="0"
     fit-margin-left="0"
     fit-margin-right="0"
     fit-margin-bottom="0" />
  <path
     inkscape:label="#path39"
     style="fill:#000000;fill-rule:evenodd"
     inkscape:connector-curvature="0"
     id="table_01"
     d="m 66.799582,69.975113 0,0 c 0,-2.446398 1.983204,-4.429593 4.429593,-4.429593 l 17.717841,0 0,0 c 1.174797,0 2.301467,0.466695 3.132185,1.297404 0.8307,0.8307 1.297386,1.957383 1.297386,3.132189 l 0,17.717823 c 0,2.446407 -1.983177,4.429593 -4.429571,4.429593 l -17.717841,0 c -2.446389,0 -4.429593,-1.983186 -4.429593,-4.429593 z" />
  <path
     inkscape:label="#path21"
     style="fill:#000000;fill-rule:evenodd"
     inkscape:connector-curvature="0"
     id="table_02"
     d="m 125.55965,69.975113 0,0 c 0,-2.446398 1.9832,-4.429593 4.42958,-4.429593 l 17.71782,0 0,0 c 1.17482,0 2.3015,0.466695 3.13221,1.297404 0.8307,0.8307 1.29739,1.957383 1.29739,3.132189 l 0,17.717823 c 0,2.446407 -1.98319,4.429593 -4.4296,4.429593 l -17.71782,0 c -2.44638,0 -4.42958,-1.983186 -4.42958,-4.429593 z" />
  <path
     inkscape:label="#path23"
     style="fill:#000000;fill-rule:evenodd"
     inkscape:connector-curvature="0"
     id="table_03"
     d="m 184.3197,69.975113 0,0 c 0,-2.446398 1.98318,-4.429593 4.42957,-4.429593 l 17.71786,0 0,0 c 1.17478,0 2.30147,0.466695 3.13216,1.297404 0.8307,0.8307 1.29739,1.957383 1.29739,3.132189 l 0,17.717823 c 0,2.446407 -1.98318,4.429593 -4.42955,4.429593 l -17.71786,0 c -2.44639,0 -4.42957,-1.983186 -4.42957,-4.429593 z" />
  <path
     inkscape:label="#path29"
     style="fill:#000000;fill-rule:evenodd"
     inkscape:connector-curvature="0"
     id="table_04"
     d="m 243.07976,69.975113 0,0 c 0,-2.446398 1.98319,-4.429593 4.4296,-4.429593 l 17.7178,0 0,0 c 1.17481,0 2.3015,0.466695 3.1322,1.297404 0.8307,0.8307 1.29739,1.957383 1.29739,3.132189 l 0,17.717823 c 0,2.446407 -1.98319,4.429593 -4.42959,4.429593 l -17.7178,0 c -2.44641,0 -4.4296,-1.983186 -4.4296,-4.429593 z" />
  <path
     inkscape:label="#path41"
     style="fill:#000000;fill-rule:evenodd"
     inkscape:connector-curvature="0"
     id="table_05"
     d="m 88.956839,124.30547 0,0 c 2.446394,0 4.429598,1.98319 4.429598,4.42958 l 0,17.71782 0,0 c 0,1.17481 -0.466686,2.3015 -1.297386,3.1322 -0.830718,0.8307 -1.957397,1.29739 -3.132212,1.29739 l -17.717814,0 c -2.446398,0 -4.429593,-1.98319 -4.429593,-4.42959 l 0,-17.71782 c 0,-2.44639 1.983195,-4.42958 4.429593,-4.42958 z" />
  <path
     inkscape:label="#path25"
     style="fill:#000000;fill-rule:evenodd"
     inkscape:connector-curvature="0"
     id="table_06"
     d="m 147.7169,124.30547 0,0 c 2.44639,0 4.42959,1.98319 4.42959,4.42958 l 0,17.71782 0,0 c 0,1.17481 -0.46669,2.3015 -1.29739,3.1322 -0.83071,0.8307 -1.95741,1.29739 -3.1322,1.29739 l -17.71783,0 c -2.44638,0 -4.42958,-1.98319 -4.42958,-4.42959 l 0,-17.71782 c 0,-2.44639 1.9832,-4.42958 4.42958,-4.42958 z" />
  <path
     inkscape:label="#path27"
     style="fill:#000000;fill-rule:evenodd"
     inkscape:connector-curvature="0"
     id="table_07"
     d="m 206.47696,124.30547 0,0 c 2.44638,0 4.42959,1.98319 4.42959,4.42958 l 0,17.71782 0,0 c 0,1.17481 -0.46669,2.3015 -1.29739,3.1322 -0.83073,0.8307 -1.95739,1.29739 -3.1322,1.29739 l -17.71784,0 c -2.44639,0 -4.42957,-1.98319 -4.42957,-4.42959 l 0,-17.71782 c 0,-2.44639 1.98318,-4.42958 4.42957,-4.42958 z" />
  <path
     inkscape:label="#path31"
     style="fill:#000000;fill-rule:evenodd"
     inkscape:connector-curvature="0"
     id="table_08"
     d="m 265.23702,124.30547 0,0 c 2.44638,0 4.4296,1.98319 4.4296,4.42958 l 0,17.71782 0,0 c 0,1.17481 -0.46669,2.3015 -1.29742,3.1322 -0.83071,0.8307 -1.9574,1.29739 -3.13218,1.29739 l -17.71783,0 c -2.44639,0 -4.4296,-1.98319 -4.4296,-4.42959 l 0,-17.71782 c 0,-2.44639 1.98321,-4.42958 4.4296,-4.42958 z" />
  <path
     inkscape:label="#path43"
     style="fill:#000000;fill-rule:evenodd"
     inkscape:connector-curvature="0"
     id="table_09"
     d="m 88.956839,183.0654 0,0 c 2.446394,0 4.429598,1.9832 4.429598,4.42959 l 0,17.71782 0,0 c 0,1.17481 -0.466686,2.3015 -1.297386,3.1322 -0.830718,0.8307 -1.957397,1.29739 -3.132212,1.29739 l -17.717814,0 c -2.446398,0 -4.429593,-1.98319 -4.429593,-4.42959 l 0,-17.71782 c 0,-2.44639 1.983195,-4.42959 4.429593,-4.42959 z" />
  <path
     inkscape:label="#path33"
     style="fill:#000000;fill-rule:evenodd"
     inkscape:connector-curvature="0"
     id="table_10"
     d="m 147.7169,183.0654 0,0 c 2.44639,0 4.42959,1.9832 4.42959,4.42959 l 0,17.71782 0,0 c 0,1.17481 -0.46669,2.3015 -1.29739,3.1322 -0.83071,0.8307 -1.95741,1.29739 -3.1322,1.29739 l -17.71783,0 c -2.44638,0 -4.42958,-1.98319 -4.42958,-4.42959 l 0,-17.71782 c 0,-2.44639 1.9832,-4.42959 4.42958,-4.42959 z" />
  <path
     inkscape:label="#path35"
     style="fill:#000000;fill-rule:evenodd"
     inkscape:connector-curvature="0"
     id="table_11"
     d="m 206.47696,183.0654 0,0 c 2.44638,0 4.42959,1.9832 4.42959,4.42959 l 0,17.71782 0,0 c 0,1.17481 -0.46669,2.3015 -1.29739,3.1322 -0.83073,0.8307 -1.95739,1.29739 -3.1322,1.29739 l -17.71784,0 c -2.44639,0 -4.42957,-1.98319 -4.42957,-4.42959 l 0,-17.71782 c 0,-2.44639 1.98318,-4.42959 4.42957,-4.42959 z" />
  <path
     inkscape:label="#path37"
     style="fill:#000000;fill-rule:evenodd"
     inkscape:connector-curvature="0"
     id="table_12"
     d="m 265.23702,183.0654 0,0 c 2.44638,0 4.4296,1.9832 4.4296,4.42959 l 0,17.71782 0,0 c 0,1.17481 -0.46669,2.3015 -1.29742,3.1322 -0.83071,0.8307 -1.9574,1.29739 -3.13218,1.29739 l -17.71783,0 c -2.44639,0 -4.4296,-1.98319 -4.4296,-4.42959 l 0,-17.71782 c 0,-2.44639 1.98321,-4.42959 4.4296,-4.42959 z" />
  <path
     inkscape:label="#path51"
     style="fill:#000000;fill-rule:evenodd"
     inkscape:connector-curvature="0"
     id="table_13"
     d="m 88.956839,241.82534 0,0 c 2.446394,0 4.429598,1.98319 4.429598,4.42959 l 0,17.71783 0,0 c 0,1.1748 -0.466686,2.30148 -1.297386,3.13219 -0.830718,0.8307 -1.957397,1.29739 -3.132212,1.29739 l -17.717814,0 c -2.446398,0 -4.429593,-1.98318 -4.429593,-4.42958 l 0,-17.71783 c 0,-2.4464 1.983195,-4.42959 4.429593,-4.42959 z" />
  <path
     inkscape:label="#path45"
     style="fill:#000000;fill-rule:evenodd"
     inkscape:connector-curvature="0"
     id="table_14"
     d="m 147.7169,241.82534 0,0 c 2.44639,0 4.42959,1.98319 4.42959,4.42959 l 0,17.71783 0,0 c 0,1.1748 -0.46669,2.30148 -1.29739,3.13219 -0.83071,0.8307 -1.95741,1.29739 -3.1322,1.29739 l -17.71783,0 c -2.44638,0 -4.42958,-1.98318 -4.42958,-4.42958 l 0,-17.71783 c 0,-2.4464 1.9832,-4.42959 4.42958,-4.42959 z" />
  <path
     inkscape:label="#path47"
     style="fill:#000000;fill-rule:evenodd"
     inkscape:connector-curvature="0"
     id="table_15"
     d="m 206.47696,241.82534 0,0 c 2.44638,0 4.42959,1.98319 4.42959,4.42959 l 0,17.71783 0,0 c 0,1.1748 -0.46669,2.30148 -1.29739,3.13219 -0.83073,0.8307 -1.95739,1.29739 -3.1322,1.29739 l -17.71784,0 c -2.44639,0 -4.42957,-1.98318 -4.42957,-4.42958 l 0,-17.71783 c 0,-2.4464 1.98318,-4.42959 4.42957,-4.42959 z" />
  <path
     inkscape:label="#path49"
     style="fill:#000000;fill-rule:evenodd"
     inkscape:connector-curvature="0"
     id="table_16"
     d="m 265.23702,241.82534 0,0 c 2.44638,0 4.4296,1.98319 4.4296,4.42959 l 0,17.71783 0,0 c 0,1.1748 -0.46669,2.30148 -1.29742,3.13219 -0.83071,0.8307 -1.9574,1.29739 -3.13218,1.29739 l -17.71783,0 c -2.44639,0 -4.4296,-1.98318 -4.4296,-4.42958 l 0,-17.71783 c 0,-2.4464 1.98321,-4.42959 4.4296,-4.42959 z" />
  <path
     style="fill:#f1c232;fill-rule:evenodd"
     inkscape:connector-curvature="0"
     id="stool_01"
     d="m 20.812322,23.36149 20.37486,0 0,20.35402 -20.37486,0 z" />
  <path
     style="fill:#f1c232;fill-rule:evenodd"
     inkscape:connector-curvature="0"
     id="stool_02"
     d="m 69.900382,36.42425 20.37489,0 0,20.35401 -20.37489,0 z" />
  <path
     style="fill:#f1c232;fill-rule:evenodd"
     inkscape:connector-curvature="0"
     id="stool_03"
     d="m 158.05073,39.91477 20.37488,0 0,20.35401 -20.37488,0 z" />
  <path
     style="fill:#f1c232;fill-rule:evenodd"
     inkscape:connector-curvature="0"
     id="stool_04"
     d="m 271.13263,23.78727 20.37489,0 0,20.35401 -20.37489,0 z" />
  <path
     style="fill:#f1c232;fill-rule:evenodd"
     inkscape:connector-curvature="0"
     id="stool_05"
     d="m 216.80311,68.65579 20.37488,0 0,20.354 -20.37488,0 z" />
  <path
     style="fill:#f1c232;fill-rule:evenodd"
     inkscape:connector-curvature="0"
     id="stool_06"
     d="m 128.66306,98.03575 20.37488,0 0,20.35401 -20.37488,0 z" />
  <path
     style="fill:#f1c232;fill-rule:evenodd"
     inkscape:connector-curvature="0"
     id="stool_07"
     d="m 99.291377,127.41689 20.374893,0 0,20.35402 -20.374893,0 z" />
  <path
     style="fill:#f1c232;fill-rule:evenodd"
     inkscape:connector-curvature="0"
     id="stool_09"
     d="m 42.815572,156.79744 20.37487,0 0,20.35401 -20.37487,0 z" />
  <path
     style="fill:#f1c232;fill-rule:evenodd"
     inkscape:connector-curvature="0"
     id="stool_12"
     d="m 99.112487,215.55564 20.374883,0 0,20.354 -20.374883,0 z" />
  <path
     style="fill:#f1c232;fill-rule:evenodd"
     inkscape:connector-curvature="0"
     id="stool_14"
     d="m 300.3742,235.91082 20.37485,0 0,20.35401 -20.37485,0 z" />
  <path
     style="fill:#f1c232;fill-rule:evenodd"
     inkscape:connector-curvature="0"
     id="stool_15"
     d="m 49.525532,285.83484 20.37486,0 0,20.35402 -20.37486,0 z" />
  <path
     style="fill:#f1c232;fill-rule:evenodd"
     inkscape:connector-curvature="0"
     id="stool_17"
     d="m 271.13263,289.80763 20.37489,0 0,20.35402 -20.37489,0 z" />
  <path
     inkscape:label="#path87"
     style="fill:#000000;fill-rule:evenodd"
     inkscape:connector-curvature="0"
     id="pillar_top"
     d="m 153.47341,5.61205 29.53003,0 0,29.53001 -29.53003,0 z" />
  <path
     inkscape:label="#path89"
     style="fill:#000000;fill-rule:evenodd"
     inkscape:connector-curvature="0"
     id="pillar_right"
     d="m 301.24944,152.2072 29.53002,0 0,29.53002 -29.53002,0 z" />
  <path
     inkscape:label="#path91"
     style="fill:#000000;fill-rule:evenodd"
     inkscape:connector-curvature="0"
     id="pillar_bottom"
     d="m 153.46646,299.10825 29.53003,0 0,29.52999 -29.53003,0 z" />
  <path
     inkscape:label="#path93"
     style="fill:#000000;fill-rule:evenodd"
     inkscape:connector-curvature="0"
     id="pillar_left"
     d="m 5.8241422,152.20894 29.5300098,0 0,29.53002 -29.5300098,0 z" />
  <path
     inkscape:label="#path19-3"
     id="goal_01"
     d="m 300.79332,285.48263 0,0 c 0,-4.6704 3.78611,-8.4565 8.45651,-8.4565 l 0,0 c 2.24282,0 4.39375,0.89094 5.97966,2.47684 1.58591,1.58591 2.47686,3.73686 2.47686,5.97966 l 0,0 c 0,4.6704 -3.78612,8.4565 -8.45652,8.4565 l 0,0 c -4.6704,0 -8.45651,-3.7861 -8.45651,-8.4565 z"
     style="fill:#ff0000;fill-rule:evenodd"
     inkscape:connector-curvature="0" />
  <path
     inkscape:label="#path4217"
     sodipodi:nodetypes="cc"
     inkscape:connector-curvature="0"
     id="goal_01_dir"
     d="m 309.89912,285.66385 9.7976,0"
     style="fill:none;stroke:#0000ff;stroke-width:1.09148252px;stroke-linecap:butt;stroke-linejoin:miter;stroke-opacity:1" />
  <path
     inkscape:label="#path3336"
     sodipodi:nodetypes="ccccc"
     inkscape:connector-curvature="0"
     id="wall_ext_top"
     d="m 5.5932872,5.59067 0,-5.58746 325.2941928,0 0,5.58746 z"
     style="fill:#000000;fill-opacity:1;stroke:none;stroke-width:1px;stroke-linecap:butt;stroke-linejoin:miter;stroke-opacity:1" />
  <path
     inkscape:label="#path3336"
     sodipodi:nodetypes="ccccc"
     inkscape:connector-curvature="0"
     id="wall_ext_bottom"
     d="m 5.5932872,334.24295 0,-5.58746 325.2941928,0 0,5.58746 z"
     style="fill:#000000;fill-opacity:1;stroke:none;stroke-width:1px;stroke-linecap:butt;stroke-linejoin:miter;stroke-miterlimit:10;stroke-opacity:1" />
  <path
     inkscape:label="#path3336-6-5"
     sodipodi:nodetypes="ccccc"
     inkscape:connector-curvature="0"
     id="wall_ext_left"
     d="m 0,334.24627 5.5863282,0 L 5.5863282,0 0,0 Z"
     style="fill:#000000;fill-opacity:1;stroke:none;stroke-width:1px;stroke-linecap:butt;stroke-linejoin:miter;stroke-opacity:1" />
  <path
     inkscape:label="#path3336-6-5"
     sodipodi:nodetypes="ccccc"
     inkscape:connector-curvature="0"
     id="wall_ext_right"
     d="m 330.89651,334.25472 5.58633,0 0,-334.24627 -5.58633,0 z"
     style="fill:#000000;fill-opacity:1;stroke:none;stroke-width:1px;stroke-linecap:butt;stroke-linejoin:miter;stroke-miterlimit:10;stroke-opacity:1" />
  <path
     sodipodi:type="star"
     style="fill:#00ff00;fill-opacity:1;stroke:none;stroke-opacity:1"
     id="robot_01"
     sodipodi:sides="16"
     sodipodi:cx="27.400385"
     sodipodi:cy="98.655599"
     sodipodi:r1="8.6191101"
     sodipodi:r2="8.453496"
     sodipodi:arg1="-0.10272987"
     sodipodi:arg2="0.093619673"
     inkscape:flatsided="true"
     inkscape:rounded="0"
     inkscape:randomized="0"
     d="M 35.974054,97.771718 35.65967,101.12 l -1.571785,2.9731 -2.589897,2.14529 -3.21372,0.99088 -3.348283,-0.31438 -2.9731,-1.57179 -2.14529,-2.5899 -0.99088,-3.213715 0.314385,-3.348283 1.571785,-2.9731 2.589897,-2.145291 3.213719,-0.990879 3.348283,0.314384 2.973101,1.571786 2.14529,2.589896 z"
     inkscape:label="#path4172" />
  <path
     inkscape:label="#path4217"
     sodipodi:nodetypes="cc"
     inkscape:connector-curvature="0"
     id="robot_01_dir"
     d="m 27.356192,99.060098 0,9.797602"
     style="fill:none;stroke:#0000ff;stroke-width:1.09148252px;stroke-linecap:butt;stroke-linejoin:miter;stroke-miterlimit:10;stroke-opacity:1" />
</svg>
