<?xml version="1.0" encoding="UTF-8" standalone="no"?>
<svg
   xmlns:dc="http://purl.org/dc/elements/1.1/"
   xmlns:cc="http://creativecommons.org/ns#"
   xmlns:rdf="http://www.w3.org/1999/02/22-rdf-syntax-ns#"
   xmlns:svg="http://www.w3.org/2000/svg"
   xmlns="http://www.w3.org/2000/svg"
   xmlns:sodipodi="http://sodipodi.sourceforge.net/DTD/sodipodi-0.dtd"
   xmlns:inkscape="http://www.inkscape.org/namespaces/inkscape"
   version="1.1"
   viewBox="0 0 336.48285 334.25473"
   stroke-miterlimit="10"
   id="svg2"
   inkscape:version="0.91 r13725"
   sodipodi:docname="04_after_the_feast.svg"
   width="336.48285"
   height="334.25473"
   style="fill:none;stroke:none;stroke-linecap:square;stroke-miterlimit:10">
  <metadata
     id="metadata99">
    <rdf:RDF>
      <cc:Work
         rdf:about="">
        <dc:format>image/svg+xml</dc:format>
        <dc:type
           rdf:resource="http://purl.org/dc/dcmitype/StillImage" />
        <dc:title />
      </cc:Work>
    </rdf:RDF>
  </metadata>
  <defs
     id="defs97" />
  <sodipodi:namedview
     pagecolor="#ffffff"
     bordercolor="#666666"
     borderopacity="1"
     objecttolerance="10"
     gridtolerance="10"
     guidetolerance="10"
     inkscape:pageopacity="0"
     inkscape:pageshadow="2"
     inkscape:window-width="640"
     inkscape:window-height="480"
     id="namedview95"
     showgrid="false"
     inkscape:zoom="1.4142136"
     inkscape:cx="222.05962"
     inkscape:cy="178.5732"
     inkscape:current-layer="svg2"
     fit-margin-top="0"
     fit-margin-left="0"
     fit-margin-right="0"
     fit-margin-bottom="0" />
  <path
     inkscape:label="#path39"
     style="fill:#000000;fill-rule:evenodd"
     inkscape:connector-curvature="0"
     id="table_01"
     d="m 65.323082,68.99079 0,0 c 0,-2.71822 2.20356,-4.92177 4.92177,-4.92177 l 19.68649,0 0,0 c 1.30533,0 2.557185,0.51855 3.480205,1.44156 0.923,0.923 1.44154,2.17487 1.44154,3.48021 l 0,19.68647 c 0,2.71823 -2.20353,4.92177 -4.921745,4.92177 l -19.68649,0 c -2.71821,0 -4.92177,-2.20354 -4.92177,-4.92177 z" />
  <path
     inkscape:label="#path21"
     style="fill:#000000;fill-rule:evenodd"
     inkscape:connector-curvature="0"
     id="table_02"
     d="m 124.08315,68.99079 0,0 c 0,-2.71822 2.20355,-4.92177 4.92176,-4.92177 l 19.68646,0 0,0 c 1.30536,0 2.55722,0.51855 3.48024,1.44156 0.923,0.923 1.44154,2.17487 1.44154,3.48021 l 0,19.68647 c 0,2.71823 -2.20355,4.92177 -4.92178,4.92177 l -19.68646,0 c -2.71821,0 -4.92176,-2.20354 -4.92176,-4.92177 z" />
  <path
     inkscape:label="#path23"
     style="fill:#000000;fill-rule:evenodd"
     inkscape:connector-curvature="0"
     id="table_03"
     d="m 182.8432,68.99079 0,0 c 0,-2.71822 2.20354,-4.92177 4.92175,-4.92177 l 19.68651,0 0,0 c 1.30531,0 2.55719,0.51855 3.48018,1.44156 0.923,0.923 1.44154,2.17487 1.44154,3.48021 l 0,19.68647 c 0,2.71823 -2.20353,4.92177 -4.92172,4.92177 l -19.68651,0 c -2.71821,0 -4.92175,-2.20354 -4.92175,-4.92177 z" />
  <path
     inkscape:label="#path29"
     style="fill:#000000;fill-rule:evenodd"
     inkscape:connector-curvature="0"
     id="table_04"
     d="m 241.60326,68.99079 0,0 c 0,-2.71822 2.20354,-4.92177 4.92178,-4.92177 l 19.68644,0 0,0 c 1.30535,0 2.55723,0.51855 3.48023,1.44156 0.92299,0.923 1.44154,2.17487 1.44154,3.48021 l 0,19.68647 c 0,2.71823 -2.20354,4.92177 -4.92177,4.92177 l -19.68644,0 c -2.71824,0 -4.92178,-2.20354 -4.92178,-4.92177 z" />
  <path
     inkscape:label="#path41"
     style="fill:#000000;fill-rule:evenodd"
     inkscape:connector-curvature="0"
     id="table_05"
     d="m 89.941162,122.82897 0,0 c 2.718215,0 4.921775,2.20355 4.921775,4.92176 l 0,19.68646 0,0 c 0,1.30535 -0.51854,2.55722 -1.44154,3.48023 -0.92302,0.923 -2.174885,1.44154 -3.480235,1.44154 l -19.68646,0 c -2.71822,0 -4.92177,-2.20355 -4.92177,-4.92177 l 0,-19.68646 c 0,-2.71821 2.20355,-4.92176 4.92177,-4.92176 z" />
  <path
     inkscape:label="#path25"
     style="fill:#000000;fill-rule:evenodd"
     inkscape:connector-curvature="0"
     id="table_06"
     d="m 148.70122,122.82897 0,0 c 2.71822,0 4.92177,2.20355 4.92177,4.92176 l 0,19.68646 0,0 c 0,1.30535 -0.51854,2.55722 -1.44155,3.48023 -0.92301,0.923 -2.17489,1.44154 -3.48022,1.44154 l -19.68648,0 c -2.7182,0 -4.92175,-2.20355 -4.92175,-4.92177 l 0,-19.68646 c 0,-2.71821 2.20355,-4.92176 4.92175,-4.92176 z" />
  <path
     inkscape:label="#path27"
     style="fill:#000000;fill-rule:evenodd"
     inkscape:connector-curvature="0"
     id="table_07"
     d="m 207.46128,122.82897 0,0 c 2.7182,0 4.92177,2.20355 4.92177,4.92176 l 0,19.68646 0,0 c 0,1.30535 -0.51854,2.55722 -1.44154,3.48023 -0.92304,0.923 -2.17488,1.44154 -3.48023,1.44154 l -19.68648,0 c -2.71822,0 -4.92175,-2.20355 -4.92175,-4.92177 l 0,-19.68646 c 0,-2.71821 2.20353,-4.92176 4.92175,-4.92176 z" />
  <path
     inkscape:label="#path31"
     style="fill:#000000;fill-rule:evenodd"
     inkscape:connector-curvature="0"
     id="table_08"
     d="m 266.22134,122.82897 0,0 c 2.7182,0 4.92178,2.20355 4.92178,4.92176 l 0,19.68646 0,0 c 0,1.30535 -0.51854,2.55722 -1.44158,3.48023 -0.92301,0.923 -2.17489,1.44154 -3.4802,1.44154 l -19.68647,0 c -2.71821,0 -4.92178,-2.20355 -4.92178,-4.92177 l 0,-19.68646 c 0,-2.71821 2.20357,-4.92176 4.92178,-4.92176 z" />
  <path
     inkscape:label="#path43"
     style="fill:#000000;fill-rule:evenodd"
     inkscape:connector-curvature="0"
     id="table_09"
     d="m 89.941162,181.5889 0,0 c 2.718215,0 4.921775,2.20356 4.921775,4.92177 l 0,19.68646 0,0 c 0,1.30535 -0.51854,2.55722 -1.44154,3.48023 -0.92302,0.923 -2.174885,1.44154 -3.480235,1.44154 l -19.68646,0 c -2.71822,0 -4.92177,-2.20355 -4.92177,-4.92177 l 0,-19.68646 c 0,-2.71821 2.20355,-4.92177 4.92177,-4.92177 z" />
  <path
     inkscape:label="#path33"
     style="fill:#000000;fill-rule:evenodd"
     inkscape:connector-curvature="0"
     id="table_10"
     d="m 148.70122,181.5889 0,0 c 2.71822,0 4.92177,2.20356 4.92177,4.92177 l 0,19.68646 0,0 c 0,1.30535 -0.51854,2.55722 -1.44155,3.48023 -0.92301,0.923 -2.17489,1.44154 -3.48022,1.44154 l -19.68648,0 c -2.7182,0 -4.92175,-2.20355 -4.92175,-4.92177 l 0,-19.68646 c 0,-2.71821 2.20355,-4.92177 4.92175,-4.92177 z" />
  <path
     inkscape:label="#path35"
     style="fill:#000000;fill-rule:evenodd"
     inkscape:connector-curvature="0"
     id="table_11"
     d="m 207.46128,181.5889 0,0 c 2.7182,0 4.92177,2.20356 4.92177,4.92177 l 0,19.68646 0,0 c 0,1.30535 -0.51854,2.55722 -1.44154,3.48023 -0.92304,0.923 -2.17488,1.44154 -3.48023,1.44154 l -19.68648,0 c -2.71822,0 -4.92175,-2.20355 -4.92175,-4.92177 l 0,-19.68646 c 0,-2.71821 2.20353,-4.92177 4.92175,-4.92177 z" />
  <path
     inkscape:label="#path37"
     style="fill:#000000;fill-rule:evenodd"
     inkscape:connector-curvature="0"
     id="table_12"
     d="m 266.22134,181.5889 0,0 c 2.7182,0 4.92178,2.20356 4.92178,4.92177 l 0,19.68646 0,0 c 0,1.30535 -0.51854,2.55722 -1.44158,3.48023 -0.92301,0.923 -2.17489,1.44154 -3.4802,1.44154 l -19.68647,0 c -2.71821,0 -4.92178,-2.20355 -4.92178,-4.92177 l 0,-19.68646 c 0,-2.71821 2.20357,-4.92177 4.92178,-4.92177 z" />
  <path
     inkscape:label="#path51"
     style="fill:#000000;fill-rule:evenodd"
     inkscape:connector-curvature="0"
     id="table_13"
     d="m 89.941162,240.34884 0,0 c 2.718215,0 4.921775,2.20355 4.921775,4.92177 l 0,19.68648 0,0 c 0,1.30533 -0.51854,2.55719 -1.44154,3.48021 -0.92302,0.923 -2.174885,1.44154 -3.480235,1.44154 l -19.68646,0 c -2.71822,0 -4.92177,-2.20353 -4.92177,-4.92175 l 0,-19.68648 c 0,-2.71822 2.20355,-4.92177 4.92177,-4.92177 z" />
  <path
     inkscape:label="#path45"
     style="fill:#000000;fill-rule:evenodd"
     inkscape:connector-curvature="0"
     id="table_14"
     d="m 148.70122,240.34884 0,0 c 2.71822,0 4.92177,2.20355 4.92177,4.92177 l 0,19.68648 0,0 c 0,1.30533 -0.51854,2.55719 -1.44155,3.48021 -0.92301,0.923 -2.17489,1.44154 -3.48022,1.44154 l -19.68648,0 c -2.7182,0 -4.92175,-2.20353 -4.92175,-4.92175 l 0,-19.68648 c 0,-2.71822 2.20355,-4.92177 4.92175,-4.92177 z" />
  <path
     inkscape:label="#path47"
     style="fill:#000000;fill-rule:evenodd"
     inkscape:connector-curvature="0"
     id="table_15"
     d="m 207.46128,240.34884 0,0 c 2.7182,0 4.92177,2.20355 4.92177,4.92177 l 0,19.68648 0,0 c 0,1.30533 -0.51854,2.55719 -1.44154,3.48021 -0.92304,0.923 -2.17488,1.44154 -3.48023,1.44154 l -19.68648,0 c -2.71822,0 -4.92175,-2.20353 -4.92175,-4.92175 l 0,-19.68648 c 0,-2.71822 2.20353,-4.92177 4.92175,-4.92177 z" />
  <path
     inkscape:label="#path49"
     style="fill:#000000;fill-rule:evenodd"
     inkscape:connector-curvature="0"
     id="table_16"
     d="m 266.22134,240.34884 0,0 c 2.7182,0 4.92178,2.20355 4.92178,4.92177 l 0,19.68648 0,0 c 0,1.30533 -0.51854,2.55719 -1.44158,3.48021 -0.92301,0.923 -2.17489,1.44154 -3.4802,1.44154 l -19.68647,0 c -2.71821,0 -4.92178,-2.20353 -4.92178,-4.92175 l 0,-19.68648 c 0,-2.71822 2.20357,-4.92177 4.92178,-4.92177 z" />
  <path
     style="fill:#f1c232;fill-rule:evenodd"
     inkscape:connector-curvature="0"
     id="stool_01"
     d="m 20.812322,23.36149 20.37486,0 0,20.35402 -20.37486,0 z" />
  <path
     style="fill:#f1c232;fill-rule:evenodd"
     inkscape:connector-curvature="0"
     id="stool_02"
     d="m 69.900382,36.42425 20.37489,0 0,20.35401 -20.37489,0 z" />
  <path
     style="fill:#f1c232;fill-rule:evenodd"
     inkscape:connector-curvature="0"
     id="stool_03"
     d="m 158.05073,39.91477 20.37488,0 0,20.35401 -20.37488,0 z" />
  <path
     style="fill:#f1c232;fill-rule:evenodd"
     inkscape:connector-curvature="0"
     id="stool_04"
     d="m 271.13263,23.78727 20.37489,0 0,20.35401 -20.37489,0 z" />
  <path
     style="fill:#f1c232;fill-rule:evenodd"
     inkscape:connector-curvature="0"
     id="stool_05"
     d="m 216.80311,68.65579 20.37488,0 0,20.354 -20.37488,0 z" />
  <path
     style="fill:#f1c232;fill-rule:evenodd"
     inkscape:connector-curvature="0"
     id="stool_06"
     d="m 128.66306,98.03575 20.37488,0 0,20.35401 -20.37488,0 z" />
  <path
     style="fill:#f1c232;fill-rule:evenodd"
     inkscape:connector-curvature="0"
     id="stool_07"
     d="m 99.291377,127.41689 20.374893,0 0,20.35402 -20.374893,0 z" />
  <path
     style="fill:#f1c232;fill-rule:evenodd"
     inkscape:connector-curvature="0"
     id="stool_08"
     d="m 216.80311,127.41574 20.37488,0 0,20.354 -20.37488,0 z" />
  <path
     style="fill:#f1c232;fill-rule:evenodd"
     inkscape:connector-curvature="0"
     id="stool_09"
     d="m 42.815572,156.79744 20.37487,0 0,20.35401 -20.37487,0 z" />
  <path
     style="fill:#f1c232;fill-rule:evenodd"
     inkscape:connector-curvature="0"
     id="stool_10"
     d="m 187.42312,156.7957 20.37489,0 0,20.354 -20.37489,0 z" />
  <path
     style="fill:#f1c232;fill-rule:evenodd"
     inkscape:connector-curvature="0"
     id="stool_11"
     d="m 274.76045,156.79744 20.37488,0 0,20.35401 -20.37488,0 z" />
  <path
     style="fill:#f1c232;fill-rule:evenodd"
     inkscape:connector-curvature="0"
     id="stool_12"
     d="m 99.112487,215.55564 20.374883,0 0,20.354 -20.374883,0 z" />
  <path
     style="fill:#f1c232;fill-rule:evenodd"
     inkscape:connector-curvature="0"
     id="stool_13"
     d="m 217.2719,215.55564 20.37485,0 0,20.354 -20.37485,0 z" />
  <path
     style="fill:#f1c232;fill-rule:evenodd"
     inkscape:connector-curvature="0"
     id="stool_14"
     d="m 300.3742,235.91082 20.37485,0 0,20.35401 -20.37485,0 z" />
  <path
     style="fill:#f1c232;fill-rule:evenodd"
     inkscape:connector-curvature="0"
     id="stool_15"
     d="m 49.525532,285.83484 20.37486,0 0,20.35402 -20.37486,0 z" />
  <path
     style="fill:#f1c232;fill-rule:evenodd"
     inkscape:connector-curvature="0"
     id="stool_16"
     d="m 158.04378,275.27199 20.37488,0 0,20.35402 -20.37488,0 z" />
  <path
     style="fill:#f1c232;fill-rule:evenodd"
     inkscape:connector-curvature="0"
     id="stool_17"
     d="m 271.13263,289.80763 20.37489,0 0,20.35402 -20.37489,0 z" />
  <path
     inkscape:label="#path87"
     style="fill:#000000;fill-rule:evenodd"
     inkscape:connector-curvature="0"
     id="pillar_top"
     d="m 153.47341,5.61205 29.53003,0 0,29.53001 -29.53003,0 z" />
  <path
     inkscape:label="#path89"
     style="fill:#000000;fill-rule:evenodd"
     inkscape:connector-curvature="0"
     id="pillar_right"
     d="m 301.24944,152.2072 29.53002,0 0,29.53002 -29.53002,0 z" />
  <path
     inkscape:label="#path91"
     style="fill:#000000;fill-rule:evenodd"
     inkscape:connector-curvature="0"
     id="pillar_bottom"
     d="m 153.46646,299.10825 29.53003,0 0,29.52999 -29.53003,0 z" />
  <path
     inkscape:label="#path93"
     style="fill:#000000;fill-rule:evenodd"
     inkscape:connector-curvature="0"
     id="pillar_left"
     d="m 5.8241422,152.20894 29.5300098,0 0,29.53002 -29.5300098,0 z" />
  <path
     inkscape:label="#path19"
     inkscape:connector-curvature="0"
     style="fill:#00ff00;fill-rule:evenodd"
     id="robot_01"
     d="m 19.180072,97.96203 0,0 c 0,-4.6704 3.78611,-8.45652 8.45651,-8.45652 l 0,0 c 2.24282,0 4.39376,0.89095 5.97965,2.47686 1.58592,1.5859 2.47687,3.73684 2.47687,5.97966 l 0,0 c 0,4.6704 -3.78611,8.45649 -8.45652,8.45649 l 0,0 c -4.6704,0 -8.45651,-3.78609 -8.45651,-8.45649 z" />
  <path
     inkscape:label="#path4217"
     sodipodi:nodetypes="cc"
     inkscape:connector-curvature="0"
     id="robot_01_dir"
     d="m 27.5807,99.02208 0,9.7976"
     style="fill:none;stroke:#0000ff;stroke-width:1.09148252px;stroke-linecap:butt;stroke-linejoin:miter;stroke-opacity:1" />
  <path
     inkscape:label="#path19-3"
     id="goal_01"
     d="m 300.79332,285.48263 0,0 c 0,-4.6704 3.78611,-8.4565 8.45651,-8.4565 l 0,0 c 2.24282,0 4.39375,0.89094 5.97966,2.47684 1.58591,1.58591 2.47686,3.73686 2.47686,5.97966 l 0,0 c 0,4.6704 -3.78612,8.4565 -8.45652,8.4565 l 0,0 c -4.6704,0 -8.45651,-3.7861 -8.45651,-8.4565 z"
     style="fill:#ff0000;fill-rule:evenodd"
     inkscape:connector-curvature="0" />
  <path
     inkscape:label="#path4217"
     sodipodi:nodetypes="cc"
     inkscape:connector-curvature="0"
     id="goal_01_dir"
     d="m 309.89912,285.66385 9.7976,0"
     style="fill:none;stroke:#0000ff;stroke-width:1.09148252px;stroke-linecap:butt;stroke-linejoin:miter;stroke-opacity:1" />
  <path
     inkscape:label="#path3336"
     sodipodi:nodetypes="ccccc"
     inkscape:connector-curvature="0"
     id="wall_ext_top"
     d="m 5.5932872,5.59067 0,-5.58746 325.2941928,0 0,5.58746 z"
     style="fill:#000000;fill-opacity:1;stroke:none;stroke-width:1px;stroke-linecap:butt;stroke-linejoin:miter;stroke-opacity:1" />
  <path
     inkscape:label="#path3336"
     sodipodi:nodetypes="ccccc"
     inkscape:connector-curvature="0"
     id="wall_ext_bottom"
     d="m 5.5932872,334.24295 0,-5.58746 325.2941928,0 0,5.58746 z"
     style="fill:#000000;fill-opacity:1;stroke:none;stroke-width:1px;stroke-linecap:butt;stroke-linejoin:miter;stroke-miterlimit:10;stroke-opacity:1" />
  <path
     inkscape:label="#path3336-6-5"
     sodipodi:nodetypes="ccccc"
     inkscape:connector-curvature="0"
     id="wall_ext_left"
     d="m 0,334.24627 5.5863282,0 L 5.5863282,0 0,0 Z"
     style="fill:#000000;fill-opacity:1;stroke:none;stroke-width:1px;stroke-linecap:butt;stroke-linejoin:miter;stroke-opacity:1" />
  <path
     inkscape:label="#path3336-6-5"
     sodipodi:nodetypes="ccccc"
     inkscape:connector-curvature="0"
     id="wall_ext_right"
     d="m 330.89651,334.25472 5.58633,0 0,-334.24627 -5.58633,0 z"
     style="fill:#000000;fill-opacity:1;stroke:none;stroke-width:1px;stroke-linecap:butt;stroke-linejoin:miter;stroke-miterlimit:10;stroke-opacity:1" />
</svg>
