<?xml version="1.0" encoding="UTF-8" standalone="no"?>
<svg
   xmlns:dc="http://purl.org/dc/elements/1.1/"
   xmlns:cc="http://creativecommons.org/ns#"
   xmlns:rdf="http://www.w3.org/1999/02/22-rdf-syntax-ns#"
   xmlns:svg="http://www.w3.org/2000/svg"
   xmlns="http://www.w3.org/2000/svg"
   xmlns:sodipodi="http://sodipodi.sourceforge.net/DTD/sodipodi-0.dtd"
   xmlns:inkscape="http://www.inkscape.org/namespaces/inkscape"
   version="1.1"
   viewBox="0 0 151.86304 147.25102"
   stroke-miterlimit="10"
   id="svg2"
   inkscape:version="0.91 r13725"
   sodipodi:docname="02_basic_with_opening.svg"
   width="151.86304"
   height="147.25102"
   style="fill:none;stroke:none;stroke-linecap:square;stroke-miterlimit:10">
  <metadata
     id="metadata41">
    <rdf:RDF>
      <cc:Work
         rdf:about="">
        <dc:format>image/svg+xml</dc:format>
        <dc:type
           rdf:resource="http://purl.org/dc/dcmitype/StillImage" />
        <dc:title />
      </cc:Work>
    </rdf:RDF>
  </metadata>
  <defs
     id="defs39" />
  <sodipodi:namedview
     pagecolor="#ffffff"
     bordercolor="#666666"
     borderopacity="1"
     objecttolerance="10"
     gridtolerance="10"
     guidetolerance="10"
     inkscape:pageopacity="0"
     inkscape:pageshadow="2"
     inkscape:window-width="640"
     inkscape:window-height="480"
     id="namedview37"
     showgrid="false"
     inkscape:zoom="32"
     inkscape:cx="23.045182"
     inkscape:cy="124.65332"
     inkscape:current-layer="svg2"
     fit-margin-top="0"
     fit-margin-left="0"
     fit-margin-right="0"
     fit-margin-bottom="0" />
  <path
     inkscape:label="#path3336-6-0"
     style="fill:#ffcc00;fill-opacity:1;stroke:none;stroke-width:1px;stroke-linecap:butt;stroke-linejoin:miter;stroke-opacity:1"
     d="m 57.334688,10.6531 -18.747731,0 0,18.74727 18.747731,0 z"
     id="movable_box"
     inkscape:connector-curvature="0"
     sodipodi:nodetypes="ccccc" />
  <path
     style="fill:#000000;fill-opacity:1;stroke:none;stroke-width:1px;stroke-linecap:butt;stroke-linejoin:miter;stroke-opacity:1"
     d="M 75.135104,0 0,0 l 0,5.5861 75.135104,0 z"
     id="wall_top_left"
     inkscape:connector-curvature="0"
     sodipodi:nodetypes="ccccc"
     inkscape:label="#path3336-6-3" />
  <path
     d="m 34.908693,98.17614 0,0 c 0,-3.87867 3.144283,-7.02295 7.022948,-7.02295 l 0,0 c 1.862598,0 3.648912,0.73992 4.965969,2.05698 1.317059,1.31705 2.056973,3.10337 2.056973,4.96597 l 0,0 c 0,3.87866 -3.144277,7.02294 -7.022942,7.02294 l 0,0 c -3.878665,0 -7.022948,-3.14428 -7.022948,-7.02294 z"
     id="goal_01"
     style="fill:#ff0000;fill-rule:evenodd;stroke:none;stroke-linecap:square;stroke-miterlimit:10"
     inkscape:connector-curvature="0"
     inkscape:label="#path29-7" />
  <path
     style="fill:none;stroke:#0000ff;stroke-width:1.09148252px;stroke-linecap:butt;stroke-linejoin:miter;stroke-miterlimit:10;stroke-opacity:1"
     d="m 42.413447,98.36168 9.7976,0"
     id="goal_01_dir"
     inkscape:connector-curvature="0"
     sodipodi:nodetypes="cc"
     inkscape:label="#path4217" />
  <path
     style="fill:#000000;fill-opacity:1;stroke:none;stroke-width:1px;stroke-linecap:butt;stroke-linejoin:miter;stroke-opacity:1"
     d="m 57.980695,42.236381 -52.1362409,0 0,98.520799 139.8958159,0 0,-98.891875 -52.136236,0 0,-5.566147 58.258996,0 0,110.951862 -151.5847226,0 0,-111.1374 57.6911326,0 z"
     id="wall_bottom"
     inkscape:connector-curvature="0"
     sodipodi:nodetypes="ccccccccccccc"
     inkscape:label="#path4149" />
  <path
     style="fill:#000000;fill-opacity:1;stroke:none;stroke-width:1px;stroke-linecap:butt;stroke-linejoin:miter;stroke-miterlimit:10;stroke-opacity:1"
     d="m 151.85937,0.0015014 -39.16673,0 0,5.5861002 39.16673,0 z"
     id="wall_top_right"
     inkscape:connector-curvature="0"
     sodipodi:nodetypes="ccccc"
     inkscape:label="#path3336-6-3" />
  <path
     sodipodi:type="star"
     style="fill:#00ff00;fill-opacity:1;stroke:none;stroke-linecap:square;stroke-miterlimit:10;stroke-opacity:1"
     id="robot_01"
     sodipodi:sides="16"
     sodipodi:cx="19.546875"
     sodipodi:cy="20.954147"
     sodipodi:r1="7.0012054"
     sodipodi:r2="6.8666787"
     sodipodi:arg1="-0.10272987"
     sodipodi:arg2="0.093619673"
     inkscape:flatsided="true"
     inkscape:rounded="0"
     inkscape:randomized="0"
     d="m 26.51117,20.236179 -0.255371,2.719772 -1.276744,2.415016 -2.103743,1.742595 -2.610468,0.80488 -2.719773,-0.255371 -2.415016,-1.276743 -1.742595,-2.103744 -0.80488,-2.610468 0.255371,-2.719772 1.276744,-2.415016 2.103743,-1.742595 2.610468,-0.80488 2.719773,0.25537 2.415016,1.276744 1.742595,2.103744 z"
     inkscape:label="#path4172" />
  <path
     style="fill:none;stroke:#0000ff;stroke-width:1.09148252px;stroke-linecap:butt;stroke-linejoin:miter;stroke-miterlimit:10;stroke-opacity:1"
     d="m 19.44495,21.313522 9.7976,0"
     id="robot_01_dir"
     inkscape:connector-curvature="0"
     sodipodi:nodetypes="cc"
     inkscape:label="#path4217" />
</svg>
