<?xml version="1.0" encoding="UTF-8" standalone="no"?>
<svg
   xmlns:dc="http://purl.org/dc/elements/1.1/"
   xmlns:cc="http://creativecommons.org/ns#"
   xmlns:rdf="http://www.w3.org/1999/02/22-rdf-syntax-ns#"
   xmlns:svg="http://www.w3.org/2000/svg"
   xmlns="http://www.w3.org/2000/svg"
   xmlns:sodipodi="http://sodipodi.sourceforge.net/DTD/sodipodi-0.dtd"
   xmlns:inkscape="http://www.inkscape.org/namespaces/inkscape"
   version="1.1"
   viewBox="0 0 151.86304 147.25102"
   stroke-miterlimit="10"
   id="svg2"
   inkscape:version="0.91 r13725"
   sodipodi:docname="01_cas_basique.svg"
   width="151.86304"
   height="147.25102"
   style="fill:none;stroke:none;stroke-linecap:square;stroke-miterlimit:10">
  <metadata
     id="metadata41">
    <rdf:RDF>
      <cc:Work
         rdf:about="">
        <dc:format>image/svg+xml</dc:format>
        <dc:type
           rdf:resource="http://purl.org/dc/dcmitype/StillImage" />
        <dc:title></dc:title>
      </cc:Work>
    </rdf:RDF>
  </metadata>
  <defs
     id="defs39" />
  <sodipodi:namedview
     pagecolor="#ffffff"
     bordercolor="#666666"
     borderopacity="1"
     objecttolerance="10"
     gridtolerance="10"
     guidetolerance="10"
     inkscape:pageopacity="0"
     inkscape:pageshadow="2"
     inkscape:window-width="640"
     inkscape:window-height="480"
     id="namedview37"
     showgrid="false"
     inkscape:zoom="2.8284271"
     inkscape:cx="66.21904"
     inkscape:cy="98.86615"
     inkscape:current-layer="svg2"
     fit-margin-top="0"
     fit-margin-left="0"
     fit-margin-right="0"
     fit-margin-bottom="0" />
  <path
     d="m 12.056944,20.72188 0,0 c 0,-3.87867 3.144283,-7.02295 7.022948,-7.02295 l 0,0 c 1.862598,0 3.648912,0.73992 4.965969,2.05698 1.317059,1.31705 2.056973,3.10337 2.056973,4.96597 l 0,0 c 0,3.87866 -3.144277,7.02294 -7.022942,7.02294 l 0,0 c -3.878665,0 -7.022948,-3.14428 -7.022948,-7.02294 z"
     id="robot_01"
     style="fill:#00ff00;fill-rule:evenodd"
     inkscape:connector-curvature="0"
     inkscape:label="#path29" />
  <path
     inkscape:label="#path3336-6-0"
     style="fill:#ffcc00;fill-opacity:1;stroke:none;stroke-width:1px;stroke-linecap:butt;stroke-linejoin:miter;stroke-opacity:1"
     d="m 57.334688,10.6531 -18.747731,0 0,18.74727 18.747731,0 z"
     id="movable_box"
     inkscape:connector-curvature="0"
     sodipodi:nodetypes="ccccc" />
  <path
     style="fill:none;stroke:#0000ff;stroke-width:1.09148252px;stroke-linecap:butt;stroke-linejoin:miter;stroke-opacity:1"
     d="m 19.51034,21.23362 9.7976,0"
     id="robot_01_dir"
     inkscape:connector-curvature="0"
     sodipodi:nodetypes="cc"
     inkscape:label="#path4217" />
  <path
     style="fill:#000000;fill-opacity:1;stroke:none;stroke-width:1px;stroke-linecap:butt;stroke-linejoin:miter;stroke-opacity:1"
     d="M 151.85619,0 0,0 l 0,5.5861 151.85619,0 z"
     id="wall_top"
     inkscape:connector-curvature="0"
     sodipodi:nodetypes="ccccc"
     inkscape:label="#path3336-6-3" />
  <path
     d="m 34.908693,98.17614 0,0 c 0,-3.87867 3.144283,-7.02295 7.022948,-7.02295 l 0,0 c 1.862598,0 3.648912,0.73992 4.965969,2.05698 1.317059,1.31705 2.056973,3.10337 2.056973,4.96597 l 0,0 c 0,3.87866 -3.144277,7.02294 -7.022942,7.02294 l 0,0 c -3.878665,0 -7.022948,-3.14428 -7.022948,-7.02294 z"
     id="goal_01"
     style="fill:#ff0000;fill-rule:evenodd;stroke:none;stroke-linecap:square;stroke-miterlimit:10"
     inkscape:connector-curvature="0"
     inkscape:label="#path29-7" />
  <path
     style="fill:none;stroke:#0000ff;stroke-width:1.09148252px;stroke-linecap:butt;stroke-linejoin:miter;stroke-miterlimit:10;stroke-opacity:1"
     d="m 42.413447,98.36168 9.7976,0"
     id="goal_01_dir"
     inkscape:connector-curvature="0"
     sodipodi:nodetypes="cc"
     inkscape:label="#path4217" />
  <path
     style="fill:#000000;fill-opacity:1;stroke:none;stroke-width:1px;stroke-linecap:butt;stroke-linejoin:miter;stroke-opacity:1"
     d="m 57.980695,42.236381 -52.1362409,0 0,98.520799 139.8958159,0 0,-98.891875 -52.136236,0 0,-5.566147 58.258996,0 0,110.951862 -151.5847226,0 0,-111.1374 57.6911326,0 z"
     id="wall_bottom"
     inkscape:connector-curvature="0"
     sodipodi:nodetypes="ccccccccccccc"
     inkscape:label="#path4149" />
</svg>
