<?xml version="1.0" encoding="UTF-8" standalone="no"?>
<svg
   version="1.0"
   width="867.25342pt"
   height="1490.4243pt"
   viewBox="0 0 867.25342 1490.4243"
   preserveAspectRatio="xMidYMid meet"
   id="svg4311"
   sodipodi:docname="willow_garage_multi_shape.svg"
   inkscape:version="1.1.2 (0a00cf5339, 2022-02-04)"
   xmlns:inkscape="http://www.inkscape.org/namespaces/inkscape"
   xmlns:sodipodi="http://sodipodi.sourceforge.net/DTD/sodipodi-0.dtd"
   xmlns="http://www.w3.org/2000/svg"
   xmlns:svg="http://www.w3.org/2000/svg">
  <namo_config
     cell_size="15.0">
    <agent
       agent_id="robot_0">
      <goal
         goal_id="goal_0" />
      <behavior
         type="stilman_2005_behavior">
        <parameters
           robot_translation_unit_length="15.0"
           manipulation_search_procedure="DFS" />
      </behavior>
    </agent>
  </namo_config>
  <defs
     id="defs4315" />
  <sodipodi:namedview
     id="namedview4313"
     pagecolor="#ffffff"
     bordercolor="#666666"
     borderopacity="1.0"
     inkscape:pageshadow="2"
     inkscape:pageopacity="0.0"
     inkscape:pagecheckerboard="0"
     inkscape:document-units="pt"
     showgrid="false"
     inkscape:zoom="0.5238"
     inkscape:cx="947.88087"
     inkscape:cy="997.51814"
     inkscape:window-width="2490"
     inkscape:window-height="1376"
     inkscape:window-x="0"
     inkscape:window-y="0"
     inkscape:window-maximized="1"
     inkscape:current-layer="svg4311"
     fit-margin-top="0"
     fit-margin-left="0"
     fit-margin-right="0"
     fit-margin-bottom="0" />
  <path
     style="fill:#000000;stroke:none;stroke-width:0.0999997"
     d="m 243.2534,0 v 9.6709 10.0005 h 312 312 V 0 Z"
     id="path6047"
     type="wall" />
  <path
     style="fill:#000000;stroke:none;stroke-width:0.0999997"
     d="m 3.2534,0 v 39.6709 h 6 6 v -9.999 -10.0005 h 70.5 70.5 V 9.6709 0 Z"
     id="path4277"
     type="wall" />
  <path
     id="path4287"
     style="fill:#000000;stroke:none;stroke-width:0.0999997"
     d="m 3.2534,222.6709 v 5.001 c 0,4.3 -0.2995,4.9995 -1.9995,4.9995 -1.2533,0 -1.0793,95.3 -1.2539,156.9756 v 1100.7773 l 2.2529,-2.2529 9,-9 v -98.2002 -98.2998 h 4.5 4.5 v -6.4995 -6.501 h -4.5 -4.5 V 1086.1714 902.6719 h 30.501 30.4995 v -9 -9 H 41.7539 11.2529 V 766.6714 648.6709 h 30.501 30.4995 v -9 -9 H 41.7539 11.2529 v -112.5 -112.5 h 120.501 120.4995 v 12.501 12.4995 h 6 6 v -18.4995 -18.501 H 137.7539 11.2529 v -74.499 -74.5005 h 4.5 4.5 v -6 c 0,-5.7 -0.099,-6 -2.499,-6 -2.3,0 -2.5005,-0.2995 -2.5005,-4.9995 v -5.001 h -6 z"
     type="wall" />
  <path
     d="m 108.2534,238.6714 v 6 h 151.5 151.5 v 141.5 141.5 h -73.5 -73.5 v -5 -5 h -6 -6 v 11 11 h 8.5 8.5 v 8.5 c 0,5 0.4,8.5 1,8.5 0.6,0 1,-3.5 1,-8.5 v -8.5 h 70 70 v 47 47 h -70 -70 v -8 c 0,-4.7 -0.4,-8 -1,-8 -0.6,0 -1,6.7 -1,18 0,11.3 0.4,18 1,18 0.6,0 1,-3.5 1,-8.5 v -8.5 h 70 70 v 47 47 h -70 -70 v -8 c 0,-4.7 -0.4,-8 -1,-8 -0.6,0 -1,6.7 -1,18 0,11.3 0.4,18 1,18 0.6,0 1,-3.7 1,-9 v -9 h 70 70 v 47 47 h -70 -70 v -7.5 c 0,-4.3 -0.4,-7.5 -1,-7.5 -0.6,0 -1,3.2 -1,7.5 v 7.5 h -33 -33 v 22.5 c 0,19.3 0.2,22.5 1.5,22.5 1.3,0 1.5,-3 1.5,-21 v -21 h 102.5 102.5 v 76 76 h -102.5 -102.5 v -11.5 c 0,-9.6 -0.3,-11.5 -1.5,-11.5 -1.2,0 -1.5,1.9 -1.5,11.5 v 11.5 h -45 -45 v 6 6 h 32.5 32.5 v 89.5 89.5 h 6.5 6.5 v -89.5 -89.5 h 59.5 59.5 v 66 66 h 5 5 v -66 -66 h 53.5 53.5 v 138 138 h -118 -118 v -4.5 -4.5 h -6.5 -6.5 v 4.5 4.5 h -35 -35 v 6.5 6.5 h 26 26 v 35.5 35.5 h 6.5 c 5.8,0 6.5,0.2 6.5,2 0,2 0.7,2 48,2 47.3,0 48,0 48,-2 0,-2 0.7,-2 216,-2 h 216 v -35.5 -35.5 h 26 26 v -6.5 -6.5 h -35.5 -35.5 v -4.5 -4.5 h -6 -6 v 4.5 4.5 h -115.5 -115.5 v -138 -138 h 53.5 53.5 v 66 66 h 5 5 v -66 -66 h 57 57 v 89.5 89.5 h 6 6 v -89.5 -89.5 h 33 33 v -6 -6 h -39.5 -39.5 v -11.5 c 0,-9.6 -0.3,-11.5 -1.5,-11.5 -1.2,0 -1.5,1.9 -1.5,11.5 v 11.5 h -102.5 -102.5 v -76 -76 h 102.5 102.5 v 21 c 0,18 0.2,21 1.5,21 1.3,0 1.5,-3.2 1.5,-22.5 v -22.5 h -32.5 -32.5 v -9 c 0,-7.3 -0.3,-9 -1.5,-9 -1.2,0 -1.5,1.7 -1.5,9 v 9 h -70 -70 v -45.5 -45.5 h 70 70 v 6 c 0,4.7 0.3,6 1.5,6 1.3,0 1.5,-2.5 1.5,-16.5 0,-14 -0.2,-16.5 -1.5,-16.5 -1.2,0 -1.5,1.7 -1.5,9 v 9 h -70 -70 v -47 -47 h 70 70 v 7.5 c 0,6 0.3,7.5 1.5,7.5 1.2,0 1.5,-1.6 1.5,-8.5 v -8.5 h -71.5 -71.5 v -93.5 -93.5 h 62.5 62.5 v -6 -6 h -81.5 -81.5 v -96.5 -96.5 h 36 36 v -6 -6 h -193.5 -193.5 z"
     id="path4291"
     style="fill:#000000;stroke:none;stroke-width:0.1"
     type="wall" />
  <path
     id="path4293"
     style="fill:#000000;stroke:none;stroke-width:0.0999997"
     d="m 586.2539,232.6714 v 6 6 h 45.999 46.0005 v 33 33 h 6 6 v -33 -33 h 79.9995 80.001 v 96.4995 96.501 h -80.001 -79.9995 v -30.501 -30.4995 h -6 -6 v 36.4995 36.501 h 85.9995 86.001 v 124.5 124.5 h -30.501 -30.4995 v 9 9 h 30.4995 30.501 v 276.4995 276.4995 h -5.001 -4.9995 v 6.501 6.4995 h 4.9995 5.001 v 4.5 4.5 h 6 3.624 v -1059 z"
     type="wall" />
  <path
     inkscape:label="#path3336-6-0"
     style="fill:#f1c232;fill-opacity:1;stroke:none;stroke-width:2.41429px;stroke-linecap:butt;stroke-linejoin:miter;stroke-miterlimit:10;stroke-opacity:1"
     d="m 560.3017,214.00927 h -40 v 51.21623 h 40 z"
     id="movable_box_1"
     inkscape:connector-curvature="0"
     sodipodi:nodetypes="ccccc"
     type="movable" />
  <path
     inkscape:label="#path3336-6-0"
     style="fill:#f1c232;fill-opacity:1;stroke:none;stroke-width:2.13361px;stroke-linecap:butt;stroke-linejoin:miter;stroke-miterlimit:10;stroke-opacity:1"
     d="m 278.22507,451.75838 h -40 v 40 h 40 z"
     id="movable_box_2"
     inkscape:connector-curvature="0"
     sodipodi:nodetypes="ccccc"
     type="movable" />
  <path
     inkscape:label="#path3336-6-0"
     style="fill:#f1c232;fill-opacity:1;stroke:none;stroke-width:2.13361px;stroke-linecap:butt;stroke-linejoin:miter;stroke-miterlimit:10;stroke-opacity:1"
     d="m 279.8597,885.26803 -0.0387,39.99998 39.99998,0.0387 0.0387,-39.99998 z"
     id="movable_box_3"
     inkscape:connector-curvature="0"
     sodipodi:nodetypes="ccccc"
     type="movable" />
  <path
     inkscape:label="#path3336-6-0"
     style="fill:#f1c232;fill-opacity:1;stroke:none;stroke-width:3.20393px;stroke-linecap:butt;stroke-linejoin:miter;stroke-miterlimit:10;stroke-opacity:1"
     d="m 338.19287,1415.2298 -49.66055,-28.6601 -31.45777,54.4965 49.65556,28.6686 z"
     id="movable_box_4"
     inkscape:connector-curvature="0"
     sodipodi:nodetypes="ccccc"
     type="movable" />
  <path
     inkscape:label="#path3336-6-0"
     style="fill:#f1c232;fill-opacity:1;stroke:none;stroke-width:2.13361px;stroke-linecap:butt;stroke-linejoin:miter;stroke-miterlimit:10;stroke-opacity:1"
     d="m 86.501513,1247.9863 h -40 v 40 h 40 z"
     id="movable_box_5"
     inkscape:connector-curvature="0"
     sodipodi:nodetypes="ccccc"
     type="movable" />
  <path
     inkscape:label="#path3336-6-0"
     style="fill:#f1c232;fill-opacity:1;stroke:none;stroke-width:2.13361px;stroke-linecap:butt;stroke-linejoin:miter;stroke-miterlimit:10;stroke-opacity:1"
     d="m 813.46142,1261.5167 h -40 v 40 h 40 z"
     id="movable_box_6"
     inkscape:connector-curvature="0"
     sodipodi:nodetypes="ccccc"
     type="movable" />
  <path
     inkscape:label="#path3336-6-0"
     style="fill:#f1c232;fill-opacity:1;stroke:none;stroke-width:2.76584px;stroke-linecap:butt;stroke-linejoin:miter;stroke-miterlimit:10;stroke-opacity:1"
     d="m 613.81651,1244.5933 33.56,-58.2409 -34.65798,-19.9705 -33.56,58.2409 z"
     id="movable_box_7"
     inkscape:connector-curvature="0"
     sodipodi:nodetypes="ccccc"
     type="movable" />
  <path
     inkscape:label="#path3336-6-0"
     style="fill:#f1c232;fill-opacity:1;stroke:none;stroke-width:2.13361px;stroke-linecap:butt;stroke-linejoin:miter;stroke-miterlimit:10;stroke-opacity:1"
     d="m 695.62353,893.42713 h -40 v 40 h 40 z"
     id="movable_box_8"
     inkscape:connector-curvature="0"
     sodipodi:nodetypes="ccccc"
     type="movable" />
  <path
     inkscape:label="#path3336-6-0"
     style="fill:#f1c232;fill-opacity:1;stroke:none;stroke-width:3.13159px;stroke-linecap:butt;stroke-linejoin:miter;stroke-miterlimit:10;stroke-opacity:1"
     d="m 655.76177,555.68093 -74.4749,-43.34563 -20.12088,34.57095 74.4749,43.34563 z"
     id="movable_box_9"
     inkscape:connector-curvature="0"
     sodipodi:nodetypes="ccccc"
     type="movable" />
  <path
     inkscape:label="#path3336-6-0"
     style="fill:#f1c232;fill-opacity:1;stroke:none;stroke-width:2.47888px;stroke-linecap:butt;stroke-linejoin:miter;stroke-miterlimit:10;stroke-opacity:1"
     d="m 831.17587,983.22057 -52.15123,-13.98475 -10.36048,38.63498 52.15111,13.9852 z"
     id="movable_box_10"
     inkscape:connector-curvature="0"
     sodipodi:nodetypes="ccccc"
     type="movable" />
  <path
     inkscape:label="#path3336-6-0"
     style="fill:#f1c232;fill-opacity:1;stroke:none;stroke-width:2.79216px;stroke-linecap:butt;stroke-linejoin:miter;stroke-miterlimit:10;stroke-opacity:1"
     d="m 704.9613,323.73731 h -68.50331 v 39.99995 h 68.50331 z"
     id="movable_box_11"
     inkscape:connector-curvature="0"
     sodipodi:nodetypes="ccccc"
     type="movable" />
  <path
     inkscape:label="#path3336-6-0"
     style="fill:#f1c232;fill-opacity:1;stroke:none;stroke-width:2.71117px;stroke-linecap:butt;stroke-linejoin:miter;stroke-miterlimit:10;stroke-opacity:1"
     d="m 237.17052,1161.6299 -34.71868,19.8648 32.07522,56.0591 34.71868,-19.8648 z"
     id="movable_box_12"
     inkscape:connector-curvature="0"
     sodipodi:nodetypes="ccccc"
     type="movable" />
  <path
     inkscape:label="#path3336-6-0"
     style="fill:#f1c232;fill-opacity:1;stroke:none;stroke-width:3.1528px;stroke-linecap:butt;stroke-linejoin:miter;stroke-miterlimit:10;stroke-opacity:1"
     d="m 79.553608,176.30641 h -40 v 87.34213 h 40 z"
     id="movable_box_13"
     inkscape:connector-curvature="0"
     sodipodi:nodetypes="ccccc"
     type="movable" />
  <g
     id="robot_0">
    <path
       sodipodi:type="star"
       style="fill:#5599ff"
       id="path7418"
       inkscape:flatsided="true"
       sodipodi:sides="30"
       sodipodi:cx="313.11505"
       sodipodi:cy="99.854576"
       sodipodi:r1="18.059273"
       sodipodi:r2="16.970165"
       sodipodi:arg1="0.5472763"
       sodipodi:arg2="0.65199606"
       inkscape:rounded="0"
       inkscape:randomized="0"
       d="m 328.53668,109.25196 -2.29083,3.00098 -2.8647,2.45911 -3.31338,1.80977 -3.61725,1.08133 -3.76303,0.30564 -3.74434,-0.48343 -3.562,-1.25135 -3.224,-1.96458 -2.74508,-2.59197 -2.1462,-3.10606 -1.45352,-3.4844 -0.6973,-3.71046 0.0894,-3.77436 0.87216,-3.673295 1.61683,-3.411691 2.29082,-3.000981 2.8647,-2.459113 3.31339,-1.80977 3.61725,-1.081331 3.76302,-0.305634 3.74434,0.483423 3.562,1.25135 3.224,1.964588 2.74509,2.591963 2.1462,3.106059 1.45351,3.484403 0.6973,3.710463 -0.0894,3.774356 -0.87217,3.6733 z"
       type="shape" />
    <path
       style="fill:none;stroke:#1155cc;stroke-width:2.02275px;stroke-linecap:butt;stroke-linejoin:miter;stroke-miterlimit:10;stroke-opacity:1"
       d="m 312.8294,98.392614 h 18.28565"
       id="robot_0_dir"
       inkscape:connector-curvature="0"
       sodipodi:nodetypes="cc"
       inkscape:label="#path4217"
       type="orientation" />
  </g>
  <g
     id="goal_0">
    <path
       id="robot_0_goal_39_shape"
       d="m 724.15317,546.46233 3.46272,4.76319 1.37633,5.72575 -0.91957,5.8166 -3.07549,5.02193 -4.76319,3.46271 -5.72574,1.37633 -5.8166,-0.91956 -5.02194,-3.07549 -3.46271,-4.7632 -1.37633,-5.72574 0.91957,-5.8166 3.07549,-5.02193 4.76319,-3.46271 5.72574,-1.37634 5.8166,0.91957 z"
       style="fill:none;stroke:#1155cc;stroke-width:5.73073;stroke-linecap:butt;stroke-linejoin:miter;stroke-miterlimit:10;stroke-dasharray:none;stroke-opacity:1"
       type="shape" />
    <path
       id="robot_0_goal_39_direction"
       d="m 713.73661,557.45602 9.27428,10.52694"
       style="fill:none;stroke:#1155cc;stroke-width:5.73073;stroke-linecap:butt;stroke-linejoin:miter;stroke-miterlimit:10;stroke-dasharray:none;stroke-opacity:1"
       type="orientation" />
  </g>
  <path
     sodipodi:type="star"
     style="fill:#f1c232;fill-opacity:1"
     id="triangle_1"
     inkscape:flatsided="true"
     sodipodi:sides="3"
     sodipodi:cx="278.50155"
     sodipodi:cy="327.54319"
     sodipodi:r1="29.028008"
     sodipodi:r2="14.514004"
     sodipodi:arg1="-1.5623414"
     sodipodi:arg2="-0.51514381"
     inkscape:rounded="0"
     inkscape:randomized="0"
     d="m 278.74698,298.51621 24.76996,43.753 -50.27619,-0.42509 z"
     inkscape:transform-center-x="0.060382657"
     inkscape:transform-center-y="-3.5185838"
     type="movable" />
  <path
     sodipodi:type="star"
     style="fill:#f1c232;fill-opacity:1"
     id="triangle_2"
     inkscape:flatsided="true"
     sodipodi:sides="3"
     sodipodi:cx="636.98835"
     sodipodi:cy="427.23255"
     sodipodi:r1="29.028008"
     sodipodi:r2="14.514004"
     sodipodi:arg1="-1.5623414"
     sodipodi:arg2="-0.51514381"
     inkscape:rounded="0"
     inkscape:randomized="0"
     inkscape:transform-center-x="0.060382657"
     inkscape:transform-center-y="-3.5185838"
     type="movable"
     d="m 637.23377,398.20557 24.76995,43.753 -50.27618,-0.42509 z" />
  <path
     sodipodi:type="star"
     style="fill:#f1c232;fill-opacity:1"
     id="triangle_3"
     inkscape:flatsided="true"
     sodipodi:sides="3"
     sodipodi:cx="128.53265"
     sodipodi:cy="868.3524"
     sodipodi:r1="29.028008"
     sodipodi:r2="14.514004"
     sodipodi:arg1="-1.5623414"
     sodipodi:arg2="-0.51514381"
     inkscape:rounded="0"
     inkscape:randomized="0"
     inkscape:transform-center-x="0.060382657"
     inkscape:transform-center-y="-3.5185838"
     type="movable"
     d="m 128.77808,839.32545 24.76995,43.753 -50.27618,-0.42509 z" />
  <path
     sodipodi:type="star"
     style="fill:#f1c232;fill-opacity:1"
     id="pentagon_3"
     inkscape:flatsided="true"
     sodipodi:sides="5"
     sodipodi:cx="169.20674"
     sodipodi:cy="630.61444"
     sodipodi:r1="31.831028"
     sodipodi:r2="25.751842"
     sodipodi:arg1="0.97052689"
     sodipodi:arg2="1.5988454"
     inkscape:rounded="0"
     inkscape:randomized="0"
     d="m 187.18697,656.88088 -37.4049,-1.04945 -10.56066,-35.89847 30.87805,-21.13703 29.64434,22.83507 z"
     inkscape:transform-center-x="-0.20689693"
     inkscape:transform-center-y="-2.082025"
     type="movable" />
  <path
     sodipodi:type="star"
     style="fill:#f1c232;fill-opacity:1"
     id="pentagon_1"
     inkscape:flatsided="true"
     sodipodi:sides="5"
     sodipodi:cx="425.11917"
     sodipodi:cy="115.81354"
     sodipodi:r1="38.906559"
     sodipodi:r2="31.476068"
     sodipodi:arg1="0.97052689"
     sodipodi:arg2="1.5988454"
     inkscape:rounded="0"
     inkscape:randomized="0"
     inkscape:transform-center-x="-0.45195972"
     inkscape:transform-center-y="-4.5482036"
     d="m 447.09612,147.91859 -45.71941,-1.28273 -12.90814,-43.87813 37.74175,-25.835447 36.23382,27.910937 z"
     type="movable" />
  <path
     sodipodi:type="star"
     style="fill:#f1c232;fill-opacity:1"
     id="pentagon_2"
     inkscape:flatsided="true"
     sodipodi:sides="5"
     sodipodi:cx="598.61666"
     sodipodi:cy="1427.1431"
     sodipodi:r1="32.539787"
     sodipodi:r2="26.325239"
     sodipodi:arg1="0.97052689"
     sodipodi:arg2="1.5988454"
     inkscape:rounded="0"
     inkscape:randomized="0"
     inkscape:transform-center-x="-0.26618969"
     inkscape:transform-center-y="-2.6787745"
     d="m 616.99722,1453.9944 -38.23777,-1.0729 -10.79581,-36.6978 31.56559,-21.6076 30.30442,23.3435 z"
     type="movable" />
</svg>
