<?xml version="1.0" encoding="UTF-8" standalone="no"?>
<svg
   xmlns:dc="http://purl.org/dc/elements/1.1/"
   xmlns:cc="http://creativecommons.org/ns#"
   xmlns:rdf="http://www.w3.org/1999/02/22-rdf-syntax-ns#"
   xmlns:svg="http://www.w3.org/2000/svg"
   xmlns="http://www.w3.org/2000/svg"
   xmlns:sodipodi="http://sodipodi.sourceforge.net/DTD/sodipodi-0.dtd"
   xmlns:inkscape="http://www.inkscape.org/namespaces/inkscape"
   version="1.1"
   viewBox="0 0 460.00001 459.99961"
   stroke-miterlimit="10"
   id="svg2"
   inkscape:version="0.91 r13725"
   sodipodi:docname="03_crossing.svg"
   width="460"
   height="459.9996"
   style="fill:none;stroke:none;stroke-linecap:square;stroke-miterlimit:10"
   inkscape:export-filename="/home/xia0ben/INRIA/Code/s-namo-sim/data/worlds/s-namo_cases/03_crossing/03_crossing.svg.png"
   inkscape:export-xdpi="600"
   inkscape:export-ydpi="600">
  <metadata
     id="metadata77">
    <rdf:RDF>
      <cc:Work
         rdf:about="">
        <dc:format>image/svg+xml</dc:format>
        <dc:type
           rdf:resource="http://purl.org/dc/dcmitype/StillImage" />
        <dc:title />
      </cc:Work>
    </rdf:RDF>
  </metadata>
  <defs
     id="defs75" />
  <sodipodi:namedview
     pagecolor="#ffffff"
     bordercolor="#666666"
     borderopacity="1"
     objecttolerance="10"
     gridtolerance="10"
     guidetolerance="10"
     inkscape:pageopacity="0"
     inkscape:pageshadow="2"
     inkscape:window-width="640"
     inkscape:window-height="480"
     id="namedview73"
     showgrid="false"
     inkscape:zoom="1"
     inkscape:cx="104.02447"
     inkscape:cy="171.01532"
     inkscape:current-layer="svg2"
     fit-margin-top="0"
     fit-margin-left="0"
     fit-margin-right="0"
     fit-margin-bottom="0"
     inkscape:snap-object-midpoints="true"
     inkscape:snap-bbox="true"
     inkscape:bbox-paths="true"
     inkscape:bbox-nodes="true"
     inkscape:snap-bbox-edge-midpoints="true"
     inkscape:snap-bbox-midpoints="true"
     inkscape:snap-center="true"
     inkscape:object-paths="true"
     inkscape:snap-intersection-paths="true"
     inkscape:object-nodes="true"
     inkscape:snap-smooth-nodes="true"
     inkscape:snap-midpoints="true"
     inkscape:snap-global="true"
     inkscape:snap-page="true">
    <inkscape:grid
       type="xygrid"
       id="grid4288"
       enabled="true"
       visible="true"
       snapvisiblegridlinesonly="true"
       color="#000000"
       opacity="0.21568627"
       empcolor="#000000"
       empopacity="0.51764706"
       dotted="false"
       originx="10"
       originy="9.9999947" />
  </sodipodi:namedview>
  <path
     d="m 180.73354,219.08037 20.50024,-0.0212 0.0212,20.4873 -20.50024,0.0212 z"
     id="movable_box"
     inkscape:connector-curvature="0"
     style="fill:#f1c232;fill-rule:evenodd"
     inkscape:label="#path63" />
  <path
     d="m 382.50143,229.95807 0,0 c 0,-4.21567 3.41748,-7.63315 7.63313,-7.63315 l 0,0 c 2.02444,0 3.96597,0.80422 5.39745,2.23569 1.43151,1.4315 2.2357,3.37303 2.2357,5.39746 l 0,0 c 0,4.21564 -3.41747,7.63312 -7.63315,7.63312 l 0,0 c -4.21565,0 -7.63313,-3.41748 -7.63313,-7.63312 z"
     id="goal_01"
     inkscape:connector-curvature="0"
     style="fill:none;fill-rule:evenodd;stroke:#1155cc;stroke-opacity:1;stroke-width:3.6;stroke-miterlimit:10;stroke-dasharray:none"
     inkscape:label="#path69" />
  <path
     style="fill:none;stroke:#1155cc;stroke-width:3.6;stroke-linecap:butt;stroke-linejoin:miter;stroke-opacity:1;stroke-miterlimit:10;stroke-dasharray:none"
     d="m 388.87818,230.30271 8.9851,0"
     id="goal_01_dir"
     inkscape:connector-curvature="0"
     sodipodi:nodetypes="cc"
     inkscape:label="#path4217" />
  <path
     sodipodi:type="star"
     style="fill:#6d9eeb;fill-opacity:1;stroke:none;stroke-linecap:square;stroke-miterlimit:10;stroke-opacity:1"
     id="robot_01"
     sodipodi:sides="16"
     sodipodi:cx="142.42783"
     sodipodi:cy="229.18339"
     sodipodi:r1="7.7083278"
     sodipodi:r2="7.560214"
     sodipodi:arg1="-0.10272987"
     sodipodi:arg2="0.093619673"
     inkscape:flatsided="true"
     inkscape:rounded="0"
     inkscape:randomized="0"
     d="m 150.09551,228.39291 -0.28116,2.99447 -1.40569,2.65893 -2.31623,1.9186 -2.87412,0.88617 -2.99447,-0.28116 -2.65893,-1.40569 -1.9186,-2.31623 -0.88617,-2.87412 0.28116,-2.99447 1.40569,-2.65893 2.31623,-1.9186 2.87412,-0.88617 2.99447,0.28116 2.65893,1.40569 1.9186,2.31623 z"
     inkscape:label="#path4172" />
  <path
     style="fill:none;stroke:#1155cc;stroke-width:3.6;stroke-linecap:butt;stroke-linejoin:miter;stroke-miterlimit:10;stroke-opacity:1;stroke-dasharray:none"
     d="m 141.48442,229.2939 8.4226,0"
     id="robot_01_dir"
     inkscape:connector-curvature="0"
     sodipodi:nodetypes="cc"
     inkscape:label="#path4217" />
  <path
     sodipodi:type="star"
     style="fill:none;fill-opacity:1;stroke:#1155cc;stroke-linecap:square;stroke-miterlimit:10;stroke-opacity:1;stroke-width:3.6;stroke-dasharray:none"
     id="goal_02"
     sodipodi:sides="16"
     sodipodi:cx="231.32442"
     sodipodi:cy="68.869048"
     sodipodi:r1="7.7083278"
     sodipodi:r2="7.560214"
     sodipodi:arg1="-0.10272987"
     sodipodi:arg2="0.093619673"
     inkscape:flatsided="true"
     inkscape:rounded="0"
     inkscape:randomized="0"
     d="m 238.99211,68.078566 -0.28117,2.994469 -1.40569,2.658933 -2.31622,1.918597 -2.87413,0.886173 -2.99447,-0.281163 -2.65893,-1.405695 -1.9186,-2.316222 -0.88617,-2.874126 0.28116,-2.994469 1.4057,-2.658933 2.31622,-1.918597 2.87412,-0.886173 2.99447,0.281163 2.65894,1.405695 1.91859,2.316222 z"
     inkscape:label="#path4172" />
  <path
     sodipodi:type="star"
     style="fill:none;fill-opacity:1;stroke:#1155cc;stroke-linecap:square;stroke-miterlimit:10;stroke-opacity:1;stroke-width:3.6;stroke-dasharray:none"
     id="goal_04"
     sodipodi:sides="16"
     sodipodi:cx="229.9102"
     sodipodi:cy="388.48132"
     sodipodi:r1="7.7083278"
     sodipodi:r2="7.560214"
     sodipodi:arg1="-0.10272987"
     sodipodi:arg2="0.093619673"
     inkscape:flatsided="true"
     inkscape:rounded="0"
     inkscape:randomized="0"
     d="m 237.57789,387.69084 -0.28116,2.99447 -1.4057,2.65893 -2.31622,1.9186 -2.87412,0.88617 -2.99447,-0.28116 -2.65894,-1.4057 -1.91859,-2.31622 -0.88618,-2.87412 0.28117,-2.99447 1.40569,-2.65894 2.31622,-1.91859 2.87413,-0.88618 2.99447,0.28117 2.65893,1.40569 1.9186,2.31622 z"
     inkscape:label="#path4172" />
  <path
     sodipodi:type="star"
     style="fill:none;fill-opacity:1;stroke:#1155cc;stroke-linecap:square;stroke-miterlimit:10;stroke-opacity:1;stroke-width:3.6;stroke-dasharray:none"
     id="goal_03"
     sodipodi:sides="16"
     sodipodi:cx="73.639606"
     sodipodi:cy="230.08937"
     sodipodi:r1="7.7083278"
     sodipodi:r2="7.560214"
     sodipodi:arg1="-0.10272987"
     sodipodi:arg2="0.093619673"
     inkscape:flatsided="true"
     inkscape:rounded="0"
     inkscape:randomized="0"
     d="m 81.307292,229.29889 -0.281164,2.99447 -1.405694,2.65893 -2.316222,1.9186 -2.874126,0.88617 -2.994469,-0.28116 -2.658933,-1.4057 -1.918597,-2.31622 -0.886173,-2.87413 0.281163,-2.99447 1.405695,-2.65893 2.316222,-1.9186 2.874125,-0.88617 2.99447,0.28116 2.658932,1.4057 1.918598,2.31622 z"
     inkscape:label="#path4172" />
  <path
     style="fill:none;stroke:#1155cc;stroke-width:3.6;stroke-linecap:butt;stroke-linejoin:miter;stroke-miterlimit:10;stroke-opacity:1;stroke-dasharray:none"
     d="m 72.96438,230.01833 -7.14135,0"
     id="goal_03_dir"
     inkscape:connector-curvature="0"
     sodipodi:nodetypes="cc"
     inkscape:label="#path4217" />
  <path
     style="fill:none;stroke:#1155cc;stroke-width:3.6;stroke-linecap:butt;stroke-linejoin:miter;stroke-miterlimit:10;stroke-opacity:1;stroke-dasharray:none"
     d="m 231.56706,68.760491 0,-7.766351"
     id="goal_02_dir"
     inkscape:connector-curvature="0"
     sodipodi:nodetypes="cc"
     inkscape:label="#path4217" />
  <path
     style="fill:none;stroke:#1155cc;stroke-width:3.6;stroke-linecap:butt;stroke-linejoin:miter;stroke-miterlimit:10;stroke-opacity:1;stroke-dasharray:none"
     d="m 229.75951,389.39658 0,6.9851"
     id="goal_04_dir"
     inkscape:connector-curvature="0"
     sodipodi:nodetypes="cc"
     inkscape:label="#path4217" />
  <path
     style="fill:#000000;fill-opacity:1;stroke:none;stroke-width:1px;stroke-linecap:butt;stroke-linejoin:miter;stroke-opacity:1"
     d="m 245,119.99961 0,85 10,10 85,0 0,-10 -80,0 -5,-5 L 254.999,120 Z"
     id="wall_top_right"
     inkscape:connector-curvature="0"
     sodipodi:nodetypes="ccccccccc"
     inkscape:label="#path4352" />
  <path
     style="fill:#000000;fill-opacity:1;stroke:none;stroke-width:1px;stroke-linecap:butt;stroke-linejoin:miter;stroke-opacity:1"
     d="m 215,129.99961 0,75 -10,10 -85,0 0,-10 80,0 5,-5 0,-80 10,0"
     id="wall_top_left"
     inkscape:connector-curvature="0"
     sodipodi:nodetypes="ccccccccc"
     inkscape:label="#path4354" />
  <path
     style="fill:#000000;fill-opacity:1;stroke:none;stroke-width:1px;stroke-linecap:butt;stroke-linejoin:miter;stroke-opacity:1"
     d="m 120,244.99961 85,0 10,10 0,85 -10,0 0,-80 -5,-5 -80,0 z"
     id="wall_bottom_left"
     inkscape:connector-curvature="0"
     sodipodi:nodetypes="ccccccccc"
     inkscape:label="#path4391" />
  <path
     style="fill:#000000;fill-opacity:1;stroke:none;stroke-width:1px;stroke-linecap:butt;stroke-linejoin:miter;stroke-opacity:1"
     d="m 255,339.99961 -10,0 0,-85 10,-10 85,0 0,10 -80,0 -5,5 z"
     id="wall_bottom_right"
     inkscape:connector-curvature="0"
     sodipodi:nodetypes="ccccccccc"
     inkscape:label="#path4395" />
  <path
     style="fill:#000000;fill-opacity:1;stroke:none;stroke-width:1px;stroke-linecap:butt;stroke-linejoin:miter;stroke-opacity:1"
     d="m 204.99866,120 0,10 -75,0 0,-130 200,0 0,130 -75,0 0,-10 65,0 0,-110.0000005 -180,0 0,110.0000005 z"
     id="wall_top"
     inkscape:connector-curvature="0"
     inkscape:label="#path4399" />
  <path
     style="fill:#000000;fill-opacity:1;stroke:none;stroke-width:1px;stroke-linecap:butt;stroke-linejoin:miter;stroke-miterlimit:10;stroke-opacity:1"
     d="m 120,254.99961 10,0 0,75 -130,0 0,-200.00001 130,0 0,75.00001 -10,0 0,-65 -110,0 0,180 110,0 z"
     id="wall_left"
     inkscape:connector-curvature="0"
     inkscape:label="#path4399-3" />
  <path
     style="fill:#000000;fill-opacity:1;stroke:none;stroke-width:1px;stroke-linecap:butt;stroke-linejoin:miter;stroke-miterlimit:10;stroke-opacity:1"
     d="m 255,339.99961 0,-10 75,0 0,129.99999 -200.00002,0 0,-129.99999 75.00002,0 0,10 -65.00001,0 0,109.99999 180.00001,0 0,-109.99999 z"
     id="wall_bottom"
     inkscape:connector-curvature="0"
     inkscape:label="#path4399-3-6" />
  <path
     style="fill:#000000;fill-opacity:1;stroke:none;stroke-width:1px;stroke-linecap:butt;stroke-linejoin:miter;stroke-miterlimit:10;stroke-opacity:1"
     d="m 340.00002,204.9996 -10,0 0,-74.99999 129.99998,0 0,200.00001 -129.99998,0 0,-75.00002 10,0 0,65.00002 109.99998,0 0,-180.00001 -109.99998,0 z"
     id="wall_right"
     inkscape:connector-curvature="0"
     inkscape:label="#path4399-3-6-0" />
  <path
     style="opacity:0.98999999;fill:#000000;fill-opacity:1;stroke:none;stroke-width:3.5999999;stroke-miterlimit:10;stroke-dasharray:none;stroke-opacity:1"
     d="m 0.59149998,0.5914982 128.81700002,0 0,128.8166018 -128.81700002,0 z"
     id="filler_01" />
  <path
     style="opacity:0.98999999;fill:#000000;fill-opacity:1;stroke:none;stroke-width:3.5999999;stroke-linecap:square;stroke-miterlimit:10;stroke-dasharray:none;stroke-opacity:1"
     d="m 330.59149,0.5914982 128.817,0 0,128.8166018 -128.817,0 z"
     id="filler_02" />
  <path
     style="opacity:0.98999999;fill:#000000;fill-opacity:1;stroke:none;stroke-width:3.5999999;stroke-linecap:square;stroke-miterlimit:10;stroke-dasharray:none;stroke-opacity:1"
     d="m 330.59149,330.59131 128.817,0 0,128.8166 -128.817,0 z"
     id="filler_04" />
  <path
     style="opacity:0.98999999;fill:#000000;fill-opacity:1;stroke:none;stroke-width:3.5999999;stroke-linecap:square;stroke-miterlimit:10;stroke-dasharray:none;stroke-opacity:1"
     d="m 0.59148002,330.59131 128.81699998,0 0,128.8166 -128.81699998,0 z"
     id="filler_03" />
  <path
     style="opacity:0.98999999;fill:#000000;fill-opacity:1;stroke:none;stroke-width:1px;stroke-linecap:butt;stroke-linejoin:miter;stroke-opacity:1"
     d="m 130.33991,130.34125 0.001,74.31711 69.363,0 4.9545,-4.9545 -0.001,-69.36261 z"
     id="filler_05"
     inkscape:connector-curvature="0"
     inkscape:label="#path4201" />
  <path
     style="opacity:0.98999999;fill:#000000;fill-opacity:1;stroke:none;stroke-width:1px;stroke-linecap:butt;stroke-linejoin:miter;stroke-opacity:1"
     d="m 255.34038,130.34125 8.7e-4,69.36261 4.9545,4.9545 69.36302,-10e-6 0,-74.31749 z"
     id="filler_06"
     inkscape:connector-curvature="0"
     inkscape:label="#path4203" />
  <path
     style="opacity:0.98999999;fill:#000000;fill-opacity:1;stroke:none;stroke-width:1px;stroke-linecap:butt;stroke-linejoin:miter;stroke-opacity:1"
     d="m 260.29575,255.34086 69.36302,0 -2e-5,74.3175 -74.3175,0 0,-69.363 z"
     id="filler_08"
     inkscape:connector-curvature="0"
     inkscape:label="#path4205" />
  <path
     style="opacity:0.98999999;fill:#000000;fill-opacity:1;stroke:none;stroke-width:1px;stroke-linecap:butt;stroke-linejoin:miter;stroke-opacity:1"
     d="m 199.70425,255.34086 4.9545,4.9545 0,69.363 -74.31752,0 2e-5,-74.3175 z"
     id="filler_07"
     inkscape:connector-curvature="0"
     inkscape:label="#path4207" />
</svg>
