<?xml version="1.0" encoding="UTF-8" standalone="no"?>
<svg
   xmlns:dc="http://purl.org/dc/elements/1.1/"
   xmlns:cc="http://creativecommons.org/ns#"
   xmlns:rdf="http://www.w3.org/1999/02/22-rdf-syntax-ns#"
   xmlns:svg="http://www.w3.org/2000/svg"
   xmlns="http://www.w3.org/2000/svg"
   xmlns:sodipodi="http://sodipodi.sourceforge.net/DTD/sodipodi-0.dtd"
   xmlns:inkscape="http://www.inkscape.org/namespaces/inkscape"
   version="1.1"
   viewBox="0 0 185.77695 961.13813"
   stroke-miterlimit="10"
   id="svg2"
   inkscape:version="0.92.5 (0.92.5+68)"
   sodipodi:docname="common_elements.svg"
   width="185.77696cm"
   height="961.13812cm"
   style="fill:none;stroke:none;stroke-linecap:square;stroke-miterlimit:10"
   inkscape:export-filename="/home/xia0ben/INRIA/Code/s-namo-sim/data/worlds/s-namo_cases/04_after_the_feast/04_after_the_feast.svg.png"
   inkscape:export-xdpi="600"
   inkscape:export-ydpi="600">
  <metadata
     id="metadata99">
    <rdf:RDF>
      <cc:Work
         rdf:about="">
        <dc:format>image/svg+xml</dc:format>
        <dc:type
           rdf:resource="http://purl.org/dc/dcmitype/StillImage" />
        <dc:title></dc:title>
      </cc:Work>
    </rdf:RDF>
  </metadata>
  <defs
     id="defs97" />
  <sodipodi:namedview
     pagecolor="#ffffff"
     bordercolor="#666666"
     borderopacity="1"
     objecttolerance="10"
     gridtolerance="10"
     guidetolerance="10"
     inkscape:pageopacity="0"
     inkscape:pageshadow="2"
     inkscape:window-width="640"
     inkscape:window-height="480"
     id="namedview95"
     showgrid="false"
     inkscape:zoom="0.088388348"
     inkscape:cx="1000.6467"
     inkscape:cy="11327.556"
     inkscape:current-layer="svg2"
     fit-margin-top="0"
     fit-margin-left="0"
     fit-margin-right="0"
     fit-margin-bottom="0"
     inkscape:document-units="cm"
     units="cm" />
  <path
     style="fill:#f1c232;fill-rule:evenodd;stroke-width:2.87553835"
     inkscape:connector-curvature="0"
     id="square_box"
     d="m 118.35588,656.32063 h 58.5888 v 58.52879 h -58.5888 z" />
  <path
     inkscape:label="#path93"
     style="fill:#000000;fill-rule:evenodd;stroke-width:2.87553835"
     inkscape:connector-curvature="0"
     id="pillar"
     d="m 92.230437,165.40516 h 84.914683 v 84.91471 H 92.230437 Z" />
  <path
     inkscape:label="#path3336-6-5"
     sodipodi:nodetypes="ccccc"
     inkscape:connector-curvature="0"
     id="thin_wall"
     d="M 0,961.13812 H 16.063704 V 0 H 0 Z"
     style="fill:#000000;fill-opacity:1;stroke:none;stroke-width:2.87553835px;stroke-linecap:butt;stroke-linejoin:miter;stroke-opacity:1" />
  <g
     id="base_circular_like_robot">
    <path
       style="fill:#6d9eeb;fill-opacity:1;stroke:none;stroke-width:0;stroke-linecap:square;stroke-miterlimit:10;stroke-opacity:1"
       id="base_circular_like_robot_shape"
       d="m 140.39307,320.29538 c 0,0 10.59093,0.99442 10.59093,0.99442 0,0 9.40419,4.97172 9.40419,4.97172 0,0 6.78576,8.19207 6.78576,8.19207 0,0 3.13425,10.16529 3.13425,10.16529 0,0 -0.99442,10.59092 -0.99442,10.59092 0,0 -4.97172,9.40419 -4.97172,9.40419 0,0 -8.19207,6.78576 -8.19207,6.78576 0,0 -10.16529,3.13425 -10.16529,3.13425 0,0 -10.59092,-0.99442 -10.59092,-0.99442 0,0 -9.40419,-4.97172 -9.40419,-4.97172 0,0 -6.78576,-8.19207 -6.78576,-8.19207 0,0 -3.13425,-10.16529 -3.13425,-10.16529 0,0 0.99442,-10.59092 0.99442,-10.59092 0,0 4.97172,-9.40419 4.97172,-9.40419 0,0 8.19207,-6.78576 8.19207,-6.78576 0,0 10.16528,-3.13425 10.16528,-3.13425"
       inkscape:connector-curvature="0" />
    <path
       style="fill:none;stroke:#1155cc;stroke-width:10.35194016;stroke-linecap:butt;stroke-linejoin:miter;stroke-miterlimit:10;stroke-dasharray:none;stroke-opacity:1"
       d="m 142.85538,347.54174 h 25.34279"
       id="base_circular_like_robot_direction"
       inkscape:connector-curvature="0"
       sodipodi:nodetypes="cc"
       inkscape:label="#path4217" />
  </g>
  <path
     d="m 173.03951,525.3382 v 0 l 12.73745,12.73746 v 50.9483 0 l -12.73745,12.73748 h -50.94833 l -12.73742,-12.73748 v -50.9483 l 12.73742,-12.73746 h 50.94833"
     id="octogonal_table"
     style="fill:#000000;fill-rule:evenodd;stroke:none;stroke-width:2.87553835;stroke-linecap:square;stroke-miterlimit:10"
     inkscape:connector-curvature="0"
     sodipodi:nodetypes="ccccccccccc" />
  <g
     id="base_circular_like_robot_goal">
    <path
       inkscape:connector-curvature="0"
       style="fill:none;stroke:#1155cc;stroke-width:10.35194016;stroke-linecap:butt;stroke-linejoin:miter;stroke-miterlimit:10;stroke-dasharray:none;stroke-opacity:1"
       id="base_circular_like_robot_goal_shape"
       d="m 141.44288,424.59376 c 0,0 10.59093,0.99442 10.59093,0.99442 0,0 9.40419,4.97172 9.40419,4.97172 0,0 6.78576,8.19207 6.78576,8.19207 0,0 3.13425,10.16529 3.13425,10.16529 0,0 -0.99442,10.59092 -0.99442,10.59092 0,0 -4.97172,9.40419 -4.97172,9.40419 0,0 -8.19207,6.78576 -8.19207,6.78576 0,0 -10.16529,3.13425 -10.16529,3.13425 0,0 -10.59092,-0.99442 -10.59092,-0.99442 0,0 -9.40419,-4.97172 -9.40419,-4.97172 0,0 -6.78576,-8.19207 -6.78576,-8.19207 0,0 -3.13425,-10.16529 -3.13425,-10.16529 0,0 0.99442,-10.59092 0.99442,-10.59092 0,0 4.97172,-9.40419 4.97172,-9.40419 0,0 8.19207,-6.78576 8.19207,-6.78576 0,0 10.16528,-3.13425 10.16528,-3.13425" />
    <path
       style="fill:none;stroke:#1155cc;stroke-width:10.35194016;stroke-linecap:butt;stroke-linejoin:miter;stroke-miterlimit:10;stroke-dasharray:none;stroke-opacity:1"
       d="m 145.4019,451.84013 h 25.34279"
       id="base_circular_like_robot_goal_direction"
       inkscape:connector-curvature="0"
       sodipodi:nodetypes="cc"
       inkscape:label="#path4217" />
  </g>
</svg>
