<?xml version="1.0" encoding="UTF-8" standalone="no"?>
<!-- Created with Inkscape (http://www.inkscape.org/) -->

<svg
   xmlns:dc="http://purl.org/dc/elements/1.1/"
   xmlns:cc="http://creativecommons.org/ns#"
   xmlns:rdf="http://www.w3.org/1999/02/22-rdf-syntax-ns#"
   xmlns:svg="http://www.w3.org/2000/svg"
   xmlns="http://www.w3.org/2000/svg"
   xmlns:sodipodi="http://sodipodi.sourceforge.net/DTD/sodipodi-0.dtd"
   xmlns:inkscape="http://www.inkscape.org/namespaces/inkscape"
   id="svg2"
   version="1.1"
   inkscape:version="0.91 r13725"
   xml:space="preserve"
   width="765"
   height="990"
   viewBox="0 0 765 990"
   sodipodi:docname="04_chen_difficult_problem.svg"><defs
     id="defs18" /><metadata
     id="metadata8"><rdf:RDF><cc:Work
         rdf:about=""><dc:format>image/svg+xml</dc:format><dc:type
           rdf:resource="http://purl.org/dc/dcmitype/StillImage" /><dc:title /></cc:Work></rdf:RDF></metadata><sodipodi:namedview
     pagecolor="#ffffff"
     bordercolor="#666666"
     borderopacity="1"
     objecttolerance="10"
     gridtolerance="10"
     guidetolerance="10"
     inkscape:pageopacity="0"
     inkscape:pageshadow="2"
     inkscape:window-width="640"
     inkscape:window-height="480"
     id="namedview4"
     showgrid="false"
     inkscape:zoom="1.3858586"
     inkscape:cx="241.93485"
     inkscape:cy="192.20798"
     inkscape:current-layer="g10" /><g
     id="g10"
     inkscape:groupmode="layer"
     inkscape:label="extracted_NAMO_2D_scenarios"><path
       inkscape:label="#path4178"
       inkscape:connector-curvature="0"
       id="wall_middle_top"
       d="m 62.671317,846.46816 95.079503,0 0,-36.86757 -95.402892,0 z"
       style="fill:#000000;fill-opacity:1;stroke:none;stroke-width:1.12623715px;stroke-linecap:butt;stroke-linejoin:miter;stroke-opacity:1" /><path
       inkscape:label="#path4180"
       inkscape:connector-curvature="0"
       id="wall_ext"
       d="m 3.6849964,750.93452 0,154.06898 141.4532336,0 0,83.43711 166.87423,0 0,-12.2892 -154.58504,0 0,-83.7605 -141.97245,0 0,-129.68325 177.86981,0 0,83.11368 70.82453,0 0,94.7561 47.86315,0 0,-12.61259 -35.25057,0 0,-94.75609 -71.79472,0 0,-82.79027 z"
       style="fill:#000000;fill-opacity:1;stroke:none;stroke-width:1.12623715px;stroke-linecap:butt;stroke-linejoin:miter;stroke-opacity:1" /><path
       inkscape:label="#path4182"
       inkscape:connector-curvature="0"
       id="wall_middle_bottom"
       d="m 192.8907,892.70737 0,47.79372 12.23428,0 0,-47.79372 z"
       style="fill:#000000;fill-opacity:1;stroke:none;stroke-width:1.12623715px;stroke-linecap:butt;stroke-linejoin:miter;stroke-opacity:1" /><path
       inkscape:label="#path4184"
       inkscape:connector-curvature="0"
       id="sofa_01"
       d="m 144.98265,854.86116 0,31.32889 57.74122,0 0,-31.32889 z"
       style="fill:#ffcc00;fill-opacity:1;stroke:none;stroke-width:1.12623715px;stroke-linecap:butt;stroke-linejoin:miter;stroke-opacity:1" /><path
       inkscape:label="#path4190"
       sodipodi:nodetypes="ccccc"
       inkscape:connector-curvature="0"
       id="table_01"
       d="m 216.21587,895.22284 0,74.32039 34.41606,0 0,-74.20605 z"
       style="fill:#ffcc00;fill-opacity:1;stroke:none;stroke-width:1.12623715px;stroke-linecap:butt;stroke-linejoin:miter;stroke-opacity:1" /><path
       inkscape:label="#path4143"
       inkscape:transform-center-y="0.89596958"
       inkscape:transform-center-x="0.024358568"
       d="m 52.596709,872.49333 -2.717848,1.28004 -3.000813,0.14252 -2.826932,-1.01669 -2.222675,-2.02111 -1.280037,-2.71785 -0.142524,-3.00081 1.016686,-2.82693 2.021115,-2.22268 2.717848,-1.28004 3.000813,-0.14252 2.826932,1.01669 2.222675,2.02111 1.280037,2.71785 0.142524,3.00081 -1.016686,2.82693 z"
       inkscape:randomized="0"
       inkscape:rounded="0"
       inkscape:flatsided="true"
       sodipodi:arg2="1.1306377"
       sodipodi:arg1="0.93428811"
       sodipodi:r2="3.8497496"
       sodipodi:r1="7.6994996"
       sodipodi:cy="866.30157"
       sodipodi:cx="48.020195"
       sodipodi:sides="16"
       id="robot_01"
       style="fill:#00ff00;fill-opacity:1;stroke:none;stroke-width:1.12623715;stroke-opacity:1"
       sodipodi:type="star" /><path
       inkscape:label="#path4220"
       inkscape:connector-curvature="0"
       id="robot_01_dir"
       d="m 48.251801,866.29516 0,-7.0891"
       style="fill:#0000ff;stroke:#0000ff;stroke-width:1.79274476px;stroke-linecap:butt;stroke-linejoin:miter;stroke-opacity:1" /><path
       inkscape:label="#path4143"
       inkscape:transform-center-y="0.89589029"
       inkscape:transform-center-x="0.024348187"
       d="m 305.74628,963.54399 -2.71784,1.28003 -3.00082,0.14253 -2.82693,-1.01669 -2.22267,-2.02111 -1.28004,-2.71785 -0.14253,-3.00081 1.01669,-2.82693 2.02112,-2.22268 2.71784,-1.28004 3.00082,-0.14252 2.82693,1.01668 2.22267,2.02112 1.28004,2.71785 0.14252,3.00081 -1.01668,2.82693 z"
       inkscape:randomized="0"
       inkscape:rounded="0"
       inkscape:flatsided="true"
       sodipodi:arg2="1.1306377"
       sodipodi:arg1="0.93428811"
       sodipodi:r2="3.8497496"
       sodipodi:r1="7.6994996"
       sodipodi:cy="957.35226"
       sodipodi:cx="301.16977"
       sodipodi:sides="16"
       id="goal_01"
       style="fill:#ff0000;fill-opacity:1;stroke:none;stroke-width:1.12623715;stroke-opacity:1"
       sodipodi:type="star" /><path
       inkscape:label="#path4222"
       inkscape:connector-curvature="0"
       id="goal_01_dir"
       d="m 300.42656,957.12357 7.43204,0"
       style="fill:none;stroke:#0000ff;stroke-width:1.79274476px;stroke-linecap:butt;stroke-linejoin:miter;stroke-opacity:1" /></g></svg>