<?xml version="1.0" encoding="UTF-8" standalone="no"?>
<svg
   version="1.1"
   viewBox="0 0 910.00003 300"
   stroke-miterlimit="10"
   id="svg2"
   inkscape:version="1.1.2 (0a00cf5339, 2022-02-04)"
   sodipodi:docname="repulsive_dr_fail_a.svg"
   width="910cm"
   height="300cm"
   style="fill:none;stroke:none;stroke-linecap:square;stroke-miterlimit:10"
   inkscape:export-filename="/home/xia0ben/INRIA/Papers/ICRA 2022/fig1/scenario_at_start.png"
   inkscape:export-xdpi="10"
   inkscape:export-ydpi="10"
   xmlns:inkscape="http://www.inkscape.org/namespaces/inkscape"
   xmlns:sodipodi="http://sodipodi.sourceforge.net/DTD/sodipodi-0.dtd"
   xmlns="http://www.w3.org/2000/svg"
   xmlns:svg="http://www.w3.org/2000/svg"
   xmlns:rdf="http://www.w3.org/1999/02/22-rdf-syntax-ns#"
   xmlns:cc="http://creativecommons.org/ns#"
   xmlns:dc="http://purl.org/dc/elements/1.1/">
  <metadata
     id="metadata41">
    <rdf:RDF>
      <cc:Work
         rdf:about="">
        <dc:format>image/svg+xml</dc:format>
        <dc:type
           rdf:resource="http://purl.org/dc/dcmitype/StillImage" />
      </cc:Work>
    </rdf:RDF>
  </metadata>
  <namo_config
     cell_size="10.0">
    <agent
       agent_id="robot_0">
      <goal
         goal_id="goal_0" />
      <behavior
         type="stilman_2005_behavior">
        <parameters
           robot_translation_unit_length="10.0"
           use_social_cost="false"
           manipulation_search_procedure="BFS" />
      </behavior>
    </agent>
    <agent
       agent_id="robot_1">
      <goal
         goal_id="goal_1" />
      <behavior
         type="stilman_2005_behavior">
        <parameters
           robot_translation_unit_length="10.0"
           use_social_cost="false"
           manipulation_search_procedure="BFS" />
      </behavior>
    </agent>
  </namo_config>
  <defs
     id="defs39">
    <inkscape:perspective
       sodipodi:type="inkscape:persp3d"
       inkscape:vp_x="0 : 50.00001 : 1"
       inkscape:vp_y="0 : 1000.0001 : 0"
       inkscape:vp_z="500.00004 : 50.00001 : 1"
       inkscape:persp3d-origin="250.00003 : -33.333322 : 1"
       id="perspective1076" />
  </defs>
  <sodipodi:namedview
     pagecolor="#ffffff"
     bordercolor="#666666"
     borderopacity="1"
     objecttolerance="10"
     gridtolerance="10"
     guidetolerance="10"
     inkscape:pageopacity="0"
     inkscape:pageshadow="2"
     inkscape:window-width="1850"
     inkscape:window-height="1016"
     id="namedview37"
     showgrid="false"
     inkscape:zoom="0.02"
     inkscape:cx="12625"
     inkscape:cy="7025.0001"
     inkscape:current-layer="svg2"
     fit-margin-top="0"
     fit-margin-left="0"
     fit-margin-right="0"
     fit-margin-bottom="0"
     inkscape:document-units="cm"
     units="cm"
     inkscape:snap-page="true"
     inkscape:snap-global="true"
     inkscape:pagecheckerboard="0"
     inkscape:window-x="70"
     inkscape:window-y="27"
     inkscape:window-maximized="1" />
  <g
     id="robot_0">
    <path
       style="fill:#6d9eeb;fill-opacity:1;stroke:none;stroke-width:0;stroke-linecap:square;stroke-miterlimit:10;stroke-opacity:1"
       id="robot_0_shape"
       type="shape"
       d="m 216.15879,123.15642 c 0,0 8.9543,0.84075 8.9543,0.84075 0,0 7.95094,4.20344 7.95094,4.20344 0,0 5.73716,6.92613 5.73716,6.92613 0,0 2.64991,8.59444 2.64991,8.59444 0,0 -0.84075,8.95429 -0.84075,8.95429 0,0 -4.20344,7.95095 -4.20344,7.95095 0,0 -6.92614,5.73714 -6.92614,5.73714 0,0 -8.59443,2.64991 -8.59443,2.64991 0,0 -8.95429,-0.84075 -8.95429,-0.84075 0,0 -7.95095,-4.20343 -7.95095,-4.20343 0,0 -5.73715,-6.92614 -5.73715,-6.92614 0,0 -2.64991,-8.59443 -2.64991,-8.59443 0,0 0.84075,-8.95429 0.84075,-8.95429 0,0 4.20344,-7.95095 4.20344,-7.95095 0,0 6.92614,-5.73715 6.92614,-5.73715 0,0 8.59442,-2.64991 8.59442,-2.64991"
       inkscape:connector-curvature="0" />
    <path
       style="fill:#1155cc;fill-opacity:1;stroke:#1155cc;stroke-width:3;stroke-linecap:butt;stroke-linejoin:miter;stroke-miterlimit:10;stroke-dasharray:none;stroke-opacity:1"
       d="m 218.24059,146.19236 h 21.42655"
       id="robot_0_direction"
       inkscape:connector-curvature="0"
       sodipodi:nodetypes="cc"
       inkscape:label="#path4217"
       type="orientation" />
  </g>
  <g
     id="goal_0">
    <path
       style="fill:none;stroke:#1155cc;stroke-width:8.75221;stroke-linecap:butt;stroke-linejoin:miter;stroke-miterlimit:10;stroke-dasharray:none;stroke-opacity:1"
       id="robot_0_goal_0_shape"
       type="shape"
       d="m 502.78244,170.11324 c 0,0 -8.9543,-0.84075 -8.9543,-0.84075 0,0 -7.95095,-4.2034 -7.95095,-4.2034 0,0 -5.73716,-6.92609 -5.73716,-6.92609 0,0 -2.64991,-8.59437 -2.64991,-8.59437 0,0 0.84075,-8.95423 0.84075,-8.95423 0,0 4.20344,-7.9509 4.20344,-7.9509 0,0 6.92614,-5.73711 6.92614,-5.73711 0,0 8.59444,-2.64989 8.59444,-2.64989 0,0 8.9543,0.84074 8.9543,0.84074 0,0 7.95095,4.20341 7.95095,4.20341 0,0 5.73715,6.92609 5.73715,6.92609 0,0 2.64991,8.59438 2.64991,8.59438 0,0 -0.84075,8.95423 -0.84075,8.95423 0,0 -4.20344,7.95088 -4.20344,7.95088 0,0 -6.92614,5.73712 -6.92614,5.73712 0,0 -8.59443,2.64989 -8.59443,2.64989"
       inkscape:connector-curvature="0" />
    <path
       style="fill:none;stroke:#1155cc;stroke-width:8.75221;stroke-linecap:butt;stroke-linejoin:miter;stroke-miterlimit:10;stroke-dasharray:none;stroke-opacity:1"
       d="M 500.70063,147.07745 H 479.27409"
       id="robot_0_goal_0_direction"
       inkscape:connector-curvature="0"
       sodipodi:nodetypes="cc"
       inkscape:label="#path4217"
       type="orientation" />
  </g>
  <path
     id="wall_left"
     style="fill:#000000;fill-rule:evenodd;stroke:none;stroke-width:0.00622211;stroke-linecap:square;stroke-miterlimit:10"
     d="M 10,0 H 0 v 300 h 10 z"
     type="wall" />
  <path
     id="wall_right"
     style="fill:#000000;fill-rule:evenodd;stroke:none;stroke-width:0.0340799;stroke-linecap:square;stroke-miterlimit:10"
     d="M 610,0 H 910 V 300 H 610 Z"
     type="wall" />
  <path
     id="wall_bottom"
     style="fill:#000000;fill-rule:evenodd;stroke:none;stroke-width:0.0278259;stroke-linecap:square;stroke-miterlimit:10"
     d="M 10,190 H 610 V 290 H 10 Z"
     type="wall" />
  <path
     id="wall_bottom-6"
     style="fill:#000000;fill-rule:evenodd;stroke:none;stroke-width:0.0160653;stroke-linecap:square;stroke-miterlimit:10"
     d="M 410,10 H 610 V 110 H 410 Z"
     type="wall" />
  <path
     id="wall_bottom-6-3"
     style="fill:#000000;fill-rule:evenodd;stroke:none;stroke-width:0.0160653;stroke-linecap:square;stroke-miterlimit:10"
     d="M 10,10 H 210 V 110 H 10 Z"
     type="wall" />
  <g
     id="robot_1">
    <path
       style="fill:#eb6ddd;fill-opacity:1;stroke:none;stroke-width:0;stroke-linecap:square;stroke-miterlimit:10;stroke-opacity:1"
       id="robot_1_shape"
       d="m 401.03027,169.01249 c 0,0 -8.95428,-0.84075 -8.95428,-0.84075 0,0 -7.95094,-4.20343 -7.95094,-4.20343 0,0 -5.73714,-6.92614 -5.73714,-6.92614 0,0 -2.64991,-8.59443 -2.64991,-8.59443 0,0 0.84075,-8.95429 0.84075,-8.95429 0,0 4.20343,-7.95095 4.20343,-7.95095 0,0 6.92613,-5.73715 6.92613,-5.73715 0,0 8.59443,-2.64991 8.59443,-2.64991 0,0 8.95428,0.84075 8.95428,0.84075 0,0 7.95093,4.20344 7.95093,4.20344 0,0 5.73714,6.92613 5.73714,6.92613 0,0 2.64991,8.59444 2.64991,8.59444 0,0 -0.84075,8.95429 -0.84075,8.95429 0,0 -4.20342,7.95094 -4.20342,7.95094 0,0 -6.92614,5.73715 -6.92614,5.73715 0,0 -8.59442,2.64991 -8.59442,2.64991"
       inkscape:connector-curvature="0"
       type="shape" />
    <path
       style="fill:#cc11b2;fill-opacity:1;stroke:#cc11b2;stroke-width:3;stroke-linecap:butt;stroke-linejoin:miter;stroke-miterlimit:10;stroke-dasharray:none;stroke-opacity:1"
       d="M 398.94848,145.97655 H 377.52197"
       id="robot_1_direction"
       inkscape:connector-curvature="0"
       sodipodi:nodetypes="cc"
       inkscape:label="#path4217"
       type="orientation" />
  </g>
  <g
     id="goal_1">
    <path
       style="fill:none;stroke:#cc11b2;stroke-width:8.75224;stroke-linecap:butt;stroke-linejoin:miter;stroke-miterlimit:10;stroke-dasharray:none;stroke-opacity:1"
       id="robot_1_goal_0_shape"
       d="m 95.249194,126.54452 c 0,0 8.954286,0.84075 8.954286,0.84075 0,0 7.95095,4.20344 7.95095,4.20344 0,0 5.73715,6.92612 5.73715,6.92612 0,0 2.64991,8.59444 2.64991,8.59444 0,0 -0.84075,8.95429 -0.84075,8.95429 0,0 -4.20344,7.95094 -4.20344,7.95094 0,0 -6.92613,5.73715 -6.92613,5.73715 0,0 -8.594436,2.64991 -8.594436,2.64991 0,0 -8.95429,-0.84075 -8.95429,-0.84075 0,0 -7.95094,-4.20343 -7.95094,-4.20343 0,0 -5.73715,-6.92614 -5.73715,-6.92614 0,0 -2.64991,-8.59443 -2.64991,-8.59443 0,0 0.84075,-8.95429 0.84075,-8.95429 0,0 4.20343,-7.95095 4.20343,-7.95095 0,0 6.92614,-5.73714 6.92614,-5.73714 0,0 8.59443,-2.64991 8.59443,-2.64991"
       inkscape:connector-curvature="0"
       type="shape" />
    <path
       style="fill:none;stroke:#cc11b2;stroke-width:8.75224;stroke-linecap:butt;stroke-linejoin:miter;stroke-miterlimit:10;stroke-dasharray:none;stroke-opacity:1"
       d="M 97.330994,149.58045 H 118.75752"
       id="robot_1_goal_0_direction"
       inkscape:connector-curvature="0"
       sodipodi:nodetypes="cc"
       inkscape:label="#path4217"
       type="orientation" />
  </g>
  <path
     id="rect1084"
     style="fill:#000000;stroke-width:0.0262427"
     d="M 10,0 H 610 V 10 H 10 Z"
     type="wall" />
  <path
     id="rect2148"
     style="fill:#000000;stroke-width:0.0262427"
     d="m 10,290 h 600 v 10 H 10 Z"
     type="wall" />
</svg>
