<?xml version="1.0" ?><svg height="356.53839" id="svg2" inkscape:export-filename="/home/xia0ben/INRIA/Code/s-namo-sim/data/worlds/s-namo_cases/04_after_the_feast/04_after_the_feast.svg.png" inkscape:export-xdpi="600" inkscape:export-ydpi="600" inkscape:version="0.92.5 (0.92.5+68)" sodipodi:docname="04_after_the_feast_complexified.svg" stroke-miterlimit="10" style="fill:none;stroke:none;stroke-linecap:square;stroke-miterlimit:10" version="1.1" viewBox="0 0 336.48285 334.25473" width="358.91504" xmlns="http://www.w3.org/2000/svg" xmlns:cc="http://creativecommons.org/ns#" xmlns:dc="http://purl.org/dc/elements/1.1/" xmlns:inkscape="http://www.inkscape.org/namespaces/inkscape" xmlns:rdf="http://www.w3.org/1999/02/22-rdf-syntax-ns#" xmlns:sodipodi="http://sodipodi.sourceforge.net/DTD/sodipodi-0.dtd" xmlns:svg="http://www.w3.org/2000/svg">
  <metadata id="metadata99">
    <rdf:RDF>
      <cc:Work rdf:about="">
        <dc:format>image/svg+xml</dc:format>
        <dc:type rdf:resource="http://purl.org/dc/dcmitype/StillImage"/>
        <dc:title/>
      </cc:Work>
    </rdf:RDF>
  </metadata>
  <defs id="defs97"/>
  <sodipodi:namedview bordercolor="#666666" borderopacity="1" fit-margin-bottom="0" fit-margin-left="0" fit-margin-right="0" fit-margin-top="0" gridtolerance="10" guidetolerance="10" id="namedview95" inkscape:current-layer="svg2" inkscape:cx="164.6129" inkscape:cy="151.58131" inkscape:pageopacity="0" inkscape:pageshadow="2" inkscape:window-height="480" inkscape:window-width="640" inkscape:zoom="2.0000001" objecttolerance="10" pagecolor="#ffffff" showgrid="false"/>
  <path d="M 66.799582,69.975113 L 66.799582,69.975113 L 66.799582,67.528715 L 68.782786,65.54552 L 71.229175,65.54552 L 88.947016,65.54552 L 88.947016,65.54552 L 90.121813,65.54552 L 91.248483,66.012215 L 92.079201,66.842924 L 92.909901,67.673624 L 93.376587,68.800307 L 93.376587,69.975113 L 93.376587,87.692936 L 93.376587,90.139343 L 91.39341,92.122529 L 88.947016,92.122529 L 71.229175,92.122529 L 68.782786,92.122529 L 66.799582,90.139343 L 66.799582,87.692936 L 66.799582,69.975113 L 66.799582,69.975113 z" id="table_01" style="fill:#000000;fill-rule:evenodd"/>
  <path d="M 125.55965,69.975113 L 125.55965,69.975113 L 125.55965,67.528715 L 127.54285,65.54552 L 129.98923,65.54552 L 147.70705,65.54552 L 147.70705,65.54552 L 148.88187,65.54552 L 150.00855,66.012215 L 150.83926,66.842924 L 151.66996,67.673624 L 152.13665,68.800307 L 152.13665,69.975113 L 152.13665,87.692936 L 152.13665,90.139343 L 150.15346,92.122529 L 147.70705,92.122529 L 129.98923,92.122529 L 127.54285,92.122529 L 125.55965,90.139343 L 125.55965,87.692936 L 125.55965,69.975113 L 125.55965,69.975113 z" id="table_02" style="fill:#000000;fill-rule:evenodd"/>
  <path d="M 184.3197,69.975113 L 184.3197,69.975113 L 184.3197,67.528715 L 186.30288,65.54552 L 188.74927,65.54552 L 206.46713,65.54552 L 206.46713,65.54552 L 207.64191,65.54552 L 208.7686,66.012215 L 209.59929,66.842924 L 210.42999,67.673624 L 210.89668,68.800307 L 210.89668,69.975113 L 210.89668,87.692936 L 210.89668,90.139343 L 208.9135,92.122529 L 206.46713,92.122529 L 188.74927,92.122529 L 186.30288,92.122529 L 184.3197,90.139343 L 184.3197,87.692936 L 184.3197,69.975113 L 184.3197,69.975113 z" id="table_03" style="fill:#000000;fill-rule:evenodd"/>
  <path d="M 243.07976,69.975113 L 243.07976,69.975113 L 243.07976,67.528715 L 245.06295,65.54552 L 247.50936,65.54552 L 265.22716,65.54552 L 265.22716,65.54552 L 266.40197,65.54552 L 267.52866,66.012215 L 268.35936,66.842924 L 269.19006,67.673624 L 269.65675,68.800307 L 269.65675,69.975113 L 269.65675,87.692936 L 269.65675,90.139343 L 267.67356,92.122529 L 265.22716,92.122529 L 247.50936,92.122529 L 245.06295,92.122529 L 243.07976,90.139343 L 243.07976,87.692936 L 243.07976,69.975113 L 243.07976,69.975113 z" id="table_04" style="fill:#000000;fill-rule:evenodd"/>
  <path d="M 88.956839,124.30547 L 88.956839,124.30547 L 91.403233,124.30547 L 93.386437,126.28866 L 93.386437,128.73505 L 93.386437,146.45287 L 93.386437,146.45287 L 93.386437,147.62768 L 92.919751,148.75437 L 92.089051,149.58507 L 91.258333,150.41577 L 90.131654,150.88246 L 88.956839,150.88246 L 71.239025,150.88246 L 68.792627,150.88246 L 66.809432,148.89927 L 66.809432,146.45287 L 66.809432,128.73505 L 66.809432,126.28866 L 68.792627,124.30547 L 71.239025,124.30547 L 88.956839,124.30547 L 88.956839,124.30547 z" id="table_05" style="fill:#000000;fill-rule:evenodd"/>
  <path d="M 147.7169,124.30547 L 147.7169,124.30547 L 150.16329,124.30547 L 152.14649,126.28866 L 152.14649,128.73505 L 152.14649,146.45287 L 152.14649,146.45287 L 152.14649,147.62768 L 151.6798,148.75437 L 150.8491,149.58507 L 150.01839,150.41577 L 148.89169,150.88246 L 147.7169,150.88246 L 129.99907,150.88246 L 127.55269,150.88246 L 125.56949,148.89927 L 125.56949,146.45287 L 125.56949,128.73505 L 125.56949,126.28866 L 127.55269,124.30547 L 129.99907,124.30547 L 147.7169,124.30547 L 147.7169,124.30547 z" id="table_06" style="fill:#000000;fill-rule:evenodd"/>
  <path d="M 206.47696,124.30547 L 206.47696,124.30547 L 208.92334,124.30547 L 210.90655,126.28866 L 210.90655,128.73505 L 210.90655,146.45287 L 210.90655,146.45287 L 210.90655,147.62768 L 210.43986,148.75437 L 209.60916,149.58507 L 208.77843,150.41577 L 207.65177,150.88246 L 206.47696,150.88246 L 188.75912,150.88246 L 186.31273,150.88246 L 184.32955,148.89927 L 184.32955,146.45287 L 184.32955,128.73505 L 184.32955,126.28866 L 186.31273,124.30547 L 188.75912,124.30547 L 206.47696,124.30547 L 206.47696,124.30547 z" id="table_07" style="fill:#000000;fill-rule:evenodd"/>
  <path d="M 265.23702,124.30547 L 265.23702,124.30547 L 267.6834,124.30547 L 269.66662,126.28866 L 269.66662,128.73505 L 269.66662,146.45287 L 269.66662,146.45287 L 269.66662,147.62768 L 269.19993,148.75437 L 268.3692,149.58507 L 267.53849,150.41577 L 266.4118,150.88246 L 265.23702,150.88246 L 247.51919,150.88246 L 245.0728,150.88246 L 243.08959,148.89927 L 243.08959,146.45287 L 243.08959,128.73505 L 243.08959,126.28866 L 245.0728,124.30547 L 247.51919,124.30547 L 265.23702,124.30547 L 265.23702,124.30547 z" id="table_08" style="fill:#000000;fill-rule:evenodd"/>
  <path d="M 88.956839,183.0654 L 88.956839,183.0654 L 91.403233,183.0654 L 93.386437,185.0486 L 93.386437,187.49499 L 93.386437,205.21281 L 93.386437,205.21281 L 93.386437,206.38762 L 92.919751,207.51431 L 92.089051,208.34501 L 91.258333,209.17571 L 90.131654,209.6424 L 88.956839,209.6424 L 71.239025,209.6424 L 68.792627,209.6424 L 66.809432,207.65921 L 66.809432,205.21281 L 66.809432,187.49499 L 66.809432,185.0486 L 68.792627,183.0654 L 71.239025,183.0654 L 88.956839,183.0654 L 88.956839,183.0654 z" id="table_09" style="fill:#000000;fill-rule:evenodd"/>
  <path d="M 147.7169,183.0654 L 147.7169,183.0654 L 150.16329,183.0654 L 152.14649,185.0486 L 152.14649,187.49499 L 152.14649,205.21281 L 152.14649,205.21281 L 152.14649,206.38762 L 151.6798,207.51431 L 150.8491,208.34501 L 150.01839,209.17571 L 148.89169,209.6424 L 147.7169,209.6424 L 129.99907,209.6424 L 127.55269,209.6424 L 125.56949,207.65921 L 125.56949,205.21281 L 125.56949,187.49499 L 125.56949,185.0486 L 127.55269,183.0654 L 129.99907,183.0654 L 147.7169,183.0654 L 147.7169,183.0654 z" id="table_10" style="fill:#000000;fill-rule:evenodd"/>
  <path d="M 206.47696,183.0654 L 206.47696,183.0654 L 208.92334,183.0654 L 210.90655,185.0486 L 210.90655,187.49499 L 210.90655,205.21281 L 210.90655,205.21281 L 210.90655,206.38762 L 210.43986,207.51431 L 209.60916,208.34501 L 208.77843,209.17571 L 207.65177,209.6424 L 206.47696,209.6424 L 188.75912,209.6424 L 186.31273,209.6424 L 184.32955,207.65921 L 184.32955,205.21281 L 184.32955,187.49499 L 184.32955,185.0486 L 186.31273,183.0654 L 188.75912,183.0654 L 206.47696,183.0654 L 206.47696,183.0654 z" id="table_11" style="fill:#000000;fill-rule:evenodd"/>
  <path d="M 265.23702,183.0654 L 265.23702,183.0654 L 267.6834,183.0654 L 269.66662,185.0486 L 269.66662,187.49499 L 269.66662,205.21281 L 269.66662,205.21281 L 269.66662,206.38762 L 269.19993,207.51431 L 268.3692,208.34501 L 267.53849,209.17571 L 266.4118,209.6424 L 265.23702,209.6424 L 247.51919,209.6424 L 245.0728,209.6424 L 243.08959,207.65921 L 243.08959,205.21281 L 243.08959,187.49499 L 243.08959,185.0486 L 245.0728,183.0654 L 247.51919,183.0654 L 265.23702,183.0654 L 265.23702,183.0654 z" id="table_12" style="fill:#000000;fill-rule:evenodd"/>
  <path d="M 88.956839,241.82534 L 88.956839,241.82534 L 91.403233,241.82534 L 93.386437,243.80853 L 93.386437,246.25493 L 93.386437,263.97276 L 93.386437,263.97276 L 93.386437,265.14756 L 92.919751,266.27424 L 92.089051,267.10495 L 91.258333,267.93565 L 90.131654,268.40234 L 88.956839,268.40234 L 71.239025,268.40234 L 68.792627,268.40234 L 66.809432,266.41916 L 66.809432,263.97276 L 66.809432,246.25493 L 66.809432,243.80853 L 68.792627,241.82534 L 71.239025,241.82534 L 88.956839,241.82534 L 88.956839,241.82534 z" id="table_13" style="fill:#000000;fill-rule:evenodd"/>
  <path d="M 147.7169,241.82534 L 147.7169,241.82534 L 150.16329,241.82534 L 152.14649,243.80853 L 152.14649,246.25493 L 152.14649,263.97276 L 152.14649,263.97276 L 152.14649,265.14756 L 151.6798,266.27424 L 150.8491,267.10495 L 150.01839,267.93565 L 148.89169,268.40234 L 147.7169,268.40234 L 129.99907,268.40234 L 127.55269,268.40234 L 125.56949,266.41916 L 125.56949,263.97276 L 125.56949,246.25493 L 125.56949,243.80853 L 127.55269,241.82534 L 129.99907,241.82534 L 147.7169,241.82534 L 147.7169,241.82534 z" id="table_14" style="fill:#000000;fill-rule:evenodd"/>
  <path d="M 206.47696,241.82534 L 206.47696,241.82534 L 208.92334,241.82534 L 210.90655,243.80853 L 210.90655,246.25493 L 210.90655,263.97276 L 210.90655,263.97276 L 210.90655,265.14756 L 210.43986,266.27424 L 209.60916,267.10495 L 208.77843,267.93565 L 207.65177,268.40234 L 206.47696,268.40234 L 188.75912,268.40234 L 186.31273,268.40234 L 184.32955,266.41916 L 184.32955,263.97276 L 184.32955,246.25493 L 184.32955,243.80853 L 186.31273,241.82534 L 188.75912,241.82534 L 206.47696,241.82534 L 206.47696,241.82534 z" id="table_15" style="fill:#000000;fill-rule:evenodd"/>
  <path d="M 265.23702,241.82534 L 265.23702,241.82534 L 267.6834,241.82534 L 269.66662,243.80853 L 269.66662,246.25493 L 269.66662,263.97276 L 269.66662,263.97276 L 269.66662,265.14756 L 269.19993,266.27424 L 268.3692,267.10495 L 267.53849,267.93565 L 266.4118,268.40234 L 265.23702,268.40234 L 247.51919,268.40234 L 245.0728,268.40234 L 243.08959,266.41916 L 243.08959,263.97276 L 243.08959,246.25493 L 243.08959,243.80853 L 245.0728,241.82534 L 247.51919,241.82534 L 265.23702,241.82534 L 265.23702,241.82534 z" id="table_16" style="fill:#000000;fill-rule:evenodd"/>
  <path d="M 20.812322,23.36149 L 41.187182,23.36149 L 41.187182,43.71551 L 20.812322,43.71551 L 20.812322,23.36149 L 20.812322,23.36149 z" id="stool_01" style="fill:#f1c232;fill-rule:evenodd"/>
  <path d="M 69.900382,36.42425 L 90.275272,36.42425 L 90.275272,56.77826 L 69.900382,56.77826 L 69.900382,36.42425 L 69.900382,36.42425 z" id="stool_02" style="fill:#f1c232;fill-rule:evenodd"/>
  <path d="M 158.05073,39.91477 L 178.42561,39.91477 L 178.42561,60.26878 L 158.05073,60.26878 L 158.05073,39.91477 L 158.05073,39.91477 z" id="stool_03" style="fill:#f1c232;fill-rule:evenodd"/>
  <path d="M 271.13263,23.78727 L 291.50752,23.78727 L 291.50752,44.14128 L 271.13263,44.14128 L 271.13263,23.78727 L 271.13263,23.78727 z" id="stool_04" style="fill:#f1c232;fill-rule:evenodd"/>
  <path d="M 216.80311,68.65579 L 237.17799,68.65579 L 237.17799,89.00979 L 216.80311,89.00979 L 216.80311,68.65579 L 216.80311,68.65579 z" id="stool_05" style="fill:#f1c232;fill-rule:evenodd"/>
  <path d="M 103.308483719,29.7645787068 L 103.308483719,9.38969870684 L 123.662493719,9.38969870684 L 123.662493719,29.7645787068 L 103.308483719,29.7645787068 L 103.308483719,29.7645787068 z" id="stool_06" style="fill:#f1c232;fill-rule:evenodd"/>
  <path d="M 27.5804631524,96.5166075259 L 27.5804631524,116.891500526 L 7.22644315236,116.891500526 L 7.22644315236,96.5166075259 L 27.5804631524,96.5166075259 L 27.5804631524,96.5166075259 z" id="stool_07" style="fill:#f1c232;fill-rule:evenodd"/>
  <path d="M 297.804824026,306.29405504 L 297.804824026,326.66894504 L 277.450824026,326.66894504 L 277.450824026,306.29405504 L 297.804824026,306.29405504 L 297.804824026,306.29405504 z" id="stool_08" style="fill:#f1c232;fill-rule:evenodd;stroke:none;stroke-linecap:square;stroke-miterlimit:10"/>
  <path d="M 28.0518441465,209.986944652 L 28.0518441465,230.361814652 L 7.69783414653,230.361814652 L 7.69783414653,209.986944652 L 28.0518441465,209.986944652 L 28.0518441465,209.986944652 z" id="stool_09" style="fill:#f1c232;fill-rule:evenodd"/>
  <path d="M 217.50092,186.19191 L 237.87581,186.19191 L 237.87581,206.54591 L 217.50092,206.54591 L 217.50092,186.19191 L 217.50092,186.19191 z" id="stool_10" style="fill:#f1c232;fill-rule:evenodd;stroke:none;stroke-linecap:square;stroke-miterlimit:10"/>
  <path d="M 158.31255,156.57774 L 178.68744,156.57774 L 178.68744,176.93174 L 158.31255,176.93174 L 158.31255,156.57774 L 158.31255,156.57774 z" id="stool_11" style="fill:#f1c232;fill-rule:evenodd;stroke:none;stroke-linecap:square;stroke-miterlimit:10"/>
  <path d="M 99.112487,215.55564 L 119.48737,215.55564 L 119.48737,235.90964 L 99.112487,235.90964 L 99.112487,215.55564 L 99.112487,215.55564 z" id="stool_12" style="fill:#f1c232;fill-rule:evenodd"/>
  <path d="M 245.07809,215.18329 L 265.45298,215.18329 L 265.45298,235.53729 L 245.07809,235.53729 L 245.07809,215.18329 L 245.07809,215.18329 z" id="stool_13" style="fill:#f1c232;fill-rule:evenodd;stroke:none;stroke-linecap:square;stroke-miterlimit:10"/>
  <path d="M 300.3742,235.91082 L 320.74905,235.91082 L 320.74905,256.26483 L 300.3742,256.26483 L 300.3742,235.91082 L 300.3742,235.91082 z" id="stool_14" style="fill:#f1c232;fill-rule:evenodd"/>
  <path d="M 28.7918319195,326.02452344 L 8.41697191951,326.02452344 L 8.41697191951,305.67050344 L 28.7918319195,305.67050344 L 28.7918319195,326.02452344 L 28.7918319195,326.02452344 z" id="stool_15" style="fill:#f1c232;fill-rule:evenodd"/>
  <path d="M 216.81256,262.07773 L 237.18741,262.07773 L 237.18741,282.43174 L 216.81256,282.43174 L 216.81256,262.07773 L 216.81256,262.07773 z" id="stool_16" style="fill:#f1c232;fill-rule:evenodd;stroke:none;stroke-linecap:square;stroke-miterlimit:10"/>
  <path d="M 303.65954,303.24266 L 324.03443,303.24266 L 324.03443,323.59668 L 303.65954,323.59668 L 303.65954,303.24266 L 303.65954,303.24266 z" id="stool_17" style="fill:#f1c232;fill-rule:evenodd"/>
  <path d="M 187.81254,98.077736 L 208.18743,98.077736 L 208.18743,118.43175 L 187.81254,118.43175 L 187.81254,98.077736 L 187.81254,98.077736 z" id="stool_18" style="fill:#f1c232;fill-rule:evenodd;stroke:none;stroke-linecap:square;stroke-miterlimit:10"/>
  <path d="M 303.50645344,8.11544842802 L 323.88134344,8.11544842802 L 323.88134344,28.469448428 L 303.50645344,28.469448428 L 303.50645344,8.11544842802 L 303.50645344,8.11544842802 z" id="stool_19" style="fill:#f1c232;fill-rule:evenodd;stroke:none;stroke-linecap:square;stroke-miterlimit:10"/>
  <path d="M 153.47341,5.61205 L 183.00344,5.61205 L 183.00344,35.14206 L 153.47341,35.14206 L 153.47341,5.61205 L 153.47341,5.61205 z" id="pillar_top" style="fill:#000000;fill-rule:evenodd"/>
  <path d="M 301.24944,152.2072 L 330.77946,152.2072 L 330.77946,181.73722 L 301.24944,181.73722 L 301.24944,152.2072 L 301.24944,152.2072 z" id="pillar_right" style="fill:#000000;fill-rule:evenodd"/>
  <path d="M 153.46646,299.10825 L 182.99649,299.10825 L 182.99649,328.63824 L 153.46646,328.63824 L 153.46646,299.10825 L 153.46646,299.10825 z" id="pillar_bottom" style="fill:#000000;fill-rule:evenodd"/>
  <path d="M 5.8241422,152.20894 L 35.354152,152.20894 L 35.354152,181.73896 L 5.8241422,181.73896 L 5.8241422,152.20894 L 5.8241422,152.20894 z" id="pillar_left" style="fill:#000000;fill-rule:evenodd"/>
  <path d="M 256.10705,299.62476 L 256.10705,299.62476 L 256.10705,294.48732 L 260.27177,290.32261 L 265.40921,290.32261 L 265.40921,290.32261 L 267.87631,290.32261 L 270.24233,291.30264 L 271.98684,293.04713 L 273.73134,294.79163 L 274.71138,297.15768 L 274.71138,299.62476 L 274.71138,299.62476 L 274.71138,304.7622 L 270.54665,308.92691 L 265.40921,308.92691 L 265.40921,308.92691 L 260.27177,308.92691 L 256.10705,304.7622 L 256.10705,299.62476 L 256.10705,299.62476 z" id="goal_01" style="fill:none;fill-rule:evenodd;stroke:#1155cc;stroke-width:3.5999999;stroke-miterlimit:10;stroke-dasharray:none;stroke-opacity:1"/>
  <path d="M265.240989396 299.792984324L274.37646401 299.792984324" id="goal_01_dir" style="fill:none;stroke:#1155cc;stroke-width:3.5999999;stroke-linecap:butt;stroke-linejoin:miter;stroke-miterlimit:10;stroke-dasharray:none;stroke-opacity:1"/>
  <path d="M 5.5932872,5.59067 L 5.5932872,0.00321000000003 L 330.88748,0.00321000000003 L 330.88748,5.59067 L 5.5932872,5.59067 L 5.5932872,5.59067 z" id="wall_ext_top" style="fill:#000000;fill-opacity:1;stroke:none;stroke-width:1px;stroke-linecap:butt;stroke-linejoin:miter;stroke-opacity:1"/>
  <path d="M 5.5932872,334.24295 L 5.5932872,328.65549 L 330.88748,328.65549 L 330.88748,334.24295 L 5.5932872,334.24295 L 5.5932872,334.24295 z" id="wall_ext_bottom" style="fill:#000000;fill-opacity:1;stroke:none;stroke-width:1px;stroke-linecap:butt;stroke-linejoin:miter;stroke-miterlimit:10;stroke-opacity:1"/>
  <path d="M 0.0,334.24627 L 5.5863282,334.24627 L 5.5863282,3.14708259452e-14 L 0.0,3.14708259452e-14 L 0.0,334.24627 L 0.0,334.24627 z" id="wall_ext_left" style="fill:#000000;fill-opacity:1;stroke:none;stroke-width:1px;stroke-linecap:butt;stroke-linejoin:miter;stroke-opacity:1"/>
  <path d="M 330.89651,334.25472 L 336.48284,334.25472 L 336.48284,0.00845000000002 L 330.89651,0.00845000000002 L 330.89651,334.25472 L 330.89651,334.25472 z" id="wall_ext_right" style="fill:#000000;fill-opacity:1;stroke:none;stroke-width:1px;stroke-linecap:butt;stroke-linejoin:miter;stroke-miterlimit:10;stroke-opacity:1"/>
  <path d="M 321.62658573,64.4500470946 L 318.090695823,65.5374176358 L 314.407840079,65.1888898085 L 311.138699607,63.4575238318 L 308.780970977,60.606906585 L 307.693598205,57.0710165179 L 308.042131196,53.3881575572 L 309.773500327,50.1190168633 L 312.624115023,47.7612925341 L 316.160005854,46.6739216109 L 319.842861599,47.0224494382 L 323.112002071,48.7538154149 L 325.469727928,51.6044338078 L 326.557097927,55.1403250209 L 326.208570482,58.8231816896 L 324.477205047,62.0923208554 L 321.62658573,64.4500470946 L 321.62658573,64.4500470946 z" id="robot_01" style="fill:#6d9eeb;fill-opacity:1;stroke:none;stroke-opacity:1"/>
  <path d="M317.12535 56.10567L308.531727298 59.6578724763" id="robot_01_dir" style="fill:none;stroke:#1155cc;stroke-width:3.5999999;stroke-linecap:butt;stroke-linejoin:miter;stroke-miterlimit:10;stroke-dasharray:none;stroke-opacity:1"/>
  
  
  
  
</svg>