<?xml version="1.0" encoding="UTF-8" standalone="no"?>
<svg
   xmlns:dc="http://purl.org/dc/elements/1.1/"
   xmlns:cc="http://creativecommons.org/ns#"
   xmlns:rdf="http://www.w3.org/1999/02/22-rdf-syntax-ns#"
   xmlns:svg="http://www.w3.org/2000/svg"
   xmlns="http://www.w3.org/2000/svg"
   xmlns:sodipodi="http://sodipodi.sourceforge.net/DTD/sodipodi-0.dtd"
   xmlns:inkscape="http://www.inkscape.org/namespaces/inkscape"
   sodipodi:docname="moghaddam_planning_2016_benchmark_08.svg"
   inkscape:version="1.0alpha2 (62cc95fa7e, 2019-08-07)"
   id="svg1573"
   version="1.1"
   viewBox="0 0 210 297"
   height="297mm"
   width="210mm">
  <defs
     id="defs1567" />
  <sodipodi:namedview
     inkscape:window-maximized="1"
     inkscape:window-y="24"
     inkscape:window-x="1920"
     inkscape:window-height="1056"
     inkscape:window-width="1920"
     showgrid="false"
     inkscape:document-rotation="0"
     inkscape:current-layer="layer1"
     inkscape:document-units="mm"
     inkscape:cy="560"
     inkscape:cx="400"
     inkscape:zoom="0.35"
     inkscape:pageshadow="2"
     inkscape:pageopacity="0.0"
     borderopacity="1.0"
     bordercolor="#666666"
     pagecolor="#ffffff"
     id="base" />
  <metadata
     id="metadata1570">
    <rdf:RDF>
      <cc:Work
         rdf:about="">
        <dc:format>image/svg+xml</dc:format>
        <dc:type
           rdf:resource="http://purl.org/dc/dcmitype/StillImage" />
        <dc:title></dc:title>
      </cc:Work>
    </rdf:RDF>
  </metadata>
  <g
     id="layer1"
     inkscape:groupmode="layer"
     inkscape:label="Layer 1">
    <g
       id="g710"
       transform="matrix(0.35277777,0,0,-0.35277777,0,60.103454)">
      <path
         d="M 0,0 V 170.372 H 226.551 V -17.394 H 0 v 0.89 H 225.215 V 169.481 H 1.347 V 0 H 0"
         style="fill:#e6e6e6;fill-opacity:1;fill-rule:evenodd;stroke:none"
         id="path712"
         inkscape:connector-curvature="0" />
    </g>
    <g
       id="g718"
       transform="matrix(0.35277777,0,0,-0.35277777,79.136872,33.355844)">
      <path
         d="M 0,0 H -34.782 V 83.856 H -83.84 v -1.345 h 47.263 V -1.78 H 0 V 0"
         style="fill:#e6e6e6;fill-opacity:1;fill-rule:evenodd;stroke:none"
         id="path720"
         inkscape:connector-curvature="0" />
    </g>
    <g
       id="g726"
       transform="matrix(0.35277777,0,0,-0.35277777,66.866556,40.121062)">
      <path
         d="m 0,0 v -10.25 h -11.159 v -61.995 h -1.335 v 61.995 h -23.183 v 2.225 H -1.795 V 0 H 0"
         style="fill:#e6e6e6;fill-opacity:1;fill-rule:evenodd;stroke:none"
         id="path728"
         inkscape:connector-curvature="0" />
    </g>
    <path
       d="m 48.773289,65.607494 h 0.627946 v -22.65539 h -0.627946 z"
       style="fill:#e6e6e6;fill-opacity:1;fill-rule:nonzero;stroke:none;stroke-width:0.352777"
       id="path734"
       inkscape:connector-curvature="0" />
    <g
       id="g740"
       transform="matrix(0.35277777,0,0,-0.35277777,44.995039,3.7729592)">
      <path
         d="m 0,0 h -103.907 v -26.325 h 1.781 v 24.98 h 48.614 v -122.204 h -48.614 v 24.091 h -1.781 v -26.316 H 0.446 v 26.316 h -1.782 v -24.535 h -49.05 V -1.345 h 49.05 v -24.98 H 0.446 L 0,0"
         style="fill:#e6e6e6;fill-opacity:1;fill-rule:evenodd;stroke:none"
         id="path742"
         inkscape:connector-curvature="0" />
    </g>
    <path
       d="M 21.713824,65.607494 H 23.12811 V 48.931335 h -1.414286 z"
       style="fill:#e6e6e6;fill-opacity:1;fill-rule:nonzero;stroke:none;stroke-width:0.352777"
       id="path748"
       inkscape:connector-curvature="0" />
    <g
       id="g754"
       transform="matrix(0.35277777,0,0,-0.35277777,27.533952,26.11896)">
      <path
         d="m 0,0 h 47.714 v 17.841 h 2.228 v -38.355 h -2.228 v 18.29 L 0,-2.224 V 0"
         style="fill:#e6e6e6;fill-opacity:1;fill-rule:evenodd;stroke:none"
         id="path756"
         inkscape:connector-curvature="0" />
    </g>
    <g
       id="g762"
       transform="matrix(0.35277777,0,0,-0.35277777,25.96021,26.11896)">
      <path
         d="m 0,0 h -48.169 v 17.841 h -1.781 v -38.355 h 1.781 V -2.669 H 0 V 0"
         style="fill:#e6e6e6;fill-opacity:1;fill-rule:evenodd;stroke:none"
         id="path764"
         inkscape:connector-curvature="0" />
    </g>
    <path
       d="M 0.9465021,41.852495 H 3.9355882 V 40.906382 H 0.9465021 Z"
       style="fill:#e6e6e6;fill-opacity:1;fill-rule:nonzero;stroke:none;stroke-width:0.352777"
       id="path770"
       inkscape:connector-curvature="0" />
    <path
       d="m 64.034456,65.607494 h 6.449483 v -3.302 h -6.449483 z"
       style="fill:#53f288;fill-opacity:1;fill-rule:nonzero;stroke:none;stroke-width:0.352777"
       id="path776"
       inkscape:connector-curvature="0" />
    <path
       d="m 71.741239,65.607494 h 6.925027 v -3.302 h -6.925027 z"
       style="fill:#3f70ab;fill-opacity:1;fill-rule:nonzero;stroke:none;stroke-width:0.352777"
       id="path782"
       inkscape:connector-curvature="0" />
    <path
       d="m 63.720131,60.260442 h 3.617383 V 51.44911 h -3.617383 z"
       style="fill:#8c9bdc;fill-opacity:1;fill-rule:nonzero;stroke:none;stroke-width:0.352777"
       id="path788"
       inkscape:connector-curvature="0" />
    <g
       id="g794"
       transform="matrix(0.35277777,0,0,-0.35277777,64.662399,48.931687)">
      <path
         d="M 0,0 7.139,8.48 12.927,4.015 5.803,-3.117 0,0"
         style="fill:#61bf28;fill-opacity:1;fill-rule:evenodd;stroke:none"
         id="path796"
         inkscape:connector-curvature="0" />
    </g>
    <g
       id="g802"
       transform="matrix(0.35277777,0,0,-0.35277777,69.222758,59.1566)">
      <path
         d="M 0,0 4.912,5.788 9.375,0.891 4.023,-4.909 0,0"
         style="fill:#0f57d0;fill-opacity:1;fill-rule:evenodd;stroke:none"
         id="path804"
         inkscape:connector-curvature="0" />
    </g>
    <path
       d="m 75.361797,60.103454 h 2.356909 v -1.732137 h -2.356909 z"
       style="fill:#60f89a;fill-opacity:1;fill-rule:nonzero;stroke:none;stroke-width:0.352777"
       id="path810"
       inkscape:connector-curvature="0" />
    <path
       d="m 72.212549,54.123167 h 1.889125 V 51.76347 h -1.889125 z"
       style="fill:#56ede5;fill-opacity:1;fill-rule:nonzero;stroke:none;stroke-width:0.352777"
       id="path816"
       inkscape:connector-curvature="0" />
    <path
       d="m 72.687037,48.143583 h 2.199569 v -2.041842 h -2.199569 z"
       style="fill:#d94149;fill-opacity:1;fill-rule:nonzero;stroke:none;stroke-width:0.352777"
       id="path822"
       inkscape:connector-curvature="0" />
    <path
       d="m 75.990799,49.71697 h 2.989088 v -6.29426 h -2.989088 z"
       style="fill:#c7b37e;fill-opacity:1;fill-rule:nonzero;stroke:none;stroke-width:0.352777"
       id="path828"
       inkscape:connector-curvature="0" />
    <g
       id="g834"
       transform="matrix(0.35277777,0,0,-0.35277777,71.741239,35.557883)">
      <path
         d="m 0,0 -5.792,-6.69 11.589,-12.045 6.249,5.8 L 0,0"
         style="fill:#f779fe;fill-opacity:1;fill-rule:evenodd;stroke:none"
         id="path836"
         inkscape:connector-curvature="0" />
    </g>
    <path
       d="m 54.437489,48.303392 h 7.235473 V 44.5262 h -7.235473 z"
       style="fill:#7d80c4;fill-opacity:1;fill-rule:nonzero;stroke:none;stroke-width:0.352777"
       id="path842"
       inkscape:connector-curvature="0" />
    <path
       d="m 58.212564,56.168219 h 3.460398 v -7.07884 h -3.460398 z"
       style="fill:#637422;fill-opacity:1;fill-rule:nonzero;stroke:none;stroke-width:0.352777"
       id="path848"
       inkscape:connector-curvature="0" />
    <g
       id="g854"
       transform="matrix(0.35277777,0,0,-0.35277777,53.963356,51.292477)">
      <path
         d="M 0,0 3.571,4.021 7.134,0 3.571,-3.56 0,0"
         style="fill:#c190a5;fill-opacity:1;fill-rule:evenodd;stroke:none"
         id="path856"
         inkscape:connector-curvature="0" />
    </g>
    <path
       d="m 55.065435,64.979902 h 6.450187 v -2.674408 h -6.450187 z"
       style="fill:#cc38db;fill-opacity:1;fill-rule:nonzero;stroke:none;stroke-width:0.352777"
       id="path862"
       inkscape:connector-curvature="0" />
    <path
       d="m 50.031295,60.103454 h 3.617736 v -6.294612 h -3.617736 z"
       style="fill:#e74ab9;fill-opacity:1;fill-rule:nonzero;stroke:none;stroke-width:0.352777"
       id="path868"
       inkscape:connector-curvature="0" />
    <path
       d="m 50.50296,64.822562 h 2.360435 V 62.462833 H 50.50296 Z"
       style="fill:#57462b;fill-opacity:1;fill-rule:nonzero;stroke:none;stroke-width:0.352777"
       id="path874"
       inkscape:connector-curvature="0" />
    <path
       d="m 24.387526,52.077408 h 6.764161 v -2.988029 h -6.764161 z"
       style="fill:#a989d3;fill-opacity:1;fill-rule:nonzero;stroke:none;stroke-width:0.352777"
       id="path880"
       inkscape:connector-curvature="0" />
    <path
       d="m 27.376964,60.103454 h 3.617738 v -7.237235 h -3.617738 z"
       style="fill:#442d6e;fill-opacity:1;fill-rule:nonzero;stroke:none;stroke-width:0.352777"
       id="path886"
       inkscape:connector-curvature="0" />
    <g
       id="g892"
       transform="matrix(0.35277777,0,0,-0.35277777,25.4889,53.965475)">
      <path
         d="M 0,0 -2.673,-3.129 0.445,-6.691 4.008,-3.574 0,0"
         style="fill:#79c821;fill-opacity:1;fill-rule:evenodd;stroke:none"
         id="path894"
         inkscape:connector-curvature="0" />
    </g>
    <path
       d="m 24.545924,65.136535 h 2.043288 v -1.413227 h -2.043288 z"
       style="fill:#0da007;fill-opacity:1;fill-rule:nonzero;stroke:none;stroke-width:0.352777"
       id="path900"
       inkscape:connector-curvature="0" />
    <g
       id="g906"
       transform="matrix(0.35277777,0,0,-0.35277777,28.005262,63.723306)">
      <path
         d="M 0,0 6.695,0.456 V -4.006 H 0 V 0"
         style="fill:#23b183;fill-opacity:1;fill-rule:evenodd;stroke:none"
         id="path908"
         inkscape:connector-curvature="0" />
    </g>
    <path
       d="m 32.251647,65.45086 h 2.046817 v -1.888418 h -2.046817 z"
       style="fill:#8aceca;fill-opacity:1;fill-rule:nonzero;stroke:none;stroke-width:0.352777"
       id="path914"
       inkscape:connector-curvature="0" />
    <g
       id="g920"
       transform="matrix(0.35277777,0,0,-0.35277777,40.748654,55.226302)">
      <path
         d="m 0,0 -7.584,-4.008 -2.225,-9.37 4.898,-7.579 8.474,-0.891 4.912,4.462 2.226,8.916 L 7.139,-2.225 0,0"
         style="fill:#80471f;fill-opacity:1;fill-rule:evenodd;stroke:none"
         id="path922"
         inkscape:connector-curvature="0" />
    </g>
    <g
       id="g928"
       transform="matrix(0.35277777,0,0,-0.35277777,44.523729,62.305494)">
      <path
         d="M 0,0 3.575,4.017 7.582,-0.445 3.575,-4.465 0,0"
         style="fill:#e2f7f0;fill-opacity:1;fill-rule:evenodd;stroke:none"
         id="path930"
         inkscape:connector-curvature="0" />
    </g>
    <path
       d="m 37.758862,64.979902 h 2.204157 v -1.41746 h -2.204157 z"
       style="fill:#a31713;fill-opacity:1;fill-rule:nonzero;stroke:none;stroke-width:0.352777"
       id="path936"
       inkscape:connector-curvature="0" />
    <path
       d="M 39.963019,52.548367 H 47.51352 V 49.403352 H 39.963019 Z"
       style="fill:#2f08b9;fill-opacity:1;fill-rule:nonzero;stroke:none;stroke-width:0.352777"
       id="path942"
       inkscape:connector-curvature="0" />
    <path
       d="m 45.942247,39.964429 h 2.831748 V 33.98379 h -2.831748 z"
       style="fill:#25a2c9;fill-opacity:1;fill-rule:nonzero;stroke:none;stroke-width:0.352777"
       id="path948"
       inkscape:connector-curvature="0" />
    <path
       d="m 46.25622,26.589919 h 2.98944 v -5.351286 h -2.98944 z"
       style="fill:#9060d2;fill-opacity:1;fill-rule:nonzero;stroke:none;stroke-width:0.352777"
       id="path954"
       inkscape:connector-curvature="0" />
    <path
       d="m 46.25622,31.1531 h 2.98944 v -4.248856 h -2.98944 z"
       style="fill:#4e51c8;fill-opacity:1;fill-rule:nonzero;stroke:none;stroke-width:0.352777"
       id="path960"
       inkscape:connector-curvature="0" />
    <g
       id="g966"
       transform="matrix(0.35277777,0,0,-0.35277777,52.861631,32.7279)">
      <path
         d="m 0,0 4.022,5.8 8.015,0.445 4.912,-5.786 -0.445,-8.036 -5.357,-3.119 H 4.022 L 0.446,-5.342 0,0"
         style="fill:#8043bb;fill-opacity:1;fill-rule:evenodd;stroke:none"
         id="path968"
         inkscape:connector-curvature="0" />
    </g>
    <g
       id="g974"
       transform="matrix(0.35277777,0,0,-0.35277777,58.526889,38.074952)">
      <path
         d="M 0,0 4.452,3.57 8.473,-2.225 3.117,-4.91 0,0"
         style="fill:#2aeb39;fill-opacity:1;fill-rule:evenodd;stroke:none"
         id="path976"
         inkscape:connector-curvature="0" />
    </g>
    <g
       id="g982"
       transform="matrix(0.35277777,0,0,-0.35277777,50.34562,37.129508)">
      <path
         d="M 0,0 4.017,2.671 6.242,-0.898 3.125,-2.235 0,0"
         style="fill:#1513c4;fill-opacity:1;fill-rule:evenodd;stroke:none"
         id="path984"
         inkscape:connector-curvature="0" />
    </g>
    <g
       id="g990"
       transform="matrix(0.35277777,0,0,-0.35277777,48.301627,11.485034)">
      <path
         d="M 0,0 -4.908,-4.019 3.121,-18.73 8.473,-15.606 0,0"
         style="fill:#d1bdc1;fill-opacity:1;fill-rule:evenodd;stroke:none"
         id="path992"
         inkscape:connector-curvature="0" />
    </g>
    <g
       id="g998"
       transform="matrix(0.35277777,0,0,-0.35277777,61.830299,5.8194232)">
      <path
         d="m 0,0 -7.582,-3.124 6.691,-17.4 6.248,1.349 L 0,0"
         style="fill:#f577c9;fill-opacity:1;fill-rule:evenodd;stroke:none"
         id="path1000"
         inkscape:connector-curvature="0" />
    </g>
    <path
       d="m 53.332944,14.6304 h 3.617735 V 8.8109782 h -3.617735 z"
       style="fill:#6cf100;fill-opacity:1;fill-rule:nonzero;stroke:none;stroke-width:0.352777"
       id="path1006"
       inkscape:connector-curvature="0" />
    <path
       d="m 53.332944,22.656094 h 3.617735 v -7.079191 h -3.617735 z"
       style="fill:#fa9158;fill-opacity:1;fill-rule:nonzero;stroke:none;stroke-width:0.352777"
       id="path1012"
       inkscape:connector-curvature="0" />
    <path
       d="m 57.898239,22.656094 h 4.089048 v -7.079191 h -4.089048 z"
       style="fill:#8e4c29;fill-opacity:1;fill-rule:nonzero;stroke:none;stroke-width:0.352777"
       id="path1018"
       inkscape:connector-curvature="0" />
    <g
       id="g1024"
       transform="matrix(0.35277777,0,0,-0.35277777,60.254444,27.374495)">
      <path
         d="m 0,0 4.912,5.349 h 7.583 L 15.168,0 12.495,-7.136 H 4.912 L 0.905,-4.465 0,0"
         style="fill:#aaaeca;fill-opacity:1;fill-rule:evenodd;stroke:none"
         id="path1026"
         inkscape:connector-curvature="0" />
    </g>
    <path
       d="m 57.108019,29.263975 h 2.046462 v -1.574094 h -2.046462 z"
       style="fill:#594058;fill-opacity:1;fill-rule:nonzero;stroke:none;stroke-width:0.352777"
       id="path1032"
       inkscape:connector-curvature="0" />
    <path
       d="m 61.672962,34.769425 h 2.361142 v -1.88454 h -2.361142 z"
       style="fill:#54edc1;fill-opacity:1;fill-rule:nonzero;stroke:none;stroke-width:0.352777"
       id="path1038"
       inkscape:connector-curvature="0" />
    <g
       id="g1044"
       transform="matrix(0.35277777,0,0,-0.35277777,64.819739,37.446302)">
      <path
         d="M 0,0 -2.671,-4.451 0.89,-6.692 4.007,-3.561 0,0"
         style="fill:#4a9bc3;fill-opacity:1;fill-rule:evenodd;stroke:none"
         id="path1046"
         inkscape:connector-curvature="0" />
    </g>
    <path
       d="m 46.25622,9.7532472 h 1.571274 V 8.0211092 H 46.25622 Z"
       style="fill:#d8e698;fill-opacity:1;fill-rule:nonzero;stroke:none;stroke-width:0.352777"
       id="path1052"
       inkscape:connector-curvature="0" />
    <g
       id="g1058"
       transform="matrix(0.35277777,0,0,-0.35277777,50.50296,11.956344)">
      <path
         d="M 0,0 3.571,4.02 6.242,0 3.571,-3.128 0,0"
         style="fill:#1138de;fill-opacity:1;fill-rule:evenodd;stroke:none"
         id="path1060"
         inkscape:connector-curvature="0" />
    </g>
    <path
       d="m 1.1034882,50.82046 h 2.8321 v -7.397398 h -2.8321 z"
       style="fill:#6aa9c8;fill-opacity:1;fill-rule:nonzero;stroke:none;stroke-width:0.352777"
       id="path1066"
       inkscape:connector-curvature="0" />
    <path
       d="M 1.418166,65.136535 H 3.7786019 V 63.405454 H 1.418166 Z"
       style="fill:#3f8d3b;fill-opacity:1;fill-rule:nonzero;stroke:none;stroke-width:0.352777"
       id="path1072"
       inkscape:connector-curvature="0" />
    <path
       d="M 5.9785242,65.136535 H 13.845821 V 62.305528 H 5.9785242 Z"
       style="fill:#02c306;fill-opacity:1;fill-rule:nonzero;stroke:none;stroke-width:0.352777"
       id="path1078"
       inkscape:connector-curvature="0" />
    <path
       d="m 10.385071,61.67755 h 3.460397 v -8.183033 h -3.460397 z"
       style="fill:#644034;fill-opacity:1;fill-rule:nonzero;stroke:none;stroke-width:0.352777"
       id="path1084"
       inkscape:connector-curvature="0" />
    <path
       d="m 15.734946,60.103454 h 3.775075 v -6.609292 h -3.775075 z"
       style="fill:#a9e902;fill-opacity:1;fill-rule:nonzero;stroke:none;stroke-width:0.352777"
       id="path1090"
       inkscape:connector-curvature="0" />
    <path
       d="m 11.013369,51.60645 h 2.518127 v -2.046147 h -2.518127 z"
       style="fill:#becce7;fill-opacity:1;fill-rule:nonzero;stroke:none;stroke-width:0.352777"
       id="path1096"
       inkscape:connector-curvature="0" />
    <path
       d="M 15.892638,51.92042 H 18.41006 V 49.403352 H 15.892638 Z"
       style="fill:#f91f84;fill-opacity:1;fill-rule:nonzero;stroke:none;stroke-width:0.352777"
       id="path1102"
       inkscape:connector-curvature="0" />
    <g
       id="g1108"
       transform="matrix(0.35277777,0,0,-0.35277777,24.070027,43.898608)">
      <path
         d="m 0,0 -5.344,-4.008 3.12,-4.46 4.91,2.681 L 0,0"
         style="fill:#d2a2f3;fill-opacity:1;fill-rule:evenodd;stroke:none"
         id="path1110"
         inkscape:connector-curvature="0" />
    </g>
    <path
       d="m 21.713824,42.010187 h 2.675114 v -2.045758 h -2.675114 z"
       style="fill:#f1f611;fill-opacity:1;fill-rule:nonzero;stroke:none;stroke-width:0.352777"
       id="path1116"
       inkscape:connector-curvature="0" />
    <g
       id="g1122"
       transform="matrix(0.35277777,0,0,-0.35277777,19.66736,40.121062)">
      <path
         d="m 0,0 -7.584,-18.731 -8.918,2.236 L -8.029,3.131 0,0"
         style="fill:#705222;fill-opacity:1;fill-rule:evenodd;stroke:none"
         id="path1124"
         inkscape:connector-curvature="0" />
    </g>
    <path
       d="m 22.971124,29.891919 h 2.517422 v -2.359377 h -2.517422 z"
       style="fill:#22ce86;fill-opacity:1;fill-rule:nonzero;stroke:none;stroke-width:0.352777"
       id="path1130"
       inkscape:connector-curvature="0" />
    <path
       d="m 22.971124,33.355844 h 2.674761 v -2.359377 h -2.674761 z"
       style="fill:#f1fc69;fill-opacity:1;fill-rule:nonzero;stroke:none;stroke-width:0.352777"
       id="path1136"
       inkscape:connector-curvature="0" />
    <path
       d="m 22.971124,36.187237 h 2.674761 v -2.04611 h -2.674761 z"
       style="fill:#5f3a72;fill-opacity:1;fill-rule:nonzero;stroke:none;stroke-width:0.352777"
       id="path1142"
       inkscape:connector-curvature="0" />
    <path
       d="M 9.5997882,33.355844 H 13.060185 V 27.690585 H 9.5997882 Z"
       style="fill:#44756e;fill-opacity:1;fill-rule:nonzero;stroke:none;stroke-width:0.352777"
       id="path1148"
       inkscape:connector-curvature="0" />
    <g
       id="g1154"
       transform="matrix(0.35277777,0,0,-0.35277777,16.20661,31.624058)">
      <path
         d="M 0,0 4.899,4.019 7.584,-0.89 2.672,-3.574 0,0"
         style="fill:#42226b;fill-opacity:1;fill-rule:evenodd;stroke:none"
         id="path1156"
         inkscape:connector-curvature="0" />
    </g>
    <path
       d="m 10.071452,36.187237 h 2.360436 v -1.731431 h -2.360436 z"
       style="fill:#8153af;fill-opacity:1;fill-rule:nonzero;stroke:none;stroke-width:0.352777"
       id="path1162"
       inkscape:connector-curvature="0" />
    <path
       d="M 1.1034882,40.435387 H 3.1499519 V 38.860235 H 1.1034882 Z"
       style="fill:#716fca;fill-opacity:1;fill-rule:nonzero;stroke:none;stroke-width:0.352777"
       id="path1168"
       inkscape:connector-curvature="0" />
    <g
       id="g1174"
       transform="matrix(0.35277777,0,0,-0.35277777,4.7215769,40.27805)">
      <path
         d="M 0,0 1.781,4.466 7.582,3.13 5.8,-1.78 0,0"
         style="fill:#d0c0c9;fill-opacity:1;fill-rule:evenodd;stroke:none"
         id="path1176"
         inkscape:connector-curvature="0" />
    </g>
    <path
       d="M 1.2608271,37.289317 H 2.9890852 V 36.186533 H 1.2608271 Z"
       style="fill:#808ea1;fill-opacity:1;fill-rule:nonzero;stroke:none;stroke-width:0.352777"
       id="path1182"
       inkscape:connector-curvature="0" />
    <path
       d="M 2.0461104,29.577594 H 5.1928882 V 21.395619 H 2.0461104 Z"
       style="fill:#193f9d;fill-opacity:1;fill-rule:nonzero;stroke:none;stroke-width:0.352777"
       id="path1188"
       inkscape:connector-curvature="0" />
    <path
       d="M 3.1503048,17.935575 H 5.1928882 V 16.204142 H 3.1503048 Z"
       style="fill:#4ec444;fill-opacity:1;fill-rule:nonzero;stroke:none;stroke-width:0.352777"
       id="path1194"
       inkscape:connector-curvature="0" />
    <g
       id="g1200"
       transform="matrix(0.35277777,0,0,-0.35277777,3.4642769,5.1911252)">
      <path
         d="m 0,0 -6.692,-4.459 8.028,-18.292 6.692,3.13 L 0,0"
         style="fill:#0a4c8e;fill-opacity:1;fill-rule:evenodd;stroke:none"
         id="path1202"
         inkscape:connector-curvature="0" />
    </g>
    <path
       d="m 33.984494,31.938031 h 8.967258 v -4.091164 h -8.967258 z"
       style="fill:#f7b0b7;fill-opacity:1;fill-rule:nonzero;stroke:none;stroke-width:0.352777"
       id="path1208"
       inkscape:connector-curvature="0" />
    <g
       id="g1214"
       transform="matrix(0.35277777,0,0,-0.35277777,28.162602,38.859883)">
      <path
         d="M 0,0 H 11.591 V -21.415 H 0.446 L 0,0"
         style="fill:#8f88df;fill-opacity:1;fill-rule:evenodd;stroke:none"
         id="path1216"
         inkscape:connector-curvature="0" />
    </g>
    <g
       id="g1222"
       transform="matrix(0.35277777,0,0,-0.35277777,33.670872,39.173854)">
      <path
         d="M 0,0 4.896,3.115 8.028,-1.35 2.67,-4.465 0,0"
         style="fill:#647535;fill-opacity:1;fill-rule:evenodd;stroke:none"
         id="path1224"
         inkscape:connector-curvature="0" />
    </g>
    <g
       id="g1230"
       transform="matrix(0.35277777,0,0,-0.35277777,36.345281,43.898608)">
      <path
         d="M 0,0 -4.911,-4.452 -2.685,-8.023 3.563,-4.008 0,0"
         style="fill:#c18b5b;fill-opacity:1;fill-rule:evenodd;stroke:none"
         id="path1232"
         inkscape:connector-curvature="0" />
    </g>
    <path
       d="m 39.963019,46.728944 h 2.518126 v -2.360049 h -2.518126 z"
       style="fill:#b31c02;fill-opacity:1;fill-rule:nonzero;stroke:none;stroke-width:0.352777"
       id="path1238"
       inkscape:connector-curvature="0" />
    <path
       d="m 28.319939,6.9215002 h 1.889125 v -1.888772 h -1.889125 z"
       style="fill:#98a894;fill-opacity:1;fill-rule:nonzero;stroke:none;stroke-width:0.352777"
       id="path1244"
       inkscape:connector-curvature="0" />
    <path
       d="m 28.162602,15.732478 h 3.46075 V 9.2812312 h -3.46075 z"
       style="fill:#e8a286;fill-opacity:1;fill-rule:nonzero;stroke:none;stroke-width:0.352777"
       id="path1250"
       inkscape:connector-curvature="0" />
    <path
       d="m 28.162602,25.487489 h 3.617735 v -8.339667 h -3.617735 z"
       style="fill:#420dbb;fill-opacity:1;fill-rule:nonzero;stroke:none;stroke-width:0.352777"
       id="path1256"
       inkscape:connector-curvature="0" />
    <path
       d="m 40.905639,25.016178 h 2.046465 v -1.88842 h -2.046465 z"
       style="fill:#2a4842;fill-opacity:1;fill-rule:nonzero;stroke:none;stroke-width:0.352777"
       id="path1262"
       inkscape:connector-curvature="0" />
    <path
       d="m 34.298464,23.127053 h 2.203805 v -1.88842 h -2.203805 z"
       style="fill:#8c8ac9;fill-opacity:1;fill-rule:nonzero;stroke:none;stroke-width:0.352777"
       id="path1268"
       inkscape:connector-curvature="0" />
    <g
       id="g1274"
       transform="matrix(0.35277777,0,0,-0.35277777,36.345281,5.6620842)">
      <path
         d="m 0,0 -7.581,-5.796 9.363,-12.49 7.584,6.245 L 0,0"
         style="fill:#dec9f7;fill-opacity:1;fill-rule:evenodd;stroke:none"
         id="path1276"
         inkscape:connector-curvature="0" />
    </g>
    <path
       d="m 40.434329,13.373806 h 2.203802 v -1.88842 h -2.203802 z"
       style="fill:#2eed0c;fill-opacity:1;fill-rule:nonzero;stroke:none;stroke-width:0.352777"
       id="path1282"
       inkscape:connector-curvature="0" />
    <path
       d="m 33.984494,15.575492 h 1.885243 v -1.574095 h -1.885243 z"
       style="fill:#3d02ab;fill-opacity:1;fill-rule:nonzero;stroke:none;stroke-width:0.352777"
       id="path1288"
       inkscape:connector-curvature="0" />
    <path
       d="m 13.060538,14.787033 h 3.303411 V 8.3361392 h -3.303411 z"
       style="fill:#e79228;fill-opacity:1;fill-rule:nonzero;stroke:none;stroke-width:0.352777"
       id="path1294"
       inkscape:connector-curvature="0" />
    <path
       d="m 17.934868,15.418506 h 3.935236 V 8.3347282 h -3.935236 z"
       style="fill:#809130;fill-opacity:1;fill-rule:nonzero;stroke:none;stroke-width:0.352777"
       id="path1300"
       inkscape:connector-curvature="0" />
    <path
       d="m 13.060538,21.713825 h 3.303411 v -5.82295 h -3.303411 z"
       style="fill:#53b78d;fill-opacity:1;fill-rule:nonzero;stroke:none;stroke-width:0.352777"
       id="path1306"
       inkscape:connector-curvature="0" />
    <path
       d="m 17.777177,22.342122 h 4.092927 v -6.451247 h -4.092927 z"
       style="fill:#246165;fill-opacity:1;fill-rule:nonzero;stroke:none;stroke-width:0.352777"
       id="path1312"
       inkscape:connector-curvature="0" />
    <path
       d="m 13.531496,6.9215002 h 1.889125 v -1.574447 h -1.889125 z"
       style="fill:#930593;fill-opacity:1;fill-rule:nonzero;stroke:none;stroke-width:0.352777"
       id="path1318"
       inkscape:connector-curvature="0" />
    <g
       id="g1324"
       transform="matrix(0.35277777,0,0,-0.35277777,18.882077,5.1911252)">
      <path
         d="M 0,0 5.787,-1.335 4.007,-6.241 -1.337,-4.905 0,0"
         style="fill:#ee1bbb;fill-opacity:1;fill-rule:evenodd;stroke:none"
         id="path1326"
         inkscape:connector-curvature="0" />
    </g>
    <g
       id="g1332"
       transform="matrix(0.35277777,0,0,-0.35277777,22.971125,7.3928102)">
      <path
         d="M 0,0 4.015,2.226 6.247,-1.335 2.226,-2.67 0,0"
         style="fill:#f79bb8;fill-opacity:1;fill-rule:evenodd;stroke:none"
         id="path1334"
         inkscape:connector-curvature="0" />
    </g>
    <path
       d="m 22.971124,12.741275 h 2.517422 v -2.203097 h -2.517422 z"
       style="fill:#4d750c;fill-opacity:1;fill-rule:nonzero;stroke:none;stroke-width:0.352777"
       id="path1340"
       inkscape:connector-curvature="0" />
    <path
       d="m 22.971124,17.621956 h 2.046464 v -2.046111 h -2.046464 z"
       style="fill:#625c49;fill-opacity:1;fill-rule:nonzero;stroke:none;stroke-width:0.352777"
       id="path1346"
       inkscape:connector-curvature="0" />
    <path
       d="m 13.688835,24.859191 h 1.575153 v -1.888066 h -1.575153 z"
       style="fill:#d073ce;fill-opacity:1;fill-rule:nonzero;stroke:none;stroke-width:0.352777"
       id="path1352"
       inkscape:connector-curvature="0" />
    <path
       d="M 9.9141132,25.329797 H 11.79971 V 23.127758 H 9.9141132 Z"
       style="fill:#c94811;fill-opacity:1;fill-rule:nonzero;stroke:none;stroke-width:0.352777"
       id="path1358"
       inkscape:connector-curvature="0" />
    <path
       d="M 9.7571272,10.380839 H 11.328399 V 8.3347282 H 9.7571272 Z"
       style="fill:#0ea36c;fill-opacity:1;fill-rule:nonzero;stroke:none;stroke-width:0.352777"
       id="path1364"
       inkscape:connector-curvature="0" />
    <path
       d="m 75.519489,37.603994 h 2.042583 v -2.046111 h -2.042583 z"
       style="fill:#00ff00;fill-opacity:1;fill-rule:nonzero;stroke:none;stroke-width:0.352777"
       id="path1370"
       inkscape:connector-curvature="0" />
    <path
       d="m 40.120356,8.0211092 h 2.042583 v -2.046111 h -2.042583 z"
       style="fill:#ff0000;fill-opacity:1;fill-rule:nonzero;stroke:none;stroke-width:0.352777"
       id="path1376"
       inkscape:connector-curvature="0" />
  </g>
</svg>
