<?xml version="1.0" encoding="UTF-8" standalone="no"?>
<svg
   xmlns:dc="http://purl.org/dc/elements/1.1/"
   xmlns:cc="http://creativecommons.org/ns#"
   xmlns:rdf="http://www.w3.org/1999/02/22-rdf-syntax-ns#"
   xmlns:svg="http://www.w3.org/2000/svg"
   xmlns="http://www.w3.org/2000/svg"
   xmlns:sodipodi="http://sodipodi.sourceforge.net/DTD/sodipodi-0.dtd"
   xmlns:inkscape="http://www.inkscape.org/namespaces/inkscape"
   sodipodi:docname="moghaddam_planning_2016_benchmark_26.svg"
   inkscape:version="1.0alpha2 (62cc95fa7e, 2019-08-07)"
   id="svg3959"
   version="1.1"
   viewBox="0 0 210 297"
   height="297mm"
   width="210mm">
  <defs
     id="defs3953" />
  <sodipodi:namedview
     inkscape:window-maximized="0"
     inkscape:window-y="24"
     inkscape:window-x="0"
     inkscape:window-height="1028"
     inkscape:window-width="1862"
     showgrid="false"
     inkscape:document-rotation="0"
     inkscape:current-layer="layer1"
     inkscape:document-units="mm"
     inkscape:cy="560"
     inkscape:cx="400"
     inkscape:zoom="0.35"
     inkscape:pageshadow="2"
     inkscape:pageopacity="0.0"
     borderopacity="1.0"
     bordercolor="#666666"
     pagecolor="#ffffff"
     id="base" />
  <metadata
     id="metadata3956">
    <rdf:RDF>
      <cc:Work
         rdf:about="">
        <dc:format>image/svg+xml</dc:format>
        <dc:type
           rdf:resource="http://purl.org/dc/dcmitype/StillImage" />
        <dc:title></dc:title>
      </cc:Work>
    </rdf:RDF>
  </metadata>
  <g
     id="layer1"
     inkscape:groupmode="layer"
     inkscape:label="Layer 1">
    <g
       transform="matrix(0.35277777,0,0,-0.35277777,0,49.611843)"
       id="g202">
      <path
         inkscape:connector-curvature="0"
         id="path204"
         style="fill:#e6e6e6;fill-opacity:1;fill-rule:evenodd;stroke:none"
         d="M 0,0 V 140.632 H 121.188 V 0 H 15.773 V 2.515 H 118.672 V 16.866 H 60.593 v 2.508 h 58.079 V 58.837 H 60.593 v 2.518 h 58.079 v 39.821 H 60.593 v 2.864 h 58.079 v 33.727 H 2.508 v -15.786 h 58.085 v -3.587 H 2.508 V 80.001 H 60.593 V 76.778 H 2.508 V 37.673 H 60.593 V 34.798 H 2.508 V 0 H 0" />
    </g>
    <path
       inkscape:connector-curvature="0"
       id="path210"
       style="fill:#8ea309;fill-opacity:1;fill-rule:nonzero;stroke:none;stroke-width:0.352777"
       d="m 11.384495,5.1900674 h 5.311774 v -3.291063 h -5.311774 z" />
    <path
       inkscape:connector-curvature="0"
       id="path216"
       style="fill:#b52b97;fill-opacity:1;fill-rule:nonzero;stroke:none;stroke-width:0.352777"
       d="m 22.892458,11.38943 h 3.164064 V 6.5793054 h -3.164064 z" />
    <g
       transform="matrix(0.35277777,0,0,-0.35277777,13.914263,9.4911324)"
       id="g222">
      <path
         inkscape:connector-curvature="0"
         id="path224"
         style="fill:#9bc50e;fill-opacity:1;fill-rule:evenodd;stroke:none"
         d="M 0,0 H 6.454 V -15.786 H 21.151 V -29.42 H 0 V 0" />
    </g>
    <g
       transform="matrix(0.35277777,0,0,-0.35277777,26.05617,21.38927)"
       id="g230">
      <path
         inkscape:connector-curvature="0"
         id="path232"
         style="fill:#da6266;fill-opacity:1;fill-rule:evenodd;stroke:none"
         d="M 0,0 -7.887,-13.624 H 11.467 L 0,0" />
    </g>
    <g
       transform="matrix(0.35277777,0,0,-0.35277777,5.43807,26.06922)"
       id="g238">
      <path
         inkscape:connector-curvature="0"
         id="path240"
         style="fill:#538e4b;fill-opacity:1;fill-rule:evenodd;stroke:none"
         d="m 0,0 5.738,5.736 h 31.195 l 3.943,-5.02 -3.943,-5.381 H 5.738 L 7.888,0 H 0" />
    </g>
    <path
       inkscape:connector-curvature="0"
       id="path246"
       style="fill:#5d59a1;fill-opacity:1;fill-rule:nonzero;stroke:none;stroke-width:0.352777"
       d="m 17.075153,34.549643 h 3.922536 v -2.912179 h -3.922536 z" />
    <g
       transform="matrix(0.35277777,0,0,-0.35277777,25.041934,36.321647)"
       id="g252">
      <path
         inkscape:connector-curvature="0"
         id="path254"
         style="fill:#a9fdf1;fill-opacity:1;fill-rule:evenodd;stroke:none"
         d="m 0,0 h 10.762 l 4.664,-6.813 -4.664,-4.664 H 0 L -4.654,-6.813 0,0" />
    </g>
    <g
       transform="matrix(0.35277777,0,0,-0.35277777,12.142261,39.865299)"
       id="g260">
      <path
         inkscape:connector-curvature="0"
         id="path262"
         style="fill:#5931ea;fill-opacity:1;fill-rule:evenodd;stroke:none"
         d="M 0,0 13.626,2.149 18.648,-17.216 5.023,-19.732 0,0" />
    </g>
    <path
       inkscape:connector-curvature="0"
       id="path268"
       style="fill:#4a8cea;fill-opacity:1;fill-rule:nonzero;stroke:none;stroke-width:0.352777"
       d="M 3.66607,45.812426 H 6.5779 V 42.395068 H 3.66607 Z" />
    <g
       transform="matrix(0.35277777,0,0,-0.35277777,30.354061,45.559839)"
       id="g274">
      <path
         inkscape:connector-curvature="0"
         id="path276"
         style="fill:#17426d;fill-opacity:1;fill-rule:evenodd;stroke:none"
         d="M 0,0 H 6.097 V -5.381 L 0,0" />
    </g>
    <path
       inkscape:connector-curvature="0"
       id="path282"
       style="fill:#93e538;fill-opacity:1;fill-rule:nonzero;stroke:none;stroke-width:0.352777"
       d="m 34.529538,33.283876 h 3.542594 v -2.909004 h -3.542594 z" />
    <path
       inkscape:connector-curvature="0"
       id="path288"
       style="fill:#f76fc8;fill-opacity:1;fill-rule:nonzero;stroke:none;stroke-width:0.352777"
       d="M 2.40313,14.174611 H 6.70454 V 9.1115444 H 2.40313 Z" />
    <path
       inkscape:connector-curvature="0"
       id="path294"
       style="fill:#86546e;fill-opacity:1;fill-rule:nonzero;stroke:none;stroke-width:0.352777"
       d="m 35.543773,10.375194 h 2.781655 V 2.7827114 h -2.781655 z" />
    <path
       inkscape:connector-curvature="0"
       id="path300"
       style="fill:#00ff00;fill-opacity:1;fill-rule:nonzero;stroke:none;stroke-width:0.352777"
       d="M 3.66607,4.6813614 H 5.9436 V 2.4037924 H 3.66607 Z" />
    <path
       inkscape:connector-curvature="0"
       id="path306"
       style="fill:#ff0000;fill-opacity:1;fill-rule:nonzero;stroke:none;stroke-width:0.352777"
       d="m 37.185248,47.840193 h 2.150534 v -2.280354 h -2.150534 z" />
  </g>
</svg>
