<?xml version="1.0" encoding="UTF-8" standalone="no"?>
<svg
   xmlns:dc="http://purl.org/dc/elements/1.1/"
   xmlns:cc="http://creativecommons.org/ns#"
   xmlns:rdf="http://www.w3.org/1999/02/22-rdf-syntax-ns#"
   xmlns:svg="http://www.w3.org/2000/svg"
   xmlns="http://www.w3.org/2000/svg"
   xmlns:sodipodi="http://sodipodi.sourceforge.net/DTD/sodipodi-0.dtd"
   xmlns:inkscape="http://www.inkscape.org/namespaces/inkscape"
   sodipodi:docname="moghaddam_planning_2016_benchmark_16.svg"
   inkscape:version="1.0alpha2 (62cc95fa7e, 2019-08-07)"
   id="svg3269"
   version="1.1"
   viewBox="0 0 210 297"
   height="297mm"
   width="210mm">
  <defs
     id="defs3263" />
  <sodipodi:namedview
     inkscape:window-maximized="1"
     inkscape:window-y="24"
     inkscape:window-x="0"
     inkscape:window-height="1056"
     inkscape:window-width="1920"
     showgrid="false"
     inkscape:document-rotation="0"
     inkscape:current-layer="layer1"
     inkscape:document-units="mm"
     inkscape:cy="560"
     inkscape:cx="400"
     inkscape:zoom="0.35"
     inkscape:pageshadow="2"
     inkscape:pageopacity="0.0"
     borderopacity="1.0"
     bordercolor="#666666"
     pagecolor="#ffffff"
     id="base" />
  <metadata
     id="metadata3266">
    <rdf:RDF>
      <cc:Work
         rdf:about="">
        <dc:format>image/svg+xml</dc:format>
        <dc:type
           rdf:resource="http://purl.org/dc/dcmitype/StillImage" />
        <dc:title></dc:title>
      </cc:Work>
    </rdf:RDF>
  </metadata>
  <g
     id="layer1"
     inkscape:groupmode="layer"
     inkscape:label="Layer 1">
    <g
       id="g496"
       transform="matrix(0.35277777,0,0,-0.35277777,32.600899,32.603016)">
      <path
         d="m 0,0 h -89.4 v 37.418 h 49.723 v 3.516 H -89.4 v 12.81 h 35.909 v 3.764 H -89.4 v 30.641 h 47.71 V 53.744 h 15.817 v 3.764 H -36.418 V 88.149 H 0 V 57.508 H -9.298 V 53.744 H 0 V 40.934 H -23.608 V 37.418 H 0 V 10.294 H 5.015 V 92.418 H -92.412 V -3.769 H 0 V 0"
         style="fill:#e6e6e6;fill-opacity:1;fill-rule:evenodd;stroke:none"
         id="path498"
         inkscape:connector-curvature="0" />
    </g>
    <g
       id="g504"
       transform="matrix(0.35277777,0,0,-0.35277777,9.9193993,11.252902)">
      <path
         d="M 0,0 -6.024,6.534 12.306,17.332 18.083,9.799 0,0"
         style="fill:#d47dc2;fill-opacity:1;fill-rule:evenodd;stroke:none"
         id="path506"
         inkscape:connector-curvature="0" />
    </g>
    <path
       d="m 22.588709,8.5065279 h 5.49134 v -3.015191 h -5.49134 z"
       style="fill:#e9e637;fill-opacity:1;fill-rule:nonzero;stroke:none;stroke-width:0.352777"
       id="path512"
       inkscape:connector-curvature="0" />
    <path
       d="m 23.564489,17.189095 h 3.18594 v -2.657828 h -3.18594 z"
       style="fill:#8cc832;fill-opacity:1;fill-rule:nonzero;stroke:none;stroke-width:0.352777"
       id="path518"
       inkscape:connector-curvature="0" />
    <g
       id="g524"
       transform="matrix(0.35277777,0,0,-0.35277777,6.2879093,26.490786)">
      <path
         d="M 0,0 12.311,11.802 24.108,-0.5 12.311,-11.302 0,0"
         style="fill:#be7995;fill-opacity:1;fill-rule:evenodd;stroke:none"
         id="path526"
         inkscape:connector-curvature="0" />
    </g>
    <path
       d="m 2.6567693,5.4931009 h 2.03623 v -2.03835 h -2.03623 z"
       style="fill:#00ff00;fill-opacity:1;fill-rule:nonzero;stroke:none;stroke-width:0.352777"
       id="path532"
       inkscape:connector-curvature="0" />
    <path
       d="m 28.434239,4.9607589 h 2.12866 v -2.037997 h -2.12866 z"
       style="fill:#ff0000;fill-opacity:1;fill-rule:nonzero;stroke:none;stroke-width:0.352777"
       id="path538"
       inkscape:connector-curvature="0" />
  </g>
</svg>
