<?xml version="1.0" encoding="UTF-8" standalone="no"?>
<svg
   xmlns:dc="http://purl.org/dc/elements/1.1/"
   xmlns:cc="http://creativecommons.org/ns#"
   xmlns:rdf="http://www.w3.org/1999/02/22-rdf-syntax-ns#"
   xmlns:svg="http://www.w3.org/2000/svg"
   xmlns="http://www.w3.org/2000/svg"
   xmlns:sodipodi="http://sodipodi.sourceforge.net/DTD/sodipodi-0.dtd"
   xmlns:inkscape="http://www.inkscape.org/namespaces/inkscape"
   sodipodi:docname="moghaddam_planning_2016_benchmark_24.svg"
   inkscape:version="1.0alpha2 (62cc95fa7e, 2019-08-07)"
   id="svg3777"
   version="1.1"
   viewBox="0 0 210 297"
   height="297mm"
   width="210mm">
  <defs
     id="defs3771" />
  <sodipodi:namedview
     inkscape:window-maximized="0"
     inkscape:window-y="24"
     inkscape:window-x="0"
     inkscape:window-height="1028"
     inkscape:window-width="1920"
     showgrid="false"
     inkscape:document-rotation="0"
     inkscape:current-layer="layer1"
     inkscape:document-units="mm"
     inkscape:cy="560"
     inkscape:cx="400"
     inkscape:zoom="0.35"
     inkscape:pageshadow="2"
     inkscape:pageopacity="0.0"
     borderopacity="1.0"
     bordercolor="#666666"
     pagecolor="#ffffff"
     id="base" />
  <metadata
     id="metadata3774">
    <rdf:RDF>
      <cc:Work
         rdf:about="">
        <dc:format>image/svg+xml</dc:format>
        <dc:type
           rdf:resource="http://purl.org/dc/dcmitype/StillImage" />
        <dc:title></dc:title>
      </cc:Work>
    </rdf:RDF>
  </metadata>
  <g
     id="layer1"
     inkscape:groupmode="layer"
     inkscape:label="Layer 1">
    <g
       transform="matrix(0.35277777,0,0,-0.35277777,0,59.91366)"
       id="g28">
      <path
         inkscape:connector-curvature="0"
         id="path30"
         style="fill:#e6e6e6;fill-opacity:1;fill-rule:evenodd;stroke:none"
         d="M 0,0 V 169.834 H 119.652 V 0 h -96.9 v 3.365 h 49.292 v 44.256 h 4.64 V 3.365 h 38.341 V 97.342 H 57.298 v 4.218 h 57.727 v 64.481 H 72.044 v -39.199 h -5.469 v 39.199 H 4.218 v -29.08 h 30.757 v -5.06 H 4.218 V 72.481 H 47.61 V 67.422 H 4.218 V 0 H 0" />
    </g>
    <path
       inkscape:connector-curvature="0"
       id="path36"
       style="fill:#c7b597;fill-opacity:1;fill-rule:nonzero;stroke:none;stroke-width:0.352777"
       d="m 27.49762,9.3669508 h 4.46017 v -3.717572 h -4.46017 z" />
    <g
       transform="matrix(0.35277777,0,0,-0.35277777,32.4037,11.448693)"
       id="g42">
      <path
         inkscape:connector-curvature="0"
         id="path44"
         style="fill:#60646d;fill-opacity:1;fill-rule:evenodd;stroke:none"
         d="M 0,0 H 17.69 V -15.166 L 0,0" />
    </g>
    <path
       inkscape:connector-curvature="0"
       id="path50"
       style="fill:#6c387f;fill-opacity:1;fill-rule:nonzero;stroke:none;stroke-width:0.352777"
       d="m 24.67328,22.745695 h 4.01108 v -5.947128 h -4.01108 z" />
    <g
       transform="matrix(0.35277777,0,0,-0.35277777,10.25702,3.5683428)"
       id="g56">
      <path
         inkscape:connector-curvature="0"
         id="path58"
         style="fill:#0a900d;fill-opacity:1;fill-rule:evenodd;stroke:none"
         d="m 0,0 h 10.951 l 7.585,-13.064 H -6.323 L 0,0" />
    </g>
    <path
       inkscape:connector-curvature="0"
       id="path64"
       style="fill:#dedb56;fill-opacity:1;fill-rule:nonzero;stroke:none;stroke-width:0.352777"
       d="m 14.26845,16.79892 h 6.98747 v -4.459464 h -6.98747 z" />
    <g
       transform="matrix(0.35277777,0,0,-0.35277777,8.0264,19.328688)"
       id="g70">
      <path
         inkscape:connector-curvature="0"
         id="path72"
         style="fill:#f8f3fc;fill-opacity:1;fill-rule:evenodd;stroke:none"
         d="m 0,0 v -17.702 h 29.073 v 4.219 H 5.061 V 0 H 0" />
    </g>
    <path
       inkscape:connector-curvature="0"
       id="path78"
       style="fill:#28013f;fill-opacity:1;fill-rule:nonzero;stroke:none;stroke-width:0.352777"
       d="m 13.08065,32.855599 h 5.64797 v -5.498394 h -5.64797 z" />
    <g
       transform="matrix(0.35277777,0,0,-0.35277777,22.59083,30.329005)"
       id="g84">
      <path
         inkscape:connector-curvature="0"
         id="path86"
         style="fill:#583cc1;fill-opacity:1;fill-rule:evenodd;stroke:none"
         d="M 0,0 H 21.914 V -11.381 L 11.384,-21.067 0,-11.381 V 0" />
    </g>
    <path
       inkscape:connector-curvature="0"
       id="path92"
       style="fill:#3a7242;fill-opacity:1;fill-rule:nonzero;stroke:none;stroke-width:0.352777"
       d="M 23.03639,41.32932 H 37.75357 V 39.84166 H 23.03639 Z" />
    <g
       transform="matrix(0.35277777,0,0,-0.35277777,32.4037,42.81734)"
       id="g98">
      <path
         inkscape:connector-curvature="0"
         id="path100"
         style="fill:#58e603;fill-opacity:1;fill-rule:evenodd;stroke:none"
         d="M 0,0 H 19.372 L 0,-18.121 V 0" />
    </g>
    <g
       transform="matrix(0.35277777,0,0,-0.35277777,9.81146,40.88447)"
       id="g106">
      <path
         inkscape:connector-curvature="0"
         id="path108"
         style="fill:#2263d6;fill-opacity:1;fill-rule:evenodd;stroke:none"
         d="m 0,0 h 16.428 l 5.903,-12.222 -5.903,-12.64 H 0 L -5.061,-12.222 0,0" />
    </g>
    <g
       transform="matrix(0.35277777,0,0,-0.35277777,16.79575,50.99438)"
       id="g114">
      <path
         inkscape:connector-curvature="0"
         id="path116"
         style="fill:#36eef7;fill-opacity:1;fill-rule:evenodd;stroke:none"
         d="M 0,0 13.482,13.913 V 0 H 0" />
    </g>
    <path
       inkscape:connector-curvature="0"
       id="path122"
       style="fill:#60fb1f;fill-opacity:1;fill-rule:nonzero;stroke:none;stroke-width:0.352777"
       d="m 4.75721,55.8994 h 6.09353 V 51.73662 H 4.75721 Z" />
    <path
       inkscape:connector-curvature="0"
       id="path128"
       style="fill:#00ff00;fill-opacity:1;fill-rule:nonzero;stroke:none;stroke-width:0.352777"
       d="m 34.6329,56.19608 h 2.67194 V 53.52097 H 34.6329 Z" />
    <path
       inkscape:connector-curvature="0"
       id="path134"
       style="fill:#ff0000;fill-opacity:1;fill-rule:nonzero;stroke:none;stroke-width:0.352777"
       d="m 2.82399,6.5447288 h 2.52695 v -2.53044 H 2.82399 Z" />
  </g>
</svg>
