<?xml version="1.0" encoding="UTF-8" standalone="no"?>
<svg
   xmlns:dc="http://purl.org/dc/elements/1.1/"
   xmlns:cc="http://creativecommons.org/ns#"
   xmlns:rdf="http://www.w3.org/1999/02/22-rdf-syntax-ns#"
   xmlns:svg="http://www.w3.org/2000/svg"
   xmlns="http://www.w3.org/2000/svg"
   xmlns:sodipodi="http://sodipodi.sourceforge.net/DTD/sodipodi-0.dtd"
   xmlns:inkscape="http://www.inkscape.org/namespaces/inkscape"
   sodipodi:docname="moghaddam_planning_2016_benchmark_30.svg"
   inkscape:version="1.0alpha2 (62cc95fa7e, 2019-08-07)"
   id="svg4511"
   version="1.1"
   viewBox="0 0 210 297"
   height="297mm"
   width="210mm">
  <defs
     id="defs4505" />
  <sodipodi:namedview
     inkscape:window-maximized="1"
     inkscape:window-y="24"
     inkscape:window-x="0"
     inkscape:window-height="1056"
     inkscape:window-width="1920"
     showgrid="false"
     inkscape:document-rotation="0"
     inkscape:current-layer="layer1"
     inkscape:document-units="mm"
     inkscape:cy="560"
     inkscape:cx="400"
     inkscape:zoom="0.35"
     inkscape:pageshadow="2"
     inkscape:pageopacity="0.0"
     borderopacity="1.0"
     bordercolor="#666666"
     pagecolor="#ffffff"
     id="base" />
  <metadata
     id="metadata4508">
    <rdf:RDF>
      <cc:Work
         rdf:about="">
        <dc:format>image/svg+xml</dc:format>
        <dc:type
           rdf:resource="http://purl.org/dc/dcmitype/StillImage" />
        <dc:title></dc:title>
      </cc:Work>
    </rdf:RDF>
  </metadata>
  <g
     id="layer1"
     inkscape:groupmode="layer"
     inkscape:label="Layer 1">
    <g
       transform="matrix(0.35277777,0,0,-0.35277777,0,61.353699)"
       id="g626">
      <path
         inkscape:connector-curvature="0"
         id="path628"
         style="fill:#e6e6e6;fill-opacity:1;fill-rule:evenodd;stroke:none"
         d="m 0,0 v 173.916 h 174.76 v -2.51 H 2.091 V 0 H 0" />
    </g>
    <g
       transform="matrix(0.35277777,0,0,-0.35277777,6.9469,2.2172086)"
       id="g634">
      <path
         inkscape:connector-curvature="0"
         id="path636"
         style="fill:#1d7d99;fill-opacity:1;fill-rule:evenodd;stroke:none"
         d="M 0,0 V -10.895 H -14.669 V -13.41 H 2.522 V 0 H 0" />
    </g>
    <g
       transform="matrix(0.35277777,0,0,-0.35277777,1.772004,7.8355486)"
       id="g642">
      <path
         inkscape:connector-curvature="0"
         id="path644"
         style="fill:#17f9a7;fill-opacity:1;fill-rule:evenodd;stroke:none"
         d="M 0,0 H 30.595 V -17.605 H 17.191 V -2.928 H 0 V 0" />
    </g>
    <path
       inkscape:connector-curvature="0"
       id="path650"
       style="fill:#76dc43;fill-opacity:1;fill-rule:nonzero;stroke:none;stroke-width:0.352777"
       d="m 9.312981,6.8001386 h 11.827228 v -4.58187 H 9.312981 Z" />
    <g
       transform="matrix(0.35277777,0,0,-0.35277777,13.303956,7.8355486)"
       id="g656">
      <path
         inkscape:connector-curvature="0"
         id="path658"
         style="fill:#d254f0;fill-opacity:1;fill-rule:evenodd;stroke:none"
         d="M 0,0 H 25.569 V 15.926 H 35.626 V 0 h 14.67 v -46.936 h -14.67 v 18.02 H 14.669 V -6.705 H 0 V 0" />
    </g>
    <g
       transform="matrix(0.35277777,0,0,-0.35277777,7.836606,15.521159)"
       id="g664">
      <path
         inkscape:connector-curvature="0"
         id="path666"
         style="fill:#3ef482;fill-opacity:1;fill-rule:evenodd;stroke:none"
         d="M 0,0 H 15.498 V 10.886 H 26.4 V -11.732 H 44.419 V -25.15 H 0 V 0" />
    </g>
    <path
       inkscape:connector-curvature="0"
       id="path672"
       style="fill:#90fdc5;fill-opacity:1;fill-rule:nonzero;stroke:none;stroke-width:0.352777"
       d="m 1.772003,30.751289 h 5.027436 v -20.4022 H 1.772003 Z" />
    <g
       transform="matrix(0.35277777,0,0,-0.35277777,7.836606,25.870249)"
       id="g678">
      <path
         inkscape:connector-curvature="0"
         id="path680"
         style="fill:#500f0b;fill-opacity:1;fill-rule:evenodd;stroke:none"
         d="M 0,0 H 70.816 V 54.056 H 54.475 V 67.047 H 75.85 V -13.836 H 0 V 0" />
    </g>
    <g
       transform="matrix(0.35277777,0,0,-0.35277777,1.772004,31.930969)"
       id="g686">
      <path
         inkscape:connector-curvature="0"
         id="path688"
         style="fill:#cf6962;fill-opacity:1;fill-rule:evenodd;stroke:none"
         d="m 0,0 h 97.238 v 84.227 h 7.534 V 60.76 h 12.996 V 46.515 H 104.772 V 26.393 h 12.996 V 12.152 H 104.772 V -6.705 H 86.751 V -18.438 H 72.085 v 11.733 h -17.6 V -18.438 H 34.372 V -6.705 H 9.229 V -18.438 H 0 V 0" />
    </g>
    <g
       transform="matrix(0.35277777,0,0,-0.35277777,39.770756,2.2172086)"
       id="g694">
      <path
         inkscape:connector-curvature="0"
         id="path696"
         style="fill:#85e368;fill-opacity:1;fill-rule:evenodd;stroke:none"
         d="M 0,0 V -19.691 H 10.055 L 0,0" />
    </g>
    <g
       transform="matrix(0.35277777,0,0,-0.35277777,39.770756,16.852899)"
       id="g702">
      <path
         inkscape:connector-curvature="0"
         id="path704"
         style="fill:#9a1856;fill-opacity:1;fill-rule:evenodd;stroke:none"
         d="M 0,0 H 10.055 V -13.408 L 0,0" />
    </g>
    <g
       transform="matrix(0.35277777,0,0,-0.35277777,39.770756,28.828649)"
       id="g710">
      <path
         inkscape:connector-curvature="0"
         id="path712"
         style="fill:#253e61;fill-opacity:1;fill-rule:evenodd;stroke:none"
         d="M 0,0 V -15.499 H 9.637 L 0,0" />
    </g>
    <g
       transform="matrix(0.35277777,0,0,-0.35277777,33.4137,35.628789)"
       id="g718">
      <path
         inkscape:connector-curvature="0"
         id="path720"
         style="fill:#4537a2;fill-opacity:1;fill-rule:evenodd;stroke:none"
         d="M 0,0 H 15.079 V -7.956 L 0,0" />
    </g>
    <path
       inkscape:connector-curvature="0"
       id="path726"
       style="fill:#cc35e5;fill-opacity:1;fill-rule:nonzero;stroke:none;stroke-width:0.352777"
       d="m 22.324131,38.435489 h 3.400072 v -2.6603 h -3.400072 z" />
    <path
       inkscape:connector-curvature="0"
       id="path732"
       style="fill:#be89f7;fill-opacity:1;fill-rule:nonzero;stroke:none;stroke-width:0.352777"
       d="m 5.7658,38.435489 h 6.651978 v -2.6603 H 5.7658 Z" />
    <path
       inkscape:connector-curvature="0"
       id="path738"
       style="fill:#00ff00;fill-opacity:1;fill-rule:nonzero;stroke:none;stroke-width:0.352777"
       d="m 58.101087,58.838039 h 1.775532 v -1.92264 h -1.775532 z" />
    <path
       inkscape:connector-curvature="0"
       id="path744"
       style="fill:#ff0000;fill-opacity:1;fill-rule:nonzero;stroke:none;stroke-width:0.352777"
       d="m 2.80917,4.4347686 h 1.919464 v -1.92193 H 2.80917 Z" />
  </g>
</svg>
