<?xml version="1.0" encoding="UTF-8" standalone="no"?>
<svg
   xmlns:dc="http://purl.org/dc/elements/1.1/"
   xmlns:cc="http://creativecommons.org/ns#"
   xmlns:rdf="http://www.w3.org/1999/02/22-rdf-syntax-ns#"
   xmlns:svg="http://www.w3.org/2000/svg"
   xmlns="http://www.w3.org/2000/svg"
   xmlns:sodipodi="http://sodipodi.sourceforge.net/DTD/sodipodi-0.dtd"
   xmlns:inkscape="http://www.inkscape.org/namespaces/inkscape"
   sodipodi:docname="moghaddam_planning_2016_benchmark_12.svg"
   inkscape:version="1.0alpha2 (62cc95fa7e, 2019-08-07)"
   id="svg2939"
   version="1.1"
   viewBox="0 0 210 297"
   height="297mm"
   width="210mm">
  <defs
     id="defs2933" />
  <sodipodi:namedview
     inkscape:window-maximized="0"
     inkscape:window-y="24"
     inkscape:window-x="0"
     inkscape:window-height="1028"
     inkscape:window-width="1862"
     showgrid="false"
     inkscape:document-rotation="0"
     inkscape:current-layer="layer1"
     inkscape:document-units="mm"
     inkscape:cy="560"
     inkscape:cx="400"
     inkscape:zoom="0.35"
     inkscape:pageshadow="2"
     inkscape:pageopacity="0.0"
     borderopacity="1.0"
     bordercolor="#666666"
     pagecolor="#ffffff"
     id="base" />
  <metadata
     id="metadata2936">
    <rdf:RDF>
      <cc:Work
         rdf:about="">
        <dc:format>image/svg+xml</dc:format>
        <dc:type
           rdf:resource="http://purl.org/dc/dcmitype/StillImage" />
        <dc:title></dc:title>
      </cc:Work>
    </rdf:RDF>
  </metadata>
  <g
     id="layer1"
     inkscape:groupmode="layer"
     inkscape:label="Layer 1">
    <g
       id="g180"
       transform="matrix(0.35277777,0,0,-0.35277777,0,28.69071)">
      <path
         d="M 0,0 V 81.328 H 144.143 V -8.048 H 6.928 v 0.833 H 26.609 V 9.158 h 1.66 V -7.215 h 62.373 v 33.028 h 1.387 V -7.215 h 26.055 V 36.64 h 1.392 V -7.215 h 23.557 v 87.71 H 111.156 V 47.74 h -1.105 V 80.495 H 91.474 V 35.53 H 90.086 V 80.495 H 59.041 V 55.237 H 57.654 V 80.495 H 28.83 V 23.598 H 27.437 V 80.495 H 0.827 V 59.123 H 21.064 V 58.018 H 0.827 V 28.865 H 21.064 V 27.478 H 0.827 V 0 H 0"
         style="fill:#e6e6e6;fill-opacity:1;fill-rule:evenodd;stroke:none"
         id="path182"
         inkscape:connector-curvature="0" />
    </g>
    <path
       d="m 10.46409,9.2043245 h 6.84353 v -0.489691 h -6.84353 z"
       style="fill:#e6e6e6;fill-opacity:1;fill-rule:nonzero;stroke:none;stroke-width:0.352777"
       id="path188"
       inkscape:connector-curvature="0" />
    <path
       d="m 13.39567,19.09339 h 18.87396 v -0.2921 H 13.39567 Z"
       style="fill:#e6e6e6;fill-opacity:1;fill-rule:nonzero;stroke:none;stroke-width:0.352777"
       id="path194"
       inkscape:connector-curvature="0" />
    <path
       d="m 20.3394,18.605499 h 0.68509 V 12.43471 H 20.3394 Z"
       style="fill:#e6e6e6;fill-opacity:1;fill-rule:nonzero;stroke:none;stroke-width:0.352777"
       id="path200"
       inkscape:connector-curvature="0" />
    <path
       d="m 28.45576,11.849099 h 3.03318 v -0.687211 h -3.03318 z"
       style="fill:#e6e6e6;fill-opacity:1;fill-rule:nonzero;stroke:none;stroke-width:0.352777"
       id="path206"
       inkscape:connector-curvature="0" />
    <path
       d="m 32.66333,14.296671 h 5.17984 v -0.491419 h -5.17984 z"
       style="fill:#e6e6e6;fill-opacity:1;fill-rule:nonzero;stroke:none;stroke-width:0.352777"
       id="path212"
       inkscape:connector-curvature="0" />
    <path
       d="m 39.40915,4.7007635 h 6.65163 v -0.491067 h -6.65163 z"
       style="fill:#e6e6e6;fill-opacity:1;fill-rule:nonzero;stroke:none;stroke-width:0.352777"
       id="path218"
       inkscape:connector-curvature="0" />
    <path
       d="m 20.3394,25.459971 h 0.68509 V 19.484974 H 20.3394 Z"
       style="fill:#e6e6e6;fill-opacity:1;fill-rule:nonzero;stroke:none;stroke-width:0.352777"
       id="path224"
       inkscape:connector-curvature="0" />
    <path
       d="M 5.6709,7.3441265 H 8.99583 V 5.9735855 H 5.6709 Z"
       style="fill:#511cd4;fill-opacity:1;fill-rule:nonzero;stroke:none;stroke-width:0.352777"
       id="path230"
       inkscape:connector-curvature="0" />
    <g
       id="g236"
       transform="matrix(0.35277777,0,0,-0.35277777,2.93334,4.5053255)">
      <path
         d="M 0,0 -1.11,2.498 0.833,5.001 H 4.44 L 5.823,2.498 4.44,0 H 0"
         style="fill:#f838b4;fill-opacity:1;fill-rule:evenodd;stroke:none"
         id="path238"
         inkscape:connector-curvature="0" />
    </g>
    <path
       d="m 7.23723,13.315596 h 1.7586 V 9.1062515 h -1.7586 z"
       style="fill:#0a9dab;fill-opacity:1;fill-rule:nonzero;stroke:none;stroke-width:0.352777"
       id="path244"
       inkscape:connector-curvature="0" />
    <path
       d="M 0.97895,15.764932 H 5.18301 V 14.296671 H 0.97895 Z"
       style="fill:#090124;fill-opacity:1;fill-rule:nonzero;stroke:none;stroke-width:0.352777"
       id="path250"
       inkscape:connector-curvature="0" />
    <path
       d="M 5.47687,30.257044 H 8.99759 V 27.80947 H 5.47687 Z"
       style="fill:#dc4688;fill-opacity:1;fill-rule:nonzero;stroke:none;stroke-width:0.352777"
       id="path256"
       inkscape:connector-curvature="0" />
    <path
       d="M 14.86429,30.942489 H 20.0473 V 28.69071 h -5.18301 z"
       style="fill:#859155;fill-opacity:1;fill-rule:nonzero;stroke:none;stroke-width:0.352777"
       id="path262"
       inkscape:connector-curvature="0" />
    <path
       d="m 10.95198,22.030265 h 2.15194 v -1.956153 h -2.15194 z"
       style="fill:#696afb;fill-opacity:1;fill-rule:nonzero;stroke:none;stroke-width:0.352777"
       id="path268"
       inkscape:connector-curvature="0" />
    <path
       d="m 22.58906,25.459971 h 2.24825 v -5.58165 h -2.24825 z"
       style="fill:#0f65ca;fill-opacity:1;fill-rule:nonzero;stroke:none;stroke-width:0.352777"
       id="path274"
       inkscape:connector-curvature="0" />
    <path
       d="m 26.79311,30.650037 h 2.44722 v -5.190066 h -2.44722 z"
       style="fill:#984fe6;fill-opacity:1;fill-rule:nonzero;stroke:none;stroke-width:0.352777"
       id="path280"
       inkscape:connector-curvature="0" />
    <path
       d="M 14.86429,11.849099 H 20.0473 V 9.6936265 h -5.18301 z"
       style="fill:#1851e2;fill-opacity:1;fill-rule:nonzero;stroke:none;stroke-width:0.352777"
       id="path286"
       inkscape:connector-curvature="0" />
    <g
       id="g292"
       transform="matrix(0.35277777,0,0,-0.35277777,12.61603,12.336637)">
      <path
         d="m 0,0 -3.33,-3.613 6.372,-8.325 3.331,2.77 L 0,0"
         style="fill:#a8af79;fill-opacity:1;fill-rule:evenodd;stroke:none"
         id="path294"
         inkscape:connector-curvature="0" />
    </g>
    <path
       d="m 11.92917,7.1500995 h 4.89127 v -2.155825 h -4.89127 z"
       style="fill:#24f2e1;fill-opacity:1;fill-rule:nonzero;stroke:none;stroke-width:0.352777"
       id="path300"
       inkscape:connector-curvature="0" />
    <path
       d="m 21.61187,6.4628885 h 1.95615 v -4.797072 h -1.95615 z"
       style="fill:#70d553;fill-opacity:1;fill-rule:nonzero;stroke:none;stroke-width:0.352777"
       id="path306"
       inkscape:connector-curvature="0" />
    <g
       id="g312"
       transform="matrix(0.35277777,0,0,-0.35277777,28.94682,14.100527)">
      <path
         d="M 0,0 H 5.822 V -10.545 L 0,-11.1 V 0"
         style="fill:#5ecb19;fill-opacity:1;fill-rule:evenodd;stroke:none"
         id="path314"
         inkscape:connector-curvature="0" />
    </g>
    <g
       id="g320"
       transform="matrix(0.35277777,0,0,-0.35277777,24.83731,14.785973)">
      <path
         d="M 0,0 -1.382,2.775 V 5.55 L 2.78,7.498 5.545,6.105 6.66,2.775 5.545,0.555 3.33,-1.382 0,0"
         style="fill:#f3004b;fill-opacity:1;fill-rule:evenodd;stroke:none"
         id="path322"
         inkscape:connector-curvature="0" />
    </g>
    <g
       id="g328"
       transform="matrix(0.35277777,0,0,-0.35277777,33.44474,24.283456)">
      <path
         d="M 0,0 1.937,1.942 H 5.54 L 6.372,-0.833 5.54,-4.163 2.775,-4.995 0.549,-3.613 0,0"
         style="fill:#0c71c9;fill-opacity:1;fill-rule:evenodd;stroke:none"
         id="path330"
         inkscape:connector-curvature="0" />
    </g>
    <path
       d="m 38.43196,20.855515 h 2.25001 v -4.209697 h -2.25001 z"
       style="fill:#e988cd;fill-opacity:1;fill-rule:nonzero;stroke:none;stroke-width:0.352777"
       id="path336"
       inkscape:connector-curvature="0" />
    <path
       d="m 36.47792,30.257044 h 4.20405 v -1.762125 h -4.20405 z"
       style="fill:#8fbf02;fill-opacity:1;fill-rule:nonzero;stroke:none;stroke-width:0.352777"
       id="path342"
       inkscape:connector-curvature="0" />
    <path
       d="m 43.02795,2.7410825 h 5.28108 v -1.566368 h -5.28108 z"
       style="fill:#7a404f;fill-opacity:1;fill-rule:nonzero;stroke:none;stroke-width:0.352777"
       id="path348"
       inkscape:connector-curvature="0" />
    <path
       d="m 33.24895,10.380485 h 1.85808 V 5.4821655 h -1.85808 z"
       style="fill:#f73585;fill-opacity:1;fill-rule:nonzero;stroke:none;stroke-width:0.352777"
       id="path354"
       inkscape:connector-curvature="0" />
    <path
       d="m 41.16951,9.8911825 h 6.16056 v -1.665817 h -6.16056 z"
       style="fill:#3a91ff;fill-opacity:1;fill-rule:nonzero;stroke:none;stroke-width:0.352777"
       id="path360"
       inkscape:connector-curvature="0" />
    <path
       d="m 43.61356,17.527057 h 4.89091 v -1.76216 h -4.89091 z"
       style="fill:#22f320;fill-opacity:1;fill-rule:nonzero;stroke:none;stroke-width:0.352777"
       id="path366"
       inkscape:connector-curvature="0" />
    <path
       d="M 6.64986,2.9351105 H 7.92091 V 1.6658165 H 6.64986 Z"
       style="fill:#00ff00;fill-opacity:1;fill-rule:nonzero;stroke:none;stroke-width:0.352777"
       id="path372"
       inkscape:connector-curvature="0" />
    <path
       d="M 44.88426,25.264179 H 46.2548 V 23.991357 H 44.88426 Z"
       style="fill:#ff0000;fill-opacity:1;fill-rule:nonzero;stroke:none;stroke-width:0.352777"
       id="path378"
       inkscape:connector-curvature="0" />
  </g>
</svg>
