<?xml version="1.0" encoding="UTF-8" standalone="no"?>
<svg
   xmlns:dc="http://purl.org/dc/elements/1.1/"
   xmlns:cc="http://creativecommons.org/ns#"
   xmlns:rdf="http://www.w3.org/1999/02/22-rdf-syntax-ns#"
   xmlns:svg="http://www.w3.org/2000/svg"
   xmlns="http://www.w3.org/2000/svg"
   xmlns:sodipodi="http://sodipodi.sourceforge.net/DTD/sodipodi-0.dtd"
   xmlns:inkscape="http://www.inkscape.org/namespaces/inkscape"
   sodipodi:docname="moghaddam_planning_2016_benchmark_03.svg"
   inkscape:version="1.0alpha2 (62cc95fa7e, 2019-08-07)"
   id="svg1372"
   version="1.1"
   viewBox="0 0 210 297"
   height="297mm"
   width="210mm">
  <defs
     id="defs1366" />
  <sodipodi:namedview
     inkscape:window-maximized="0"
     inkscape:window-y="1104"
     inkscape:window-x="989"
     inkscape:window-height="1028"
     inkscape:window-width="1721"
     showgrid="false"
     inkscape:document-rotation="0"
     inkscape:current-layer="layer1"
     inkscape:document-units="mm"
     inkscape:cy="154.22624"
     inkscape:cx="131.59063"
     inkscape:zoom="1.979899"
     inkscape:pageshadow="2"
     inkscape:pageopacity="0.0"
     borderopacity="1.0"
     bordercolor="#666666"
     pagecolor="#ffffff"
     id="base" />
  <metadata
     id="metadata1369">
    <rdf:RDF>
      <cc:Work
         rdf:about="">
        <dc:format>image/svg+xml</dc:format>
        <dc:type
           rdf:resource="http://purl.org/dc/dcmitype/StillImage" />
        <dc:title></dc:title>
      </cc:Work>
    </rdf:RDF>
  </metadata>
  <g
     id="layer1"
     inkscape:groupmode="layer"
     inkscape:label="Layer 1">
    <g
       id="g154"
       transform="matrix(0.35277777,0,0,-0.35277777,0,18.844683)">
      <path
         d="M 0,0 V 53.418 H 153.423 V -54.312 H 0.595 v 1.794 h 151.04 V 51.631 H 1.795 V 0 H 0"
         style="fill:#e6e6e6;fill-opacity:1;fill-rule:evenodd;stroke:none"
         id="path156"
         inkscape:connector-curvature="0" />
    </g>
    <path
       d="m 34.537647,36.846578 h 4.319059 v -7.684909 h -4.319059 z"
       style="fill:#e6e6e6;fill-opacity:1;fill-rule:nonzero;stroke:none;stroke-width:0.352777"
       id="path162"
       inkscape:connector-curvature="0" />
    <path
       d="m 34.537647,10.948106 h 4.319059 V 0.94897192 h -4.319059 z"
       style="fill:#e6e6e6;fill-opacity:1;fill-rule:nonzero;stroke:none;stroke-width:0.352777"
       id="path168"
       inkscape:connector-curvature="0" />
    <path
       d="M 0.209902,22.738291 H 13.584765 V 19.370287 H 0.209902 Z"
       style="fill:#e6e6e6;fill-opacity:1;fill-rule:nonzero;stroke:none;stroke-width:0.352777"
       id="path174"
       inkscape:connector-curvature="0" />
    <g
       id="g180"
       transform="matrix(0.35277777,0,0,-0.35277777,41.172691,13.159671)">
      <path
         d="M 0,0 -3.285,10.144 10.451,14.626 14.324,3.882 0,0"
         style="fill:#fe5c9f;fill-opacity:1;fill-rule:evenodd;stroke:none"
         id="path182"
         inkscape:connector-curvature="0" />
    </g>
    <path
       d="m 46.648156,7.6842049 h 4.529666 v -2.41935 h -4.529666 z"
       style="fill:#64028b;fill-opacity:1;fill-rule:nonzero;stroke:none;stroke-width:0.352777"
       id="path188"
       inkscape:connector-curvature="0" />
    <g
       id="g194"
       transform="matrix(0.35277777,0,0,-0.35277777,40.013816,19.580224)">
      <path
         d="M 0,0 13.132,9.546 18.806,2.085 5.373,-7.164 0,0"
         style="fill:#823f0c;fill-opacity:1;fill-rule:evenodd;stroke:none"
         id="path196"
         inkscape:connector-curvature="0" />
    </g>
    <g
       id="g202"
       transform="matrix(0.35277777,0,0,-0.35277777,46.648156,20.949001)">
      <path
         d="M 0,0 -7.162,-5.072 3.88,-22.082 9.848,-18.21 0,0"
         style="fill:#d70c51;fill-opacity:1;fill-rule:evenodd;stroke:none"
         id="path204"
         inkscape:connector-curvature="0" />
    </g>
    <g
       id="g210"
       transform="matrix(0.35277777,0,0,-0.35277777,40.540162,31.371469)">
      <path
         d="M 0,0 H 22.385 V -9.853 L 0,0"
         style="fill:#c8f896;fill-opacity:1;fill-rule:evenodd;stroke:none"
         id="path212"
         inkscape:connector-curvature="0" />
    </g>
    <path
       d="m 29.169077,19.79048 h 7.053789 v -3.158066 h -7.053789 z"
       style="fill:#c6baa6;fill-opacity:1;fill-rule:nonzero;stroke:none;stroke-width:0.352777"
       id="path218"
       inkscape:connector-curvature="0" />
    <g
       id="g224"
       transform="matrix(0.35277777,0,0,-0.35277777,36.222866,22.738291)">
      <path
         d="m 0,0 3.884,-8.357 -20.897,-11.639 -3.878,8.357 L 0,0"
         style="fill:#a9ef88;fill-opacity:1;fill-rule:evenodd;stroke:none"
         id="path226"
         inkscape:connector-curvature="0" />
    </g>
    <path
       d="m 23.166915,14.843831 h 7.792507 v -3.896078 h -7.792507 z"
       style="fill:#66ab70;fill-opacity:1;fill-rule:nonzero;stroke:none;stroke-width:0.352777"
       id="path232"
       inkscape:connector-curvature="0" />
    <path
       d="m 24.113418,10.002308 h 9.267471 V 5.8959749 h -9.267471 z"
       style="fill:#22708c;fill-opacity:1;fill-rule:nonzero;stroke:none;stroke-width:0.352777"
       id="path238"
       inkscape:connector-curvature="0" />
    <path
       d="m 23.166915,30.5308 h 3.157714 v -2.948165 h -3.157714 z"
       style="fill:#6566c0;fill-opacity:1;fill-rule:nonzero;stroke:none;stroke-width:0.352777"
       id="path244"
       inkscape:connector-curvature="0" />
    <path
       d="m 18.216031,30.5308 h 3.581048 v -2.948165 h -3.581048 z"
       style="fill:#857d17;fill-opacity:1;fill-rule:nonzero;stroke:none;stroke-width:0.352777"
       id="path250"
       inkscape:connector-curvature="0" />
    <path
       d="m 12.424832,28.0035 h 3.896077 v -4.106686 h -3.896077 z"
       style="fill:#4072a3;fill-opacity:1;fill-rule:nonzero;stroke:none;stroke-width:0.352777"
       id="path256"
       inkscape:connector-curvature="0" />
    <path
       d="m 14.533032,18.844683 h 7.054144 v -4.001558 h -7.054144 z"
       style="fill:#b5fdee;fill-opacity:1;fill-rule:nonzero;stroke:none;stroke-width:0.352777"
       id="path262"
       inkscape:connector-curvature="0" />
    <path
       d="m 1.264002,18.844683 h 9.793463 V 14.843125 H 1.264002 Z"
       style="fill:#18f32a;fill-opacity:1;fill-rule:nonzero;stroke:none;stroke-width:0.352777"
       id="path268"
       inkscape:connector-curvature="0" />
    <g
       id="g274"
       transform="matrix(0.35277777,0,0,-0.35277777,8.636704,2.9478119)">
      <path
         d="m 0,0 -17.612,-17.605 5.971,-7.46 L 7.161,-7.759 0,0"
         style="fill:#f7983d;fill-opacity:1;fill-rule:evenodd;stroke:none"
         id="path276"
         inkscape:connector-curvature="0" />
    </g>
    <g
       id="g282"
       transform="matrix(0.35277777,0,0,-0.35277777,15.268927,1.7892889)">
      <path
         d="m 0,0 -5.37,-8.654 11.638,-8.95 5.971,8.95 L 0,0"
         style="fill:#124dcf;fill-opacity:1;fill-rule:evenodd;stroke:none"
         id="path284"
         inkscape:connector-curvature="0" />
    </g>
    <path
       d="m 40.963141,5.0524829 h 2.315633 v -2.314575 h -2.315633 z"
       style="fill:#00ff00;fill-opacity:1;fill-rule:nonzero;stroke:none;stroke-width:0.352777"
       id="path290"
       inkscape:connector-curvature="0" />
    <path
       d="M 2.210857,4.5261389 H 4.530018 V 2.1036139 H 2.210857 Z"
       style="fill:#ff0000;fill-opacity:1;fill-rule:nonzero;stroke:none;stroke-width:0.352777"
       id="path296"
       inkscape:connector-curvature="0" />
  </g>
</svg>
