<?xml version="1.0" encoding="UTF-8" standalone="no"?>
<svg
   xmlns:dc="http://purl.org/dc/elements/1.1/"
   xmlns:cc="http://creativecommons.org/ns#"
   xmlns:rdf="http://www.w3.org/1999/02/22-rdf-syntax-ns#"
   xmlns:svg="http://www.w3.org/2000/svg"
   xmlns="http://www.w3.org/2000/svg"
   xmlns:sodipodi="http://sodipodi.sourceforge.net/DTD/sodipodi-0.dtd"
   xmlns:inkscape="http://www.inkscape.org/namespaces/inkscape"
   sodipodi:docname="moghaddam_planning_2016_benchmark_27.svg"
   inkscape:version="1.0alpha2 (62cc95fa7e, 2019-08-07)"
   id="svg4055"
   version="1.1"
   viewBox="0 0 210 297"
   height="297mm"
   width="210mm">
  <defs
     id="defs4049" />
  <sodipodi:namedview
     inkscape:window-maximized="1"
     inkscape:window-y="24"
     inkscape:window-x="0"
     inkscape:window-height="1056"
     inkscape:window-width="1920"
     showgrid="false"
     inkscape:document-rotation="0"
     inkscape:current-layer="layer1"
     inkscape:document-units="mm"
     inkscape:cy="560"
     inkscape:cx="400"
     inkscape:zoom="0.35"
     inkscape:pageshadow="2"
     inkscape:pageopacity="0.0"
     borderopacity="1.0"
     bordercolor="#666666"
     pagecolor="#ffffff"
     id="base" />
  <metadata
     id="metadata4052">
    <rdf:RDF>
      <cc:Work
         rdf:about="">
        <dc:format>image/svg+xml</dc:format>
        <dc:type
           rdf:resource="http://purl.org/dc/dcmitype/StillImage" />
        <dc:title></dc:title>
      </cc:Work>
    </rdf:RDF>
  </metadata>
  <g
     id="layer1"
     inkscape:groupmode="layer"
     inkscape:label="Layer 1">
    <g
       transform="matrix(0.35277777,0,0,-0.35277777,0.58667,22.338947)"
       id="g310">
      <path
         inkscape:connector-curvature="0"
         id="path312"
         style="fill:#e6e6e6;fill-opacity:1;fill-rule:evenodd;stroke:none"
         d="M 0,0 V 63.323 H 169.874 V -107.066 H 0 V -43.74 H 8.744 V -87.073 H 161.967 V 43.32 H 8.744 V 0 H 0" />
    </g>
    <g
       transform="matrix(0.35277777,0,0,-0.35277777,5.434895,33.951331)"
       id="g318">
      <path
         inkscape:connector-curvature="0"
         id="path320"
         style="fill:#d7822a;fill-opacity:1;fill-rule:evenodd;stroke:none"
         d="M 0,0 V 47.074 H 79.941 V 10.835 H 71.203 V 32.917 H 57.458 V 10.835 H 49.545 V 32.917 H 35.386 V 10.835 H 27.893 V 32.917 H 5.832 V 0 H 0" />
    </g>
    <g
       transform="matrix(0.35277777,0,0,-0.35277777,9.253009,24.836965)"
       id="g326">
      <path
         inkscape:connector-curvature="0"
         id="path328"
         style="fill:#b6e738;fill-opacity:1;fill-rule:evenodd;stroke:none"
         d="M 0,0 H 12.079 V -18.748 H 27.901 V 0 h 7.912 V -18.748 H 49.545 V 0.416 h 7.912 V -25.836 H 35.813 v 4.169 H 19.574 v -4.169 H 0 V 0" />
    </g>
    <g
       transform="matrix(0.35277777,0,0,-0.35277777,17.478373,33.360429)"
       id="g334">
      <path
         inkscape:connector-curvature="0"
         id="path336"
         style="fill:#de36d5;fill-opacity:1;fill-rule:evenodd;stroke:none"
         d="M 0,0 H 7.912 V -6.249 H 37.064 V 4.998 H 50.796 V -22.914 H 37.064 v 10.416 H 24.151 v -10.416 h -4.989 v 10.416 H 7.912 v -9.584 H 0 V 0" />
    </g>
    <g
       transform="matrix(0.35277777,0,0,-0.35277777,21.593528,38.94737)"
       id="g342">
      <path
         inkscape:connector-curvature="0"
         id="path344"
         style="fill:#db857a;fill-opacity:1;fill-rule:evenodd;stroke:none"
         d="M 0,0 H 4.574 V -24.991 H -47.467 V 7.08 h 32.06 V -15.002 H 0 V 0" />
    </g>
    <g
       transform="matrix(0.35277777,0,0,-0.35277777,27.175881,38.94737)"
       id="g350">
      <path
         inkscape:connector-curvature="0"
         id="path352"
         style="fill:#e31182;fill-opacity:1;fill-rule:evenodd;stroke:none"
         d="m 0,0 h 6.651 v -12.495 h 20.405 v 40.41 h 7.081 V -18.327 H 0 V 0" />
    </g>
    <path
       inkscape:connector-curvature="0"
       id="path358"
       style="fill:#00ff00;fill-opacity:1;fill-rule:nonzero;stroke:none;stroke-width:0.352777"
       d="m 52.290133,33.066919 h 2.204154 v -2.204154 h -2.204154 z" />
    <path
       inkscape:connector-curvature="0"
       id="path364"
       style="fill:#ff0000;fill-opacity:1;fill-rule:nonzero;stroke:none;stroke-width:0.352777"
       d="m 0,31.010577 h 2.350911 v -2.35091 H 0 Z" />
  </g>
</svg>
