<?xml version="1.0" encoding="UTF-8" standalone="no"?>
<svg
   xmlns:dc="http://purl.org/dc/elements/1.1/"
   xmlns:cc="http://creativecommons.org/ns#"
   xmlns:rdf="http://www.w3.org/1999/02/22-rdf-syntax-ns#"
   xmlns:svg="http://www.w3.org/2000/svg"
   xmlns="http://www.w3.org/2000/svg"
   xmlns:sodipodi="http://sodipodi.sourceforge.net/DTD/sodipodi-0.dtd"
   xmlns:inkscape="http://www.inkscape.org/namespaces/inkscape"
   sodipodi:docname="moghaddam_planning_2016_benchmark_29.svg"
   inkscape:version="1.0alpha2 (62cc95fa7e, 2019-08-07)"
   id="svg4217"
   version="1.1"
   viewBox="0 0 210 297"
   height="297mm"
   width="210mm">
  <defs
     id="defs4211" />
  <sodipodi:namedview
     inkscape:window-maximized="1"
     inkscape:window-y="24"
     inkscape:window-x="0"
     inkscape:window-height="1056"
     inkscape:window-width="1920"
     showgrid="false"
     inkscape:document-rotation="0"
     inkscape:current-layer="layer1"
     inkscape:document-units="mm"
     inkscape:cy="560"
     inkscape:cx="400"
     inkscape:zoom="0.35"
     inkscape:pageshadow="2"
     inkscape:pageopacity="0.0"
     borderopacity="1.0"
     bordercolor="#666666"
     pagecolor="#ffffff"
     id="base" />
  <metadata
     id="metadata4214">
    <rdf:RDF>
      <cc:Work
         rdf:about="">
        <dc:format>image/svg+xml</dc:format>
        <dc:type
           rdf:resource="http://purl.org/dc/dcmitype/StillImage" />
        <dc:title></dc:title>
      </cc:Work>
    </rdf:RDF>
  </metadata>
  <g
     id="layer1"
     inkscape:groupmode="layer"
     inkscape:label="Layer 1">
    <g
       transform="matrix(0.35277777,0,0,-0.35277777,0,62.73306)"
       id="g484">
      <path
         inkscape:connector-curvature="0"
         id="path486"
         style="fill:#e6e6e6;fill-opacity:1;fill-rule:evenodd;stroke:none"
         d="M 0,0 V 177.826 H 177.271 V 0 H 16.993 v 17.005 h 9.184 V 1.847 H 175.436 V 175.993 H 1.833 V 0 H 0" />
    </g>
    <g
       transform="matrix(0.35277777,0,0,-0.35277777,0.97049,33.23167)"
       id="g492">
      <path
         inkscape:connector-curvature="0"
         id="path494"
         style="fill:#e6e6e6;fill-opacity:1;fill-rule:evenodd;stroke:none"
         d="m 0,0 h 42.252 v -18.83 h 8.269 v 49.159 h 17.912 v 7.352 H 42.252 V 7.819 H 0 V 0" />
    </g>
    <g
       transform="matrix(0.35277777,0,0,-0.35277777,10.20586,23.50276)"
       id="g500">
      <path
         inkscape:connector-curvature="0"
         id="path502"
         style="fill:#e6e6e6;fill-opacity:1;fill-rule:evenodd;stroke:none"
         d="M 0,0 H -10.102 V 44.111 H 42.254 V 37.208 H 0 V 0" />
    </g>
    <g
       transform="matrix(0.35277777,0,0,-0.35277777,31.43109,7.9410297)"
       id="g508">
      <path
         inkscape:connector-curvature="0"
         id="path510"
         style="fill:#e6e6e6;fill-opacity:1;fill-rule:evenodd;stroke:none"
         d="m 0,0 v -61.115 h -20.678 v -50.088 h 7.352 v 43.196 H 16.073 V -84.552 H 0.917 v -7.81 h 22.497 v 31.247 H 7.346 V 0 H 0" />
    </g>
    <g
       transform="matrix(0.35277777,0,0,-0.35277777,40.34155,7.9410297)"
       id="g516">
      <path
         inkscape:connector-curvature="0"
         id="path518"
         style="fill:#e6e6e6;fill-opacity:1;fill-rule:evenodd;stroke:none"
         d="m 0,0 h 42.244 v -30.329 h -6.42 V -5.975 H 0 V 0" />
    </g>
    <path
       inkscape:connector-curvature="0"
       id="path524"
       style="fill:#e6e6e6;fill-opacity:1;fill-rule:nonzero;stroke:none;stroke-width:0.352777"
       d="m 52.97981,25.61026 h 2.26554 v -2.75449 h -2.26554 z" />
    <g
       transform="matrix(0.35277777,0,0,-0.35277777,46.66051,25.61026)"
       id="g530">
      <path
         inkscape:connector-curvature="0"
         id="path532"
         style="fill:#e6e6e6;fill-opacity:1;fill-rule:evenodd;stroke:none"
         d="m 0,0 v 26.646 h -17.912 v -6.89 h 10.56 L -7.352,0 H 0" />
    </g>
    <g
       transform="matrix(0.35277777,0,0,-0.35277777,60.91626,31.44767)"
       id="g538">
      <path
         inkscape:connector-curvature="0"
         id="path540"
         style="fill:#e6e6e6;fill-opacity:1;fill-rule:evenodd;stroke:none"
         d="m 0,0 h -47.761 v -43.654 h -17.91 v -6.433 h 24.345 V -6.892 H 0 V 0" />
    </g>
    <g
       transform="matrix(0.35277777,0,0,-0.35277777,52.32788,40.20115)"
       id="g546">
      <path
         inkscape:connector-curvature="0"
         id="path548"
         style="fill:#e6e6e6;fill-opacity:1;fill-rule:evenodd;stroke:none"
         d="m 0,0 h 8.268 v -46.865 h -25.249 v 6.433 H 0 V 0" />
    </g>
    <g
       transform="matrix(0.35277777,0,0,-0.35277777,41.31204,54.46466)"
       id="g554">
      <path
         inkscape:connector-curvature="0"
         id="path556"
         style="fill:#e6e6e6;fill-opacity:1;fill-rule:evenodd;stroke:none"
         d="m 0,0 h -22.507 v 25.729 h -5.502 V 0 h -35.824 v 23.896 h -8.268 V -6.433 H 0 V 0" />
    </g>
    <path
       inkscape:connector-curvature="0"
       id="path562"
       style="fill:#e6e6e6;fill-opacity:1;fill-rule:nonzero;stroke:none;stroke-width:0.352777"
       d="M 5.99475,50.41159 H 9.23467 V 39.0652 H 5.99475 Z" />
    <path
       inkscape:connector-curvature="0"
       id="path568"
       style="fill:#6c85d6;fill-opacity:1;fill-rule:nonzero;stroke:none;stroke-width:0.352777"
       d="m 27.7054,44.74034 h 10.04429 v -3.568 H 27.7054 Z" />
    <path
       inkscape:connector-curvature="0"
       id="path574"
       style="fill:#9f41e7;fill-opacity:1;fill-rule:nonzero;stroke:none;stroke-width:0.352777"
       d="m 15.55327,45.06419 h 7.28909 v -4.21534 h -7.28909 z" />
    <path
       inkscape:connector-curvature="0"
       id="path580"
       style="fill:#c48fe5;fill-opacity:1;fill-rule:nonzero;stroke:none;stroke-width:0.352777"
       d="m 25.43563,21.23299 h 5.67126 V 8.2676997 h -5.67126 z" />
    <path
       inkscape:connector-curvature="0"
       id="path586"
       style="fill:#5e569e;fill-opacity:1;fill-rule:nonzero;stroke:none;stroke-width:0.352777"
       d="m 34.67135,11.34639 h 5.02003 V 1.4597997 h -5.02003 z" />
    <path
       inkscape:connector-curvature="0"
       id="path592"
       style="fill:#166030;fill-opacity:1;fill-rule:nonzero;stroke:none;stroke-width:0.352777"
       d="m 52.97981,22.20842 h 7.61295 v -2.92065 h -7.61295 z" />
    <path
       inkscape:connector-curvature="0"
       id="path598"
       style="fill:#cfb8ac;fill-opacity:1;fill-rule:nonzero;stroke:none;stroke-width:0.352777"
       d="m 40.0177,28.85405 h 6.64245 v -2.9203 H 40.0177 Z" />
    <path
       inkscape:connector-curvature="0"
       id="path604"
       style="fill:#e9d18c;fill-opacity:1;fill-rule:nonzero;stroke:none;stroke-width:0.352777"
       d="m 6.9656,56.08708 h 8.26382 V 51.38667 H 6.9656 Z" />
    <path
       inkscape:connector-curvature="0"
       id="path610"
       style="fill:#041883;fill-opacity:1;fill-rule:nonzero;stroke:none;stroke-width:0.352777"
       d="m 41.63554,57.70527 h 4.37303 v -7.29368 h -4.37303 z" />
    <path
       inkscape:connector-curvature="0"
       id="path616"
       style="fill:#00ff00;fill-opacity:1;fill-rule:nonzero;stroke:none;stroke-width:0.352777"
       d="m 30.45566,36.47229 h 3.24026 v -3.24027 h -3.24026 z" />
    <path
       inkscape:connector-curvature="0"
       id="path622"
       style="fill:#ff0000;fill-opacity:1;fill-rule:nonzero;stroke:none;stroke-width:0.352777"
       d="M 1.61784,62.40569 H 4.8581 v -3.0787 H 1.61784 Z" />
  </g>
</svg>
