<?xml version="1.0" encoding="UTF-8" standalone="no"?>
<svg
   xmlns:dc="http://purl.org/dc/elements/1.1/"
   xmlns:cc="http://creativecommons.org/ns#"
   xmlns:rdf="http://www.w3.org/1999/02/22-rdf-syntax-ns#"
   xmlns:svg="http://www.w3.org/2000/svg"
   xmlns="http://www.w3.org/2000/svg"
   xmlns:sodipodi="http://sodipodi.sourceforge.net/DTD/sodipodi-0.dtd"
   xmlns:inkscape="http://www.inkscape.org/namespaces/inkscape"
   sodipodi:docname="moghaddam_planning_2016_benchmark_07.svg"
   inkscape:version="1.0alpha2 (62cc95fa7e, 2019-08-07)"
   id="svg1440"
   version="1.1"
   viewBox="0 0 210 297"
   height="297mm"
   width="210mm">
  <defs
     id="defs1434" />
  <sodipodi:namedview
     inkscape:window-maximized="0"
     inkscape:window-y="24"
     inkscape:window-x="1920"
     inkscape:window-height="1028"
     inkscape:window-width="1895"
     showgrid="false"
     inkscape:document-rotation="0"
     inkscape:current-layer="layer1"
     inkscape:document-units="mm"
     inkscape:cy="560"
     inkscape:cx="400"
     inkscape:zoom="0.35"
     inkscape:pageshadow="2"
     inkscape:pageopacity="0.0"
     borderopacity="1.0"
     bordercolor="#666666"
     pagecolor="#ffffff"
     id="base" />
  <metadata
     id="metadata1437">
    <rdf:RDF>
      <cc:Work
         rdf:about="">
        <dc:format>image/svg+xml</dc:format>
        <dc:type
           rdf:resource="http://purl.org/dc/dcmitype/StillImage" />
        <dc:title></dc:title>
      </cc:Work>
    </rdf:RDF>
  </metadata>
  <g
     id="layer1"
     inkscape:groupmode="layer"
     inkscape:label="Layer 1">
    <g
       id="g474"
       transform="matrix(0.35277777,0,0,-0.35277777,0,57.182807)">
      <path
         d="M 0,0 V 162.093 H 163.771 V 0 H 11.936 v 2.554 h 86.583 v 27.73 h 3.405 V 2.554 h 59.279 v 57.589 h -22.595 v 3.41 h 22.595 v 59.29 h -39.23 v 2.565 h 39.23 V 159.1 h -51.6 v -28.571 h -3.407 V 159.1 H 81.884 V 130.529 H 78.465 V 159.1 H 45.201 V 130.529 H 41.795 V 159.1 H 2.555 v -45.21 h 39.24 v -3.415 H 2.555 V 62.7 h 39.24 V 59.717 H 2.555 V 0 H 0"
         style="fill:#e6e6e6;fill-opacity:1;fill-rule:evenodd;stroke:none"
         id="path476"
         inkscape:connector-curvature="0" />
    </g>
    <path
       d="M 15.344774,31.451196 H 16.54704 V 17.004242 h -1.202266 z"
       style="fill:#e6e6e6;fill-opacity:1;fill-rule:nonzero;stroke:none;stroke-width:0.352777"
       id="path482"
       inkscape:connector-curvature="0" />
    <path
       d="m 14.744346,52.368448 h 1.8034 V 40.629063 h -1.8034 z"
       style="fill:#e6e6e6;fill-opacity:1;fill-rule:nonzero;stroke:none;stroke-width:0.352777"
       id="path488"
       inkscape:connector-curvature="0" />
    <path
       d="M 20.009907,12.941653 H 32.946972 V 11.739739 H 20.009907 Z"
       style="fill:#e6e6e6;fill-opacity:1;fill-rule:nonzero;stroke:none;stroke-width:0.352777"
       id="path494"
       inkscape:connector-curvature="0" />
    <g
       id="g500"
       transform="matrix(0.35277777,0,0,-0.35277777,40.623064,17.004948)">
      <path
         d="m 0,0 v -19.193 h 17.055 v -2.566 H 0 V -60.143 H -2.559 V 0 H 0"
         style="fill:#e6e6e6;fill-opacity:1;fill-rule:evenodd;stroke:none"
         id="path502"
         inkscape:connector-curvature="0" />
    </g>
    <g
       id="g508"
       transform="matrix(0.35277777,0,0,-0.35277777,17.152406,43.036417)">
      <path
         d="m 0,0 h 63.972 v 11.946 h 2.559 V -1.288 H 0 V 0"
         style="fill:#e6e6e6;fill-opacity:1;fill-rule:evenodd;stroke:none"
         id="path510"
         inkscape:connector-curvature="0" />
    </g>
    <g
       id="g516"
       transform="matrix(0.35277777,0,0,-0.35277777,23.018747,22.874464)">
      <path
         d="M 0,0 H 33.268 V -33.699 H 0 v 21.758 H 3.411 V -30.285 H 29.848 V -3.414 H 0 V 0"
         style="fill:#e6e6e6;fill-opacity:1;fill-rule:evenodd;stroke:none"
         id="path518"
         inkscape:connector-curvature="0" />
    </g>
    <g
       id="g524"
       transform="matrix(0.35277777,0,0,-0.35277777,46.789972,19.71181)">
      <path
         d="m 0,0 v -14.086 h 14.504 v 2.566 H 2.555 V 0 H 0"
         style="fill:#e6e6e6;fill-opacity:1;fill-rule:evenodd;stroke:none"
         id="path526"
         inkscape:connector-curvature="0" />
    </g>
    <path
       d="m 3.609268,43.190582 h 2.258131 v -5.56895 H 3.609268 Z"
       style="fill:#1c294c;fill-opacity:1;fill-rule:nonzero;stroke:none;stroke-width:0.352777"
       id="path532"
       inkscape:connector-curvature="0" />
    <path
       d="M 3.910188,49.206503 H 5.867399 V 45.29702 H 3.910188 Z"
       style="fill:#6c8746;fill-opacity:1;fill-rule:nonzero;stroke:none;stroke-width:0.352777"
       id="path538"
       inkscape:connector-curvature="0" />
    <path
       d="m 11.284302,42.135778 h 2.253897 v -5.419373 h -2.253897 z"
       style="fill:#d3ca46;fill-opacity:1;fill-rule:nonzero;stroke:none;stroke-width:0.352777"
       id="path544"
       inkscape:connector-curvature="0" />
    <path
       d="m 4.361038,21.8186 h 6.017683 V 19.712517 H 4.361038 Z"
       style="fill:#9d1aab;fill-opacity:1;fill-rule:nonzero;stroke:none;stroke-width:0.352777"
       id="path550"
       inkscape:connector-curvature="0" />
    <path
       d="m 4.361038,25.8826 h 6.017683 V 23.775811 H 4.361038 Z"
       style="fill:#59ab4b;fill-opacity:1;fill-rule:nonzero;stroke:none;stroke-width:0.352777"
       id="path556"
       inkscape:connector-curvature="0" />
    <path
       d="m 4.361038,29.644621 h 6.017683 V 27.687763 H 4.361038 Z"
       style="fill:#ae6464;fill-opacity:1;fill-rule:nonzero;stroke:none;stroke-width:0.352777"
       id="path562"
       inkscape:connector-curvature="0" />
    <path
       d="m 4.361038,33.258478 h 5.717469 v -1.80693 H 4.361038 Z"
       style="fill:#35b9d1;fill-opacity:1;fill-rule:nonzero;stroke:none;stroke-width:0.352777"
       id="path568"
       inkscape:connector-curvature="0" />
    <path
       d="m 3.609268,6.4709981 h 6.769453 v -2.70756 H 3.609268 Z"
       style="fill:#ec8331;fill-opacity:1;fill-rule:nonzero;stroke:none;stroke-width:0.352777"
       id="path574"
       inkscape:connector-curvature="0" />
    <path
       d="m 3.609268,11.134725 h 6.769453 V 8.4267981 H 3.609268 Z"
       style="fill:#9a3369;fill-opacity:1;fill-rule:nonzero;stroke:none;stroke-width:0.352777"
       id="path580"
       inkscape:connector-curvature="0" />
    <path
       d="m 17.452621,28.292778 h 3.760611 v -6.319661 h -3.760611 z"
       style="fill:#da6dec;fill-opacity:1;fill-rule:nonzero;stroke:none;stroke-width:0.352777"
       id="path586"
       inkscape:connector-curvature="0" />
    <path
       d="m 18.354321,47.704373 h 4.364566 V 45.29702 h -4.364566 z"
       style="fill:#5fb296;fill-opacity:1;fill-rule:nonzero;stroke:none;stroke-width:0.352777"
       id="path592"
       inkscape:connector-curvature="0" />
    <path
       d="m 18.354321,52.068588 h 4.364566 v -2.257777 h -4.364566 z"
       style="fill:#1a69ec;fill-opacity:1;fill-rule:nonzero;stroke:none;stroke-width:0.352777"
       id="path598"
       inkscape:connector-curvature="0" />
    <path
       d="m 18.354321,54.776157 h 4.364566 v -1.807316 h -4.364566 z"
       style="fill:#0e623d;fill-opacity:1;fill-rule:nonzero;stroke:none;stroke-width:0.352777"
       id="path604"
       inkscape:connector-curvature="0" />
    <g
       id="g610"
       transform="matrix(0.35277777,0,0,-0.35277777,37.16302,47.704373)">
      <path
         d="M 0,0 H 5.962 L 5.109,-14.923 H 0 V 0"
         style="fill:#3a5bec;fill-opacity:1;fill-rule:evenodd;stroke:none"
         id="path612"
         inkscape:connector-curvature="0" />
    </g>
    <path
       d="m 50.399947,52.968878 h 2.708627 V 45.29702 h -2.708627 z"
       style="fill:#80cd59;fill-opacity:1;fill-rule:nonzero;stroke:none;stroke-width:0.352777"
       id="path618"
       inkscape:connector-curvature="0" />
    <path
       d="m 47.391106,33.858905 h 7.373408 v -1.806223 h -7.373408 z"
       style="fill:#75f322;fill-opacity:1;fill-rule:nonzero;stroke:none;stroke-width:0.352777"
       id="path624"
       inkscape:connector-curvature="0" />
    <path
       d="m 50.700514,22.57425 h 4.966052 v -1.957247 h -4.966052 z"
       style="fill:#12b4ee;fill-opacity:1;fill-rule:nonzero;stroke:none;stroke-width:0.352777"
       id="path630"
       inkscape:connector-curvature="0" />
    <path
       d="m 23.619882,9.3327381 h 2.557991 v -6.17044 h -2.557991 z"
       style="fill:#1ca625;fill-opacity:1;fill-rule:nonzero;stroke:none;stroke-width:0.352777"
       id="path636"
       inkscape:connector-curvature="0" />
    <path
       d="m 30.689547,8.4267981 h 2.257425 v -5.87022 h -2.257425 z"
       style="fill:#b1a00b;fill-opacity:1;fill-rule:nonzero;stroke:none;stroke-width:0.352777"
       id="path642"
       inkscape:connector-curvature="0" />
    <path
       d="m 35.95652,32.657696 h 2.107494 V 27.087688 H 35.95652 Z"
       style="fill:#cbfb6f;fill-opacity:1;fill-rule:nonzero;stroke:none;stroke-width:0.352777"
       id="path648"
       inkscape:connector-curvature="0" />
    <path
       d="m 23.018748,20.917606 h 2.557992 v -6.0198 h -2.557992 z"
       style="fill:#580c39;fill-opacity:1;fill-rule:nonzero;stroke:none;stroke-width:0.352777"
       id="path654"
       inkscape:connector-curvature="0" />
    <path
       d="m 27.680706,20.316825 h 2.708275 v -5.418667 h -2.708275 z"
       style="fill:#949940;fill-opacity:1;fill-rule:nonzero;stroke:none;stroke-width:0.352777"
       id="path660"
       inkscape:connector-curvature="0" />
    <path
       d="M 32.496829,19.711811 H 34.15312 V 14.8971 h -1.656291 z"
       style="fill:#a70ff0;fill-opacity:1;fill-rule:nonzero;stroke:none;stroke-width:0.352777"
       id="path666"
       inkscape:connector-curvature="0" />
    <path
       d="m 45.738695,9.0282881 h 4.060474 v -4.96499 h -4.060474 z"
       style="fill:#1855a6;fill-opacity:1;fill-rule:nonzero;stroke:none;stroke-width:0.352777"
       id="path672"
       inkscape:connector-curvature="0" />
    <g
       id="g678"
       transform="matrix(0.35277777,0,0,-0.35277777,40.02052,9.9324581)">
      <path
         d="M 0,0 V 4.268 L 5.114,5.971 8.529,2.564 V -1.703 L 3.411,-2.556 0,0"
         style="fill:#808761;fill-opacity:1;fill-rule:evenodd;stroke:none"
         id="path680"
         inkscape:connector-curvature="0" />
    </g>
    <g
       id="g686"
       transform="matrix(0.35277777,0,0,-0.35277777,30.088769,39.4275)">
      <path
         d="M 0,0 V 5.121 L 5.123,7.684 8.956,5.121 V -0.851 L 4.271,-2.554 0,0"
         style="fill:#c448a6;fill-opacity:1;fill-rule:evenodd;stroke:none"
         id="path688"
         inkscape:connector-curvature="0" />
    </g>
    <path
       d="m 45.738695,51.768021 h 1.952977 v -1.95721 h -1.952977 z"
       style="fill:#eb54cf;fill-opacity:1;fill-rule:nonzero;stroke:none;stroke-width:0.352777"
       id="path694"
       inkscape:connector-curvature="0" />
    <path
       d="m 8.87624,52.368448 h 2.408062 V 50.111695 H 8.87624 Z"
       style="fill:#00ff00;fill-opacity:1;fill-rule:nonzero;stroke:none;stroke-width:0.352777"
       id="path700"
       inkscape:connector-curvature="0" />
    <path
       d="m 42.125194,20.917606 h 2.40806 v -2.407003 h -2.40806 z"
       style="fill:#ff0000;fill-opacity:1;fill-rule:nonzero;stroke:none;stroke-width:0.352777"
       id="path706"
       inkscape:connector-curvature="0" />
  </g>
</svg>
