<?xml version="1.0" encoding="UTF-8" standalone="no"?>
<!-- Created with Inkscape (http://www.inkscape.org/) -->

<svg
   xmlns:dc="http://purl.org/dc/elements/1.1/"
   xmlns:cc="http://creativecommons.org/ns#"
   xmlns:rdf="http://www.w3.org/1999/02/22-rdf-syntax-ns#"
   xmlns:svg="http://www.w3.org/2000/svg"
   xmlns="http://www.w3.org/2000/svg"
   xmlns:sodipodi="http://sodipodi.sourceforge.net/DTD/sodipodi-0.dtd"
   xmlns:inkscape="http://www.inkscape.org/namespaces/inkscape"
   id="svg4136"
   version="1.1"
   inkscape:version="0.91 r13725"
   width="2812.5"
   height="1350"
   viewBox="0 0 2812.5 1350"
   sodipodi:docname="04_hotel.svg">
  <metadata
     id="metadata4142">
    <rdf:RDF>
      <cc:Work
         rdf:about="">
        <dc:format>image/svg+xml</dc:format>
        <dc:type
           rdf:resource="http://purl.org/dc/dcmitype/StillImage" />
        <dc:title />
      </cc:Work>
    </rdf:RDF>
  </metadata>
  <defs
     id="defs4140" />
  <sodipodi:namedview
     pagecolor="#ffffff"
     bordercolor="#666666"
     borderopacity="1"
     objecttolerance="10"
     gridtolerance="10"
     guidetolerance="10"
     inkscape:pageopacity="0"
     inkscape:pageshadow="2"
     inkscape:window-width="1536"
     inkscape:window-height="801"
     id="namedview4138"
     showgrid="false"
     inkscape:zoom="2.8188444"
     inkscape:cx="225.2581"
     inkscape:cy="105.6686"
     inkscape:window-x="1912"
     inkscape:window-y="-8"
     inkscape:window-maximized="1"
     inkscape:current-layer="svg4136" />
  <path
     style="fill:#000000;fill-opacity:1;fill-rule:evenodd;stroke:none;stroke-width:1px;stroke-linecap:butt;stroke-linejoin:miter;stroke-opacity:1"
     d="m 255.10943,1277.7344 -4.50179,-0.081 -0.0118,22.8546 118.17987,-0.058 -0.0144,-4.5597 -49.971,0.014 0.0389,-40.9225 18.14289,-0.015 0.0358,-4.5095 -22.77731,0.011 -0.007,45.4459 -59.06924,-0.024 z"
     id="wall_01"
     inkscape:connector-curvature="0"
     sodipodi:nodetypes="ccccccccccccc" />
  <path
     style="fill:#800000;fill-opacity:1;fill-rule:evenodd;stroke:none;stroke-width:1px;stroke-linecap:butt;stroke-linejoin:miter;stroke-opacity:1"
     d="m 50.632004,1191.4895 45.45628,-0.076 -0.0498,22.7034 -45.46627,-0.027 z"
     id="bed_01"
     inkscape:connector-curvature="0"
     sodipodi:nodetypes="ccccc" />
  <path
     style="fill:#800000;fill-opacity:1;fill-rule:evenodd;stroke:none;stroke-width:1px;stroke-linecap:butt;stroke-linejoin:miter;stroke-opacity:1"
     d="m 164.12097,1191.3694 0.0188,36.3927 13.58787,0.01 0.0287,-36.4008 z"
     id="cabinet_01"
     inkscape:connector-curvature="0"
     sodipodi:nodetypes="ccccc" />
  <path
     style="fill:#800000;fill-opacity:1;fill-rule:evenodd;stroke:none;stroke-width:1px;stroke-linecap:butt;stroke-linejoin:miter;stroke-opacity:1"
     d="m 164.20208,1245.8773 13.55427,0.01 -0.0895,36.3757 -13.48503,0 z"
     id="table_01"
     inkscape:connector-curvature="0"
     sodipodi:nodetypes="ccccc" />
  <path
     style="fill:#800000;fill-opacity:1;fill-rule:evenodd;stroke:none;stroke-width:1px;stroke-linecap:butt;stroke-linejoin:miter;stroke-opacity:1"
     d="m 55.026634,1277.6942 0.0538,18.2391 36.35264,-0.057 -0.0143,-18.153 z"
     id="desk_01"
     inkscape:connector-curvature="0"
     sodipodi:nodetypes="ccccc" />
  <path
     style="fill:#ffcc00;fill-opacity:1;fill-rule:evenodd;stroke:none;stroke-width:1px;stroke-linecap:butt;stroke-linejoin:miter;stroke-opacity:1"
     d="m 64.114644,1259.4976 18.33573,0.042 -0.0253,18.0984 -18.32892,-0.02 z"
     id="chair_01"
     inkscape:connector-curvature="0"
     sodipodi:nodetypes="ccccc" />
  <path
     style="fill:#800000;fill-opacity:1;fill-rule:evenodd;stroke:none;stroke-width:1px;stroke-linecap:butt;stroke-linejoin:miter;stroke-opacity:1"
     d="m 182.47277,1214.1114 45.42573,0.036 -0.0126,-22.7376 -45.40297,-0.029 z"
     id="bed_02"
     inkscape:connector-curvature="0"
     sodipodi:nodetypes="ccccc" />
  <path
     style="fill:#800000;fill-opacity:1;fill-rule:evenodd;stroke:none;stroke-width:1px;stroke-linecap:butt;stroke-linejoin:miter;stroke-opacity:1"
     d="m 300.55,1191.3946 13.63933,-0.01 -0.0282,36.3833 -13.60627,0.01 z"
     id="cabinet_02"
     inkscape:connector-curvature="0"
     sodipodi:nodetypes="ccccc" />
  <path
     style="fill:#800000;fill-opacity:1;fill-rule:evenodd;stroke:none;stroke-width:1px;stroke-linecap:butt;stroke-linejoin:miter;stroke-opacity:1"
     d="m 300.57994,1259.5402 13.56457,-0.013 0.0102,36.3138 -13.57452,-0.017 z"
     id="table_02"
     inkscape:connector-curvature="0"
     sodipodi:nodetypes="ccccc" />
  <path
     style="fill:#800000;fill-opacity:1;fill-rule:evenodd;stroke:none;stroke-width:1px;stroke-linecap:butt;stroke-linejoin:miter;stroke-opacity:1"
     d="m 186.86231,1277.7057 0.0118,18.1144 36.45579,0.045 0,-18.1743 z"
     id="desk_02"
     inkscape:connector-curvature="0"
     sodipodi:nodetypes="ccccc" />
  <path
     style="fill:#ffcc00;fill-opacity:1;fill-rule:evenodd;stroke:none;stroke-width:1px;stroke-linecap:butt;stroke-linejoin:miter;stroke-opacity:1"
     d="m 195.96436,1259.4914 18.29963,0.013 -0.005,18.1339 -18.2707,0.01 z"
     id="chair_21"
     inkscape:connector-curvature="0"
     sodipodi:nodetypes="ccccc" />
  <path
     style="opacity:1;fill:#ffcc00;fill-opacity:1;fill-rule:evenodd;stroke:none;stroke-width:0.89999998;stroke-linecap:butt;stroke-linejoin:miter;stroke-miterlimit:4;stroke-dasharray:none;stroke-opacity:1"
     d="m 282.38366,1236.7783 0.004,18.2714 18.26379,0 0.006,-18.2806 z"
     id="chair_22"
     inkscape:connector-curvature="0"
     sodipodi:nodetypes="ccccc" />
  <path
     style="fill:#800000;fill-opacity:1;fill-rule:evenodd;stroke:none;stroke-width:1px;stroke-linecap:butt;stroke-linejoin:miter;stroke-opacity:1"
     d="m 318.81204,1227.7316 13.6373,0.01 0.007,-36.3772 -13.63729,0.02 z"
     id="cabinet_03"
     inkscape:connector-curvature="0"
     sodipodi:nodetypes="ccccc" />
  <path
     style="fill:#800000;fill-opacity:1;fill-rule:evenodd;stroke:none;stroke-width:1px;stroke-linecap:butt;stroke-linejoin:miter;stroke-opacity:1"
     d="m 400.58421,1191.3986 0.005,22.7331 45.48726,0 -0.0262,-22.7485 z"
     id="bed_03"
     inkscape:connector-curvature="0"
     sodipodi:nodetypes="ccccc"
     inkscape:label="#bed_03" />
  <path
     style="fill:#800000;fill-opacity:1;fill-rule:evenodd;stroke:none;stroke-width:1px;stroke-linecap:butt;stroke-linejoin:miter;stroke-opacity:1"
     d="m 432.41879,1245.8619 13.61475,0 0.004,36.4781 -13.61207,0 z"
     id="table_03"
     inkscape:connector-curvature="0"
     sodipodi:nodetypes="ccccc" />
  <path
     style="fill:#800000;fill-opacity:1;fill-rule:evenodd;stroke:none;stroke-width:1px;stroke-linecap:butt;stroke-linejoin:miter;stroke-opacity:1"
     d="m 323.29501,1277.6736 0.0102,18.1895 36.48055,-0.061 -0.0213,-18.1253 z"
     id="desk_03"
     inkscape:connector-curvature="0"
     sodipodi:nodetypes="ccccc" />
  <path
     style="fill:#ffcc00;fill-opacity:1;fill-rule:evenodd;stroke:none;stroke-width:1px;stroke-linecap:butt;stroke-linejoin:miter;stroke-opacity:1"
     d="m 332.35649,1259.5015 18.35217,-0.01 -0.043,18.1531 -18.31075,0 z"
     id="chair_03"
     inkscape:connector-curvature="0"
     sodipodi:nodetypes="ccccc" />
  <path
     style="fill:#000000;fill-opacity:1;fill-rule:evenodd;stroke:none;stroke-width:1px;stroke-linecap:butt;stroke-linejoin:miter;stroke-opacity:1"
     d="m 45.92144,1296.005 0.114712,4.4737 54.573768,0.043 -0.043,-4.6314 -49.985326,0 0.0717,-104.5018 127.084476,0 0.0102,104.4747 -54.47083,0.059 0.0441,-18.2388 -4.66164,-0.03 -0.003,22.8688 113.74064,0.01 0,-4.6234 -49.96558,0 0.0203,-104.5343 131.78827,-0.02 -0.0405,40.9823 4.66399,0 -0.0811,-40.9823 127.27709,0.046 0.0307,104.5235 -54.45907,-0.057 -0.0287,-18.1531 -4.65912,-0.034 -0.002,22.8399 63.76501,0.05 0.009,-113.8185 -404.795576,0.1686 z"
     id="wall_02"
     inkscape:connector-curvature="0"
     sodipodi:nodetypes="cccccccccccccccccccccccccccccc" />
  <path
     style="fill:#000000;fill-opacity:1;fill-rule:evenodd;stroke:none;stroke-width:1px;stroke-linecap:butt;stroke-linejoin:miter;stroke-opacity:1"
     d="m 45.95012,1295.8903 0.08603,4.5024 4.473732,0.086 0,9.1195 -4.602063,0.01 0.01014,-4.5377 -31.728465,-0.01 0.021,31.7275 31.703773,0.01 0.0205,-4.5251 4.662594,-0.014 -0.0301,9.0487 395.499909,0.02 -0.0152,-40.7712 4.68476,-0.079 0,45.5403 -445.7339927,0 0.02425,-50.1025 z"
     id="wall_03"
     inkscape:connector-curvature="0"
     sodipodi:nodetypes="ccccccccccccccccccc" />
  <path
     inkscape:label="#path3336-6-0"
     style="fill:#00ff00;fill-opacity:1;stroke:none;stroke-width:1px;stroke-linecap:butt;stroke-linejoin:miter;stroke-opacity:1"
     d="m 52.788524,1312.4777 -14.560637,0 0,14.5603 14.560637,0 z"
     id="robot_01"
     inkscape:connector-curvature="0"
     sodipodi:nodetypes="ccccc" />
  <path
     style="fill:none;stroke:#0000ff;stroke-width:1.09148252px;stroke-linecap:butt;stroke-linejoin:miter;stroke-opacity:1"
     d="m 45.868438,1319.9706 9.797596,0"
     id="goal_01_dir"
     inkscape:connector-curvature="0"
     sodipodi:nodetypes="cc"
     inkscape:label="#path4217" />
</svg>
